<svg xmlns="http://www.w3.org/2000/svg" xmlns:xlink="http://www.w3.org/1999/xlink" width="200" zoomAndPan="magnify" viewBox="0 0 150 149.999998" height="200" preserveAspectRatio="xMidYMid meet" version="1.0"><defs><g/></defs><rect x="-15" width="180" fill="#ffffff" y="-15" height="179.999997" fill-opacity="1"/><rect x="-15" width="180" fill="#ffffff" y="-15" height="179.999997" fill-opacity="1"/><rect x="-15" width="180" fill="#1f2937" y="-15" height="179.999997" fill-opacity="1"/><g fill="#ffffff" fill-opacity="1"><g transform="translate(27.086716, 106.124994)"><g><path d="M 6 -4.480469 C 6.078125 -4.320312 6.238281 -4.320312 6.320312 -4.480469 C 6.398438 -4.558594 6.398438 -4.640625 6.480469 -4.640625 C 6.558594 -4.558594 6.558594 -4.480469 6.480469 -4.398438 L 6.480469 -4.320312 C 6.398438 -4.078125 6.320312 -3.917969 6.640625 -4.078125 C 6.71875 -4.078125 6.878906 -4 6.878906 -3.917969 C 6.800781 -3.757812 6.960938 -3.757812 7.039062 -3.679688 C 7.519531 -3.199219 8.160156 -3.039062 8.71875 -2.71875 C 9.359375 -2.320312 10 -2 10.640625 -1.679688 L 11.917969 -1.039062 C 13.199219 -0.480469 14.398438 0 15.679688 0.320312 C 17.039062 0.640625 18.398438 0.878906 19.757812 1.121094 C 20.957031 1.28125 22.160156 1.28125 23.277344 1.441406 L 24.160156 1.441406 C 25.359375 1.28125 26.558594 1.199219 27.679688 1.121094 C 28.398438 1.039062 29.117188 0.960938 29.839844 0.800781 C 31.679688 0.320312 33.4375 -0.320312 35.199219 -1.039062 C 35.917969 -1.359375 36.71875 -1.601562 37.359375 -2 C 38.476562 -2.640625 39.4375 -3.359375 40.316406 -4.160156 C 41.199219 -4.800781 41.917969 -5.519531 42.558594 -6.398438 L 44.398438 -9.28125 C 44.71875 -9.917969 45.039062 -10.558594 45.117188 -11.359375 C 45.117188 -11.597656 45.117188 -11.839844 45.195312 -12.078125 C 45.355469 -12.480469 45.4375 -12.960938 45.515625 -13.359375 C 45.757812 -14.960938 45.757812 -16.640625 45.515625 -18.238281 C 45.277344 -19.839844 44.796875 -21.4375 43.996094 -22.796875 L 42.71875 -25.039062 C 42.398438 -25.679688 41.996094 -26.316406 41.515625 -26.878906 C 41.199219 -27.277344 40.957031 -27.757812 40.71875 -28.238281 C 40.398438 -28.878906 40.398438 -29.519531 40.71875 -30.15625 C 41.117188 -31.039062 41.675781 -31.917969 42.238281 -32.796875 C 43.117188 -34.15625 43.835938 -35.597656 44.316406 -37.117188 C 44.558594 -38.15625 44.71875 -39.199219 44.796875 -40.238281 C 44.957031 -41.355469 44.796875 -42.558594 44.71875 -43.675781 C 44.71875 -43.917969 44.636719 -44.15625 44.558594 -44.398438 L 44.316406 -45.039062 C 44.238281 -45.277344 44.238281 -45.597656 44.078125 -45.675781 C 43.757812 -45.835938 43.996094 -46.078125 43.835938 -46.238281 L 43.355469 -47.117188 C 42.71875 -48.238281 42.078125 -49.355469 41.199219 -50.238281 C 40.398438 -51.035156 39.675781 -51.835938 38.796875 -52.558594 C 37.277344 -53.597656 35.679688 -54.554688 33.996094 -55.277344 L 32.558594 -55.675781 C 31.277344 -56.078125 29.917969 -56.476562 28.558594 -56.714844 C 27.199219 -56.957031 25.839844 -57.117188 24.398438 -57.195312 C 23.917969 -57.277344 23.359375 -57.277344 22.796875 -57.277344 L 19.757812 -57.117188 L 17.4375 -56.875 C 16.71875 -56.796875 16.078125 -56.554688 15.359375 -56.394531 C 13.917969 -56.078125 12.480469 -55.675781 11.121094 -55.117188 C 10.878906 -55.035156 10.640625 -54.957031 10.558594 -54.714844 C 10.480469 -54.636719 10.398438 -54.636719 10.320312 -54.636719 C 10.078125 -54.714844 9.917969 -54.554688 9.679688 -54.476562 C 8.480469 -53.917969 7.359375 -53.195312 6.238281 -52.476562 C 5.039062 -51.675781 4.238281 -50.476562 3.757812 -49.117188 C 3.441406 -48.316406 3.441406 -47.4375 3.519531 -46.636719 L 3.679688 -45.195312 C 3.679688 -44.796875 3.757812 -44.398438 3.679688 -43.917969 C 3.679688 -43.277344 3.679688 -42.558594 3.757812 -41.917969 C 3.839844 -40.71875 3.839844 -39.597656 4 -38.398438 C 4 -37.835938 4.078125 -37.277344 4.160156 -36.796875 C 4.320312 -36.078125 4.71875 -35.757812 5.359375 -35.597656 C 5.519531 -35.597656 5.601562 -35.597656 5.679688 -35.519531 C 6.078125 -35.359375 6.160156 -35.359375 6.320312 -35.679688 C 6.480469 -35.835938 6.640625 -36.078125 6.640625 -36.238281 C 6.640625 -36.476562 6.878906 -36.476562 6.960938 -36.636719 C 7.28125 -37.519531 7.839844 -38.238281 8.238281 -39.039062 C 8.71875 -39.835938 9.4375 -40.476562 10.078125 -41.277344 C 10.320312 -41.4375 10.558594 -41.597656 10.640625 -41.917969 C 11.4375 -42.15625 11.917969 -42.796875 12.480469 -43.277344 C 13.121094 -43.835938 13.757812 -44.558594 14.640625 -45.039062 C 16.558594 -46.15625 18.558594 -46.796875 20.796875 -46.796875 C 22.71875 -46.71875 24.160156 -45.835938 25.117188 -44.316406 C 25.679688 -43.515625 25.917969 -42.636719 26.078125 -41.675781 C 26.078125 -41.515625 26.316406 -41.355469 26.238281 -41.199219 C 26.160156 -40.796875 26.238281 -40.398438 26.160156 -39.996094 C 26.160156 -39.117188 26 -38.316406 25.519531 -37.597656 C 25.117188 -36.878906 24.476562 -36.316406 23.839844 -35.835938 C 22.71875 -35.039062 21.519531 -34.476562 20.238281 -34.15625 C 19.359375 -33.917969 18.480469 -33.835938 17.597656 -33.597656 C 17.117188 -33.519531 16.71875 -33.519531 16.320312 -33.519531 L 15.4375 -33.519531 C 14.960938 -33.519531 14.800781 -33.359375 14.640625 -32.878906 C 14.480469 -32.238281 14.558594 -31.519531 14.558594 -30.878906 C 14.558594 -30.078125 14.640625 -29.199219 14.640625 -28.398438 C 14.640625 -27.039062 14.640625 -25.679688 14.71875 -24.398438 C 14.800781 -23.757812 14.960938 -23.679688 15.597656 -23.679688 C 16.480469 -23.679688 17.4375 -23.679688 18.398438 -23.359375 L 19.597656 -23.117188 C 20.558594 -23.117188 21.519531 -22.878906 22.320312 -22.480469 C 23.757812 -21.917969 25.039062 -21.117188 26 -19.839844 C 27.117188 -18.160156 27.4375 -16.398438 26.957031 -14.480469 C 26.878906 -14.320312 26.796875 -14.238281 26.878906 -14.160156 C 26.957031 -14 26.957031 -13.917969 26.796875 -13.839844 C 26.636719 -13.839844 26.636719 -13.679688 26.636719 -13.597656 C 26.238281 -12.480469 25.679688 -11.519531 24.796875 -10.640625 C 23.757812 -9.757812 22.636719 -9.359375 21.359375 -9.28125 L 19.679688 -9.28125 C 19.277344 -9.28125 18.957031 -9.28125 18.558594 -9.359375 C 17.679688 -9.519531 16.878906 -9.757812 16.160156 -10.160156 C 16 -10.160156 15.757812 -10.320312 15.597656 -10.160156 C 15.597656 -10.078125 15.4375 -10.160156 15.4375 -10.238281 C 15.597656 -10.558594 15.277344 -10.558594 15.199219 -10.480469 C 15.039062 -10.480469 15.039062 -10.480469 15.039062 -10.558594 C 14.960938 -10.800781 14.800781 -10.878906 14.640625 -10.960938 L 13.4375 -11.679688 L 11.757812 -12.878906 C 10.640625 -13.757812 9.597656 -14.71875 8.398438 -15.519531 C 7.839844 -15.839844 7.28125 -15.917969 6.71875 -15.679688 C 6.160156 -15.4375 5.679688 -15.039062 5.121094 -14.71875 C 4.640625 -14.480469 4.160156 -14.078125 3.679688 -13.679688 C 3.519531 -13.597656 3.28125 -13.519531 3.441406 -13.277344 C 3.359375 -13.199219 3.121094 -13.359375 2.960938 -13.121094 C 2.320312 -12.558594 1.679688 -11.839844 1.441406 -11.039062 C 1.199219 -10.238281 1.121094 -9.519531 1.519531 -8.800781 C 2.078125 -7.839844 2.71875 -6.960938 3.601562 -6.238281 C 3.757812 -6.160156 3.839844 -5.679688 4.160156 -6.078125 C 4.160156 -6.160156 4.238281 -6.078125 4.238281 -6.078125 C 4.480469 -6 4.640625 -5.839844 4.640625 -5.601562 C 4.640625 -5.441406 4.558594 -5.441406 4.640625 -5.28125 C 5.039062 -4.960938 5.441406 -4.558594 6 -4.480469 Z M 8.320312 -42.476562 C 8.558594 -42.316406 8.71875 -42.238281 8.71875 -41.917969 L 8.71875 -41.757812 C 8.878906 -41.4375 8.800781 -41.355469 8.398438 -41.355469 L 8.320312 -41.355469 L 8.320312 -41.277344 C 8.320312 -40.796875 8.160156 -40.636719 7.757812 -40.476562 C 7.597656 -40.476562 7.597656 -40.398438 7.519531 -40.316406 C 7.519531 -40.15625 7.597656 -40.238281 7.757812 -40.15625 C 7.917969 -40.15625 8 -39.996094 8 -39.675781 C 8 -39.515625 8.078125 -39.359375 7.839844 -39.277344 C 7.757812 -39.199219 7.679688 -39.117188 7.597656 -39.199219 C 7.519531 -39.277344 7.597656 -39.359375 7.679688 -39.4375 C 7.757812 -39.675781 7.597656 -39.835938 7.441406 -39.996094 C 7.359375 -39.996094 7.28125 -39.996094 7.28125 -39.917969 C 7.28125 -39.757812 7.199219 -39.597656 7.039062 -39.515625 C 6.960938 -39.515625 7.039062 -39.4375 7.121094 -39.4375 C 7.359375 -39.359375 7.28125 -39.199219 7.199219 -39.039062 C 7.121094 -38.957031 7.121094 -38.878906 7.199219 -38.71875 C 7.359375 -38.476562 7.28125 -38.476562 7.039062 -38.476562 C 6.878906 -38.558594 6.800781 -38.476562 6.800781 -38.316406 C 6.800781 -38.15625 6.800781 -37.996094 6.640625 -38.078125 C 6.480469 -38.078125 6.640625 -38.238281 6.640625 -38.316406 L 6.640625 -39.039062 C 6.71875 -39.277344 6.71875 -39.4375 6.480469 -39.199219 C 6.398438 -39.039062 6.320312 -39.199219 6.320312 -39.277344 C 6.160156 -39.515625 5.917969 -39.515625 5.679688 -39.515625 C 5.679688 -39.515625 5.601562 -39.4375 5.519531 -39.515625 C 5.519531 -39.597656 5.601562 -39.597656 5.679688 -39.675781 C 5.679688 -39.675781 5.839844 -39.675781 5.757812 -39.835938 C 5.757812 -39.917969 5.601562 -39.917969 5.519531 -39.917969 C 5.441406 -39.917969 5.359375 -39.757812 5.28125 -39.757812 L 5.121094 -39.757812 L 5.121094 -39.835938 C 5.359375 -40.078125 4.800781 -40.078125 4.960938 -40.238281 C 5.359375 -40.636719 5.039062 -40.957031 4.800781 -41.117188 C 4.558594 -41.355469 4.558594 -41.675781 4.480469 -41.996094 L 4.480469 -42.15625 C 4.398438 -42.398438 4.398438 -42.476562 4.640625 -42.398438 C 4.71875 -42.398438 4.800781 -42.476562 4.878906 -42.476562 C 5.039062 -42.476562 5.121094 -42.558594 5.039062 -42.71875 C 4.878906 -42.957031 4.878906 -43.199219 5.199219 -43.199219 C 5.28125 -43.199219 5.441406 -43.355469 5.441406 -43.355469 C 5.441406 -43.597656 5.601562 -43.597656 5.839844 -43.597656 C 5.917969 -43.597656 6 -43.515625 6.078125 -43.515625 C 6.480469 -43.199219 6.800781 -43.355469 6.800781 -43.835938 C 6.878906 -44.398438 6.878906 -44.957031 6.800781 -45.515625 C 6.71875 -46.316406 6.640625 -47.117188 6.878906 -47.835938 C 7.039062 -48.71875 7.519531 -49.355469 8.238281 -49.917969 C 9.28125 -50.636719 10.398438 -51.277344 11.679688 -51.757812 C 13.277344 -52.316406 14.800781 -52.957031 16.480469 -53.4375 C 17.199219 -53.675781 17.917969 -53.835938 18.71875 -53.835938 C 19.519531 -53.835938 20.320312 -53.757812 21.039062 -53.996094 C 22.078125 -54.316406 23.039062 -54.15625 24.078125 -54.15625 C 25.519531 -54.15625 27.039062 -53.835938 28.476562 -53.597656 C 29.757812 -53.355469 30.957031 -53.035156 32.078125 -52.636719 C 33.597656 -52.078125 35.039062 -51.355469 36.316406 -50.398438 C 36.398438 -50.316406 36.558594 -50.078125 36.636719 -50.476562 C 36.636719 -50.558594 36.71875 -50.558594 36.71875 -50.398438 C 36.71875 -50.078125 36.957031 -49.917969 37.199219 -49.757812 C 37.996094 -49.117188 38.878906 -48.398438 39.4375 -47.4375 C 39.835938 -46.878906 40.238281 -46.238281 40.558594 -45.597656 C 40.957031 -44.796875 41.199219 -43.917969 41.4375 -43.039062 C 41.597656 -42.71875 41.515625 -42.316406 41.515625 -41.996094 C 41.597656 -41.355469 41.515625 -40.71875 41.597656 -40.078125 C 41.675781 -38.476562 41.117188 -37.117188 40.398438 -35.835938 C 40.078125 -35.199219 39.597656 -34.71875 39.117188 -34.238281 C 38.078125 -33.199219 37.117188 -32.078125 36.476562 -30.796875 C 35.835938 -29.679688 35.996094 -28.558594 36.558594 -27.519531 C 37.117188 -26.476562 37.835938 -25.597656 38.558594 -24.71875 L 40.316406 -22.636719 C 40.476562 -22.480469 40.636719 -22.320312 40.71875 -22.078125 C 41.039062 -21.359375 41.355469 -20.640625 41.757812 -20 C 42.15625 -19.359375 42.316406 -18.640625 42.398438 -17.917969 L 42.558594 -17.277344 C 42.558594 -17.199219 42.558594 -17.117188 42.636719 -17.039062 C 42.71875 -17.039062 42.796875 -17.117188 42.796875 -17.199219 C 42.796875 -17.277344 42.796875 -17.4375 42.878906 -17.4375 C 43.039062 -17.359375 42.957031 -17.199219 42.957031 -17.117188 C 42.957031 -17.039062 42.957031 -16.957031 42.878906 -16.957031 C 42.476562 -16.800781 42.636719 -16.480469 42.636719 -16.238281 C 42.636719 -14.238281 42.316406 -12.398438 41.4375 -10.640625 C 41.117188 -10 40.796875 -9.28125 40.316406 -8.800781 L 39.359375 -7.757812 C 38.476562 -6.71875 37.4375 -5.839844 36.316406 -5.039062 C 35.4375 -4.480469 34.476562 -4 33.4375 -3.679688 L 31.277344 -2.878906 C 30.476562 -2.480469 29.597656 -2.398438 28.71875 -2.238281 C 27.597656 -1.917969 26.398438 -1.917969 25.199219 -1.761719 C 23.519531 -1.679688 21.839844 -1.839844 20.160156 -1.917969 C 19.917969 -1.917969 19.679688 -2.078125 19.4375 -2 C 19.277344 -1.917969 19.277344 -2.160156 19.117188 -2.238281 C 18.398438 -2.398438 17.757812 -2.558594 16.957031 -2.558594 C 16.800781 -2.558594 16.800781 -2.800781 16.640625 -2.800781 C 16 -2.878906 15.4375 -3.121094 14.878906 -3.28125 C 13.679688 -3.679688 12.480469 -4.238281 11.277344 -4.800781 C 10.640625 -5.121094 9.839844 -5.359375 9.199219 -5.757812 C 9.121094 -5.839844 8.960938 -5.757812 9.039062 -5.679688 C 9.28125 -5.519531 8.960938 -5.359375 9.039062 -5.199219 L 9.039062 -5.121094 C 8.960938 -5.039062 8.878906 -4.960938 8.800781 -5.121094 C 8.558594 -5.359375 8.480469 -5.359375 8.398438 -5.039062 C 8.398438 -4.960938 8.320312 -4.960938 8.320312 -4.960938 C 8.238281 -5.039062 8.160156 -5.121094 8.160156 -5.28125 C 8.160156 -5.359375 8.160156 -5.441406 8.238281 -5.441406 C 8.320312 -5.441406 8.480469 -5.519531 8.480469 -5.441406 C 8.71875 -5.359375 8.800781 -5.519531 8.878906 -5.679688 C 8.960938 -5.917969 8.800781 -5.917969 8.640625 -6 C 7.839844 -6.640625 6.960938 -7.121094 6.238281 -7.839844 C 6 -8 5.757812 -8.160156 5.679688 -8.480469 C 5.601562 -8.640625 5.441406 -8.640625 5.359375 -8.480469 L 5.199219 -8.480469 C 5.121094 -8.558594 5.28125 -8.558594 5.28125 -8.640625 C 5.359375 -8.71875 5.359375 -8.878906 5.359375 -9.039062 C 4.800781 -10.078125 5.199219 -10.71875 5.917969 -11.4375 C 6.160156 -11.597656 6.480469 -11.679688 6.640625 -12 C 6.71875 -12.078125 6.960938 -12.078125 7.121094 -12.160156 C 7.28125 -12.160156 7.519531 -11.917969 7.679688 -12.238281 C 7.757812 -12.078125 7.917969 -12 7.917969 -11.839844 C 8 -11.519531 8.558594 -11.199219 8.878906 -11.199219 C 8.960938 -11.199219 9.121094 -11.199219 9.039062 -11.039062 C 8.878906 -10.878906 9.121094 -10.800781 9.199219 -10.71875 C 9.757812 -10.398438 10.160156 -10 10.800781 -9.839844 C 11.039062 -9.757812 11.121094 -9.519531 11.359375 -9.359375 C 11.679688 -9.199219 11.679688 -9.199219 11.839844 -9.519531 C 11.839844 -9.597656 11.917969 -9.597656 11.917969 -9.519531 C 12 -9.4375 12.320312 -9.519531 12.238281 -9.28125 C 12.238281 -9.199219 12.320312 -9.199219 12.398438 -9.199219 C 12.398438 -9.121094 12.558594 -9.199219 12.558594 -9.121094 C 12.558594 -9.039062 12.398438 -9.039062 12.398438 -9.039062 C 12.320312 -9.039062 12.320312 -8.960938 12.320312 -8.960938 C 12.238281 -8.878906 12.238281 -8.800781 12.320312 -8.71875 C 12.558594 -8.71875 12.640625 -8.320312 12.960938 -8.398438 C 13.039062 -8.398438 13.121094 -8.480469 13.121094 -8.558594 L 13.121094 -8.960938 C 13.199219 -9.039062 13.277344 -9.121094 13.4375 -9.121094 C 13.757812 -9.28125 13.839844 -9.28125 14 -8.960938 C 14.078125 -8.71875 14.078125 -8.800781 14.238281 -8.878906 C 14.480469 -9.039062 14.558594 -9.199219 14.320312 -9.4375 C 14.238281 -9.597656 14.238281 -9.597656 14.320312 -9.679688 C 14.398438 -9.839844 14.480469 -9.839844 14.558594 -9.757812 C 14.640625 -9.679688 14.640625 -9.597656 14.71875 -9.679688 C 14.800781 -9.679688 14.800781 -9.839844 14.800781 -9.917969 C 14.800781 -9.917969 14.71875 -10 14.71875 -10.078125 C 14.71875 -10.160156 14.640625 -10.320312 14.800781 -10.320312 C 14.878906 -10.398438 14.878906 -10.238281 14.960938 -10.160156 C 14.960938 -9.917969 15.277344 -9.679688 15.199219 -9.359375 C 15.117188 -9.199219 15.359375 -9.121094 15.597656 -9.28125 C 15.679688 -9.359375 15.839844 -9.519531 16 -9.28125 C 16.078125 -9.199219 16.078125 -9.121094 16 -9.039062 C 16 -8.960938 15.839844 -8.960938 15.917969 -8.878906 C 16 -8.800781 16.078125 -8.800781 16.160156 -8.878906 C 16.238281 -8.960938 16.398438 -9.039062 16.480469 -8.878906 C 16.558594 -8.640625 16.71875 -8.800781 16.800781 -8.878906 C 16.957031 -9.039062 17.039062 -9.121094 17.039062 -8.800781 C 16.957031 -8.640625 17.199219 -8.640625 17.117188 -8.398438 C 16.957031 -8.480469 16.878906 -8.398438 16.71875 -8.320312 C 16.640625 -8.320312 16.558594 -8.320312 16.398438 -8.398438 C 16.320312 -8.398438 16.238281 -8.320312 16.238281 -8.320312 C 16.558594 -8 16 -7.839844 16.078125 -7.597656 C 16.160156 -7.519531 16.078125 -7.441406 16 -7.441406 C 15.917969 -7.441406 15.917969 -7.519531 15.917969 -7.597656 C 15.917969 -7.839844 15.839844 -8.160156 16 -8.398438 C 16 -8.480469 16 -8.640625 15.917969 -8.640625 C 15.839844 -8.640625 15.679688 -8.640625 15.679688 -8.558594 C 15.679688 -8.320312 15.519531 -8.320312 15.4375 -8.238281 C 15.277344 -8.160156 15.199219 -8.078125 15.199219 -7.917969 C 15.199219 -7.757812 15.199219 -7.679688 15.039062 -7.597656 C 14.960938 -7.597656 14.800781 -7.597656 14.800781 -7.519531 C 14.800781 -7.359375 14.878906 -7.359375 14.960938 -7.28125 C 15.597656 -7.039062 16.238281 -6.878906 16.800781 -6.640625 C 17.039062 -6.558594 17.117188 -6.878906 17.277344 -6.71875 C 17.359375 -6.71875 17.199219 -6.558594 17.4375 -6.480469 C 18.320312 -6.398438 19.199219 -6.160156 20.160156 -6.320312 C 20.640625 -6.320312 21.117188 -6.238281 21.597656 -6.238281 C 23.519531 -6.398438 25.277344 -6.960938 26.71875 -8.160156 C 27.519531 -8.800781 28.316406 -9.519531 28.878906 -10.480469 C 28.957031 -10.640625 29.039062 -10.800781 28.71875 -10.71875 C 28.636719 -10.71875 28.636719 -10.71875 28.558594 -10.800781 C 28.558594 -10.800781 28.636719 -10.800781 28.636719 -10.878906 C 29.199219 -11.121094 29.359375 -11.679688 29.597656 -12.238281 C 30.238281 -14.160156 30.398438 -16.160156 30 -18.238281 C 29.679688 -19.757812 28.957031 -21.117188 27.839844 -22.398438 C 26.71875 -23.597656 25.359375 -24.636719 23.917969 -25.519531 C 23.199219 -26 22.398438 -26.398438 21.597656 -26.71875 C 20.640625 -27.039062 19.679688 -27.4375 18.71875 -27.597656 L 18.558594 -27.597656 C 17.839844 -27.839844 17.679688 -28 17.679688 -28.796875 C 17.757812 -29.277344 17.839844 -29.4375 18.320312 -29.519531 C 19.199219 -29.757812 20.078125 -30 20.957031 -30.316406 C 22.160156 -30.878906 23.277344 -31.519531 24.398438 -32.238281 C 24.878906 -32.558594 25.4375 -32.878906 25.917969 -33.277344 C 26.636719 -34.078125 27.519531 -34.796875 28.078125 -35.757812 C 28.878906 -37.117188 29.277344 -38.558594 29.277344 -40.15625 C 29.277344 -41.515625 29.039062 -42.878906 28.558594 -44.238281 C 28.476562 -44.398438 28.476562 -44.636719 28.316406 -44.71875 C 28.160156 -44.878906 28.160156 -45.039062 28.078125 -45.195312 C 27.839844 -45.757812 27.519531 -46.238281 27.117188 -46.636719 C 26.957031 -46.796875 26.957031 -47.035156 26.796875 -47.195312 C 26.316406 -47.757812 25.757812 -48.238281 25.039062 -48.636719 C 24.238281 -49.035156 23.4375 -49.355469 22.558594 -49.597656 C 21.519531 -49.917969 20.480469 -49.917969 19.4375 -49.835938 C 16.558594 -49.515625 14.078125 -48.316406 11.757812 -46.71875 C 11.679688 -46.71875 11.519531 -46.71875 11.597656 -46.558594 C 11.597656 -46.476562 11.679688 -46.398438 11.519531 -46.476562 C 11.121094 -46.636719 10.800781 -46.316406 10.558594 -46.078125 C 9.519531 -45.355469 8.640625 -44.558594 7.679688 -43.835938 C 7.519531 -43.675781 7.199219 -43.675781 7.28125 -43.355469 C 7.28125 -43.277344 7.199219 -43.277344 7.121094 -43.355469 C 7.039062 -43.355469 6.960938 -43.355469 6.960938 -43.277344 C 6.960938 -43.277344 6.960938 -43.199219 7.039062 -43.199219 C 7.359375 -42.878906 7.597656 -42.796875 8 -43.117188 C 8.078125 -43.199219 8.160156 -43.277344 8.238281 -43.199219 C 8.398438 -43.039062 8.238281 -42.957031 8.238281 -42.878906 C 8.160156 -42.71875 7.917969 -42.636719 7.757812 -42.476562 C 7.679688 -42.476562 7.597656 -42.398438 7.679688 -42.316406 C 7.679688 -42.15625 7.839844 -42.238281 7.839844 -42.316406 C 8 -42.316406 8.160156 -42.316406 8.320312 -42.476562 Z M 9.121094 -4.800781 C 9.121094 -4.960938 9.039062 -5.039062 9.039062 -5.121094 C 9.359375 -5.039062 9.4375 -4.800781 9.679688 -4.640625 C 9.839844 -4.480469 9.757812 -4.320312 9.597656 -4.160156 C 9.917969 -4.398438 10.160156 -4.160156 10.398438 -4 C 10.480469 -3.917969 10.320312 -3.839844 10.238281 -3.839844 C 9.917969 -3.757812 9.917969 -3.679688 10 -3.359375 C 10.078125 -3.28125 10.078125 -3.199219 10 -3.199219 C 10 -3.121094 9.917969 -3.121094 9.917969 -3.121094 C 9.839844 -3.199219 9.359375 -3.757812 9.359375 -3.839844 C 9.359375 -3.917969 9.4375 -3.917969 9.4375 -4 C 9.121094 -3.757812 9.039062 -3.757812 8.71875 -4 C 8.558594 -4.160156 8.480469 -4.238281 8.238281 -4.160156 C 8.078125 -4.160156 8 -4.320312 7.917969 -4.398438 C 7.839844 -4.558594 7.917969 -4.640625 7.917969 -4.71875 C 8 -4.800781 8.160156 -4.878906 8.160156 -4.71875 C 8.320312 -4.320312 8.480469 -4.558594 8.640625 -4.640625 C 8.800781 -4.800781 8.800781 -4.800781 8.878906 -4.558594 C 8.878906 -4.480469 8.878906 -4.480469 8.960938 -4.480469 C 9.121094 -4.558594 9.199219 -4.640625 9.121094 -4.800781 Z M 6 -4.800781 C 6 -4.960938 5.679688 -5.359375 6.238281 -5.121094 C 6.320312 -5.121094 6.640625 -5.359375 6.640625 -5.519531 C 6.558594 -5.839844 7.039062 -5.679688 6.960938 -5.917969 C 7.199219 -5.917969 7.28125 -5.839844 7.199219 -5.679688 C 7.199219 -5.519531 7.199219 -5.519531 7.359375 -5.519531 C 7.441406 -5.519531 7.519531 -5.757812 7.597656 -5.519531 C 7.597656 -5.359375 7.757812 -5.199219 7.597656 -5.039062 C 7.519531 -5.039062 7.441406 -4.960938 7.441406 -4.878906 C 7.121094 -4.878906 7.121094 -4.800781 7.28125 -4.558594 C 7.28125 -4.480469 7.28125 -4.398438 7.199219 -4.398438 C 7.039062 -4.320312 7.039062 -4.398438 7.039062 -4.480469 L 6.71875 -4.71875 C 6.640625 -4.800781 6.558594 -4.878906 6.640625 -5.039062 C 6.71875 -5.039062 6.71875 -5.121094 6.640625 -5.199219 C 6.558594 -5.199219 6.558594 -5.121094 6.480469 -5.039062 C 6.320312 -4.878906 6.238281 -4.640625 6 -4.480469 Z M 18.480469 -25.199219 C 18.480469 -25.277344 18.238281 -25.4375 18.480469 -25.519531 L 18.480469 -25.597656 C 18.238281 -25.597656 18 -25.597656 18.078125 -25.917969 C 18.078125 -26.160156 18.398438 -26.316406 18.640625 -26.316406 C 18.796875 -26.238281 18.957031 -26.078125 19.199219 -26.238281 C 19.199219 -26.316406 19.277344 -26.160156 19.277344 -26.160156 L 19.277344 -25.839844 C 19.359375 -25.839844 19.519531 -26 19.4375 -25.679688 C 19.359375 -25.277344 19.117188 -25.117188 18.71875 -25.117188 C 18.558594 -25.117188 18.480469 -25.039062 18.480469 -25.199219 Z M 28.078125 -14.320312 C 28.078125 -14.160156 28.160156 -14 28 -14 C 27.839844 -14 27.757812 -14.078125 27.757812 -14.160156 C 27.679688 -14.398438 27.597656 -14.558594 27.359375 -14.398438 C 27.277344 -14.398438 27.117188 -14.480469 27.117188 -14.558594 C 27.117188 -14.71875 27.117188 -14.878906 27.359375 -14.878906 C 27.597656 -14.878906 27.757812 -14.878906 27.757812 -15.277344 C 27.757812 -15.4375 27.917969 -15.359375 28.078125 -15.359375 C 28.078125 -15.277344 28.160156 -15.277344 28.078125 -15.117188 C 28.078125 -15.039062 27.839844 -14.960938 28 -14.878906 C 28.160156 -14.800781 28.476562 -14.800781 28.558594 -15.039062 C 28.636719 -15.117188 28.636719 -15.199219 28.636719 -15.359375 C 28.71875 -15.4375 28.71875 -15.519531 28.878906 -15.519531 C 28.957031 -15.519531 29.117188 -15.597656 29.199219 -15.519531 C 29.199219 -15.4375 29.199219 -15.277344 29.117188 -15.117188 C 29.039062 -15.039062 28.957031 -15.117188 28.878906 -15.199219 C 28.71875 -15.277344 28.71875 -15.117188 28.71875 -15.039062 C 28.636719 -14.71875 28.636719 -14.398438 28.160156 -14.558594 C 28 -14.558594 28.078125 -14.398438 28.078125 -14.320312 Z M 9.597656 -11.597656 C 9.597656 -11.597656 9.519531 -11.679688 9.597656 -11.757812 C 9.597656 -11.839844 9.679688 -11.917969 9.757812 -12 C 9.839844 -12.160156 10 -12.238281 9.917969 -12.480469 C 9.839844 -12.558594 9.839844 -12.640625 9.917969 -12.640625 C 10.078125 -12.71875 10.160156 -12.640625 10.320312 -12.558594 C 10.398438 -12.480469 10.320312 -12.398438 10.238281 -12.320312 C 10.078125 -12.320312 10.078125 -12.160156 10.160156 -12.078125 C 10.238281 -12 10.398438 -12.078125 10.398438 -12.160156 C 10.480469 -12.398438 10.640625 -12.398438 10.800781 -12.238281 C 11.039062 -12.160156 11.277344 -12.320312 11.4375 -12.320312 C 11.679688 -12.398438 11.917969 -12.480469 11.839844 -12.078125 C 11.839844 -11.917969 12 -11.839844 12 -11.679688 C 12.078125 -11.597656 12 -11.519531 11.917969 -11.519531 C 11.839844 -11.4375 11.757812 -11.519531 11.757812 -11.597656 C 11.757812 -11.917969 11.679688 -12 11.4375 -11.839844 L 11.121094 -11.839844 C 10.800781 -12.078125 10.480469 -11.839844 10.078125 -11.839844 C 9.917969 -11.839844 9.839844 -11.839844 9.757812 -11.679688 C 9.757812 -11.679688 9.757812 -11.597656 9.597656 -11.597656 Z M 13.679688 -9.519531 C 13.359375 -9.4375 13.199219 -9.28125 13.039062 -9.039062 C 12.878906 -9.121094 12.800781 -9.359375 12.558594 -9.519531 C 12.398438 -9.597656 12.71875 -10 12.878906 -10.078125 C 13.121094 -10.078125 13.359375 -10.078125 13.519531 -10.160156 C 13.757812 -10.238281 13.757812 -10 13.839844 -9.917969 C 13.917969 -9.757812 14 -9.757812 14 -9.597656 C 13.917969 -9.4375 13.757812 -9.519531 13.679688 -9.519531 Z M 13.277344 -8.71875 L 13.359375 -8.640625 C 13.519531 -8.640625 13.597656 -8.558594 13.679688 -8.398438 C 13.679688 -8.320312 13.839844 -8.320312 13.679688 -8.238281 C 13.597656 -8.238281 13.359375 -8.238281 13.4375 -8.078125 C 13.4375 -7.917969 13.597656 -7.839844 13.679688 -7.839844 L 14 -7.679688 C 14.398438 -7.519531 14.558594 -7.679688 14.71875 -8.078125 L 14.71875 -8.238281 C 14.640625 -8.320312 14.558594 -8.238281 14.558594 -8.160156 C 14.398438 -8.078125 14.398438 -8.078125 14.320312 -8.238281 C 14.320312 -8.320312 14.320312 -8.320312 14.238281 -8.320312 C 14 -8.320312 13.839844 -8.480469 13.757812 -8.640625 C 13.679688 -8.71875 13.597656 -8.878906 13.4375 -8.878906 Z M 2.878906 -8.398438 C 3.039062 -8.398438 3.039062 -8.078125 3.199219 -8.320312 C 3.199219 -8.398438 3.039062 -8.558594 3.039062 -8.640625 C 3.039062 -8.800781 3.28125 -8.878906 3.359375 -8.960938 C 3.441406 -9.039062 3.679688 -8.960938 3.757812 -8.800781 C 3.839844 -8.71875 3.679688 -8.71875 3.601562 -8.640625 C 3.519531 -8.480469 3.199219 -8.398438 3.441406 -8.078125 C 3.519531 -8.078125 3.441406 -8 3.441406 -8 L 3.199219 -7.839844 C 3.199219 -7.679688 3.121094 -7.441406 2.960938 -7.597656 C 2.800781 -7.597656 2.960938 -7.757812 2.960938 -7.917969 C 3.121094 -8.078125 2.878906 -8.078125 2.878906 -8.238281 C 2.800781 -8.320312 2.800781 -8.320312 2.878906 -8.398438 Z M 17.917969 -7.441406 C 17.757812 -7.359375 17.679688 -7.359375 17.597656 -7.441406 C 17.519531 -7.519531 17.4375 -7.519531 17.4375 -7.519531 C 17.117188 -7.199219 17.199219 -7.597656 17.117188 -7.679688 C 17.039062 -7.757812 17.117188 -7.839844 17.199219 -7.757812 C 17.277344 -7.679688 17.359375 -7.679688 17.4375 -7.757812 C 17.519531 -7.839844 17.4375 -7.917969 17.359375 -8 C 17.359375 -8.078125 17.199219 -8.078125 17.277344 -8.160156 C 17.277344 -8.238281 17.4375 -8.238281 17.519531 -8.238281 C 17.757812 -8.160156 18.078125 -7.839844 18.078125 -7.597656 C 18.160156 -7.441406 18.160156 -7.199219 17.917969 -7.441406 Z M 12.238281 -10.558594 C 12.238281 -10.640625 12.320312 -10.71875 12.480469 -10.800781 C 12.558594 -10.800781 12.71875 -10.878906 12.878906 -10.960938 C 12.960938 -10.960938 12.960938 -11.199219 13.121094 -11.121094 C 13.277344 -11.039062 13.039062 -10.960938 12.960938 -10.878906 C 12.960938 -10.800781 12.960938 -10.71875 13.039062 -10.640625 C 13.039062 -10.558594 12.960938 -10.398438 12.878906 -10.480469 C 12.558594 -10.71875 12.71875 -10.480469 12.71875 -10.320312 C 12.71875 -10.238281 12.480469 -10.078125 12.320312 -9.917969 L 12.160156 -9.917969 C 12.078125 -9.839844 11.917969 -9.757812 11.839844 -9.917969 C 11.757812 -10.078125 12 -10.078125 12.078125 -10.078125 C 12.238281 -10.160156 12.320312 -10.238281 12.398438 -10.398438 C 12.480469 -10.558594 12.398438 -10.558594 12.238281 -10.558594 Z M 28.957031 -17.359375 C 28.71875 -17.4375 28.71875 -17.597656 28.636719 -17.757812 C 28.398438 -17.917969 28.636719 -18.480469 28.957031 -18.558594 L 29.039062 -18.558594 C 29.117188 -18.480469 29.199219 -17.917969 29.117188 -17.917969 C 28.878906 -17.839844 28.878906 -17.757812 29.039062 -17.597656 C 29.117188 -17.519531 29.039062 -17.4375 28.957031 -17.359375 Z M 5.757812 -45.835938 C 5.441406 -45.515625 5.359375 -45.195312 5.199219 -44.878906 C 5.121094 -44.71875 5.039062 -44.636719 5.121094 -44.476562 C 5.121094 -44.398438 5.121094 -44.316406 4.960938 -44.238281 C 4.878906 -44.238281 4.878906 -44.316406 4.878906 -44.398438 C 4.71875 -44.71875 4.640625 -44.957031 5.039062 -45.117188 C 5.199219 -45.195312 5.28125 -45.355469 5.359375 -45.515625 C 5.359375 -45.757812 5.519531 -45.835938 5.679688 -45.917969 C 5.679688 -45.996094 5.757812 -45.917969 5.757812 -45.835938 Z M 6.078125 -37.996094 C 6.078125 -37.917969 6.078125 -37.835938 6 -37.917969 C 5.917969 -37.917969 5.757812 -37.996094 5.679688 -37.996094 L 5.28125 -38.476562 C 5.601562 -38.476562 5.519531 -38.878906 5.601562 -38.878906 C 5.757812 -38.796875 6 -38.71875 6 -38.476562 C 6.078125 -38.316406 5.917969 -38.078125 6.078125 -37.996094 Z M 6.160156 -43.675781 C 6 -43.835938 5.917969 -43.757812 5.839844 -43.675781 C 5.679688 -43.835938 5.519531 -43.835938 5.359375 -43.757812 C 5.28125 -43.675781 5.199219 -43.597656 5.121094 -43.675781 C 5.039062 -43.757812 5.199219 -43.835938 5.199219 -43.835938 C 5.28125 -44.15625 5.601562 -44.078125 5.679688 -44.238281 C 5.757812 -44.316406 5.917969 -44.238281 5.917969 -44.15625 C 6 -43.996094 6.160156 -43.917969 6.320312 -43.835938 C 6.398438 -43.757812 6.398438 -43.675781 6.398438 -43.597656 C 6.320312 -43.515625 6.238281 -43.597656 6.160156 -43.675781 Z M 6.800781 -12.71875 C 6.878906 -12.878906 6.71875 -12.960938 6.640625 -13.039062 C 6.640625 -13.121094 6.558594 -13.199219 6.640625 -13.277344 C 6.71875 -13.359375 6.800781 -13.277344 6.878906 -13.199219 C 6.960938 -13.199219 6.960938 -13.121094 7.039062 -13.039062 C 7.039062 -12.878906 7.121094 -12.878906 7.28125 -12.960938 C 7.359375 -13.039062 7.441406 -12.960938 7.441406 -12.960938 C 7.519531 -12.878906 7.597656 -12.800781 7.597656 -12.71875 C 7.597656 -12.640625 7.519531 -12.640625 7.441406 -12.640625 L 7.199219 -12.640625 C 7.121094 -12.640625 7.039062 -12.640625 6.960938 -12.558594 C 6.960938 -12.558594 7.121094 -12.320312 6.878906 -12.398438 C 6.71875 -12.480469 6.71875 -12.558594 6.800781 -12.71875 Z M 15.039062 -54.796875 C 15.277344 -55.035156 15.519531 -55.195312 15.839844 -55.195312 C 16 -55.195312 16.160156 -55.195312 16 -54.957031 L 15.757812 -54.636719 C 15.679688 -54.476562 15.519531 -54.316406 15.4375 -54.714844 C 15.359375 -54.875 15.117188 -54.714844 15.039062 -54.796875 Z M 9.917969 -11.277344 C 10 -11.277344 10.160156 -11.199219 10.320312 -11.199219 C 10.398438 -11.121094 10.398438 -10.960938 10.398438 -10.878906 C 10.398438 -10.71875 10.238281 -10.640625 10.160156 -10.640625 C 10 -10.558594 9.917969 -10.640625 9.839844 -10.800781 C 9.839844 -10.878906 9.839844 -10.960938 9.757812 -11.039062 C 9.679688 -11.039062 9.519531 -11.121094 9.597656 -11.199219 C 9.597656 -11.277344 9.757812 -11.359375 9.917969 -11.277344 Z M 39.039062 -28.796875 C 39.039062 -28.957031 39.039062 -29.117188 38.957031 -29.277344 L 38.71875 -29.679688 C 38.71875 -29.757812 38.796875 -29.917969 38.878906 -29.917969 C 39.117188 -29.917969 38.878906 -29.757812 38.957031 -29.757812 C 39.199219 -29.359375 39.117188 -28.878906 39.4375 -28.476562 C 39.4375 -28.476562 39.515625 -28.398438 39.4375 -28.398438 L 39.359375 -28.316406 C 39.117188 -28.398438 38.957031 -28.558594 39.039062 -28.796875 Z M 28.71875 -13.839844 C 28.398438 -13.917969 28.476562 -13.597656 28.398438 -13.519531 L 27.679688 -13.277344 C 27.597656 -13.277344 27.519531 -13.4375 27.519531 -13.519531 C 27.4375 -13.679688 27.597656 -13.757812 27.679688 -13.757812 C 27.679688 -13.839844 27.757812 -13.839844 27.757812 -13.757812 C 27.839844 -13.519531 27.839844 -13.597656 28 -13.597656 C 28.160156 -13.679688 28.316406 -13.917969 28.558594 -14 C 28.558594 -14 28.636719 -14 28.71875 -13.839844 Z M 5.199219 -12.160156 C 5.039062 -12.238281 5.039062 -12.320312 5.039062 -12.398438 L 5.441406 -13.121094 C 5.519531 -13.199219 5.601562 -13.359375 5.679688 -13.277344 C 5.757812 -13.121094 5.917969 -12.960938 5.757812 -12.800781 C 5.519531 -12.640625 5.199219 -12.558594 5.28125 -12.160156 Z M 8.960938 -12.480469 C 8.960938 -12.640625 8.960938 -12.71875 9.039062 -12.800781 C 9.199219 -12.800781 9.199219 -12.640625 9.28125 -12.640625 C 9.359375 -12.558594 9.359375 -12.480469 9.4375 -12.480469 C 9.679688 -12.320312 9.679688 -12.160156 9.4375 -12 C 9.359375 -11.917969 9.359375 -11.757812 9.28125 -11.839844 C 9.121094 -11.839844 9.199219 -12 9.199219 -12.078125 C 9.28125 -12.160156 9.199219 -12.238281 9.199219 -12.238281 C 8.878906 -12.160156 9.039062 -12.398438 8.960938 -12.480469 Z M 23.917969 -55.195312 C 23.917969 -55.117188 23.917969 -55.117188 23.839844 -55.117188 C 23.4375 -55.277344 23.117188 -55.515625 22.71875 -55.515625 C 22.636719 -55.515625 22.636719 -55.675781 22.71875 -55.675781 C 22.878906 -55.675781 23.039062 -55.917969 23.199219 -55.675781 C 23.277344 -55.597656 23.4375 -55.355469 23.597656 -55.675781 L 23.679688 -55.675781 Z M 3.757812 -10.640625 C 3.601562 -10.640625 3.441406 -10.640625 3.359375 -10.398438 C 3.359375 -10.320312 3.28125 -10.238281 3.199219 -10.320312 C 3.121094 -10.320312 3.121094 -10.480469 3.199219 -10.558594 L 3.519531 -10.800781 C 3.757812 -10.960938 4 -10.878906 4.160156 -11.121094 L 4.320312 -11.039062 C 4.398438 -10.960938 4.320312 -10.878906 4.320312 -10.878906 L 4.160156 -10.640625 Z M 3.917969 -12 C 3.917969 -12 3.839844 -12 3.757812 -12.078125 C 3.757812 -12.160156 3.679688 -12.238281 3.601562 -12.238281 C 3.359375 -12.398438 3.359375 -12.640625 3.28125 -12.800781 L 3.359375 -12.800781 C 3.601562 -12.71875 3.839844 -12.71875 3.917969 -12.398438 C 4 -12.320312 4.078125 -12.320312 4.078125 -12.160156 C 4.160156 -12.078125 4.078125 -12 3.917969 -12 Z M 15.039062 -54.796875 C 15.039062 -54.714844 15.039062 -54.636719 15.117188 -54.554688 C 15.359375 -54.398438 15.277344 -54.238281 15.117188 -53.996094 C 15.039062 -53.835938 14.960938 -53.835938 14.71875 -53.996094 C 14.558594 -54.15625 14.640625 -54.238281 14.800781 -54.316406 C 14.960938 -54.398438 14.960938 -54.476562 14.878906 -54.636719 C 14.71875 -54.875 14.960938 -54.714844 15.039062 -54.796875 Z M 21.597656 -24.476562 C 21.359375 -24.238281 21.277344 -24.398438 21.359375 -24.636719 C 21.359375 -24.636719 21.359375 -24.71875 21.4375 -24.71875 C 21.679688 -24.636719 21.917969 -24.558594 22.160156 -24.558594 C 22.160156 -24.476562 22.160156 -24.398438 22.078125 -24.398438 L 21.839844 -24.078125 C 21.757812 -24 21.917969 -23.839844 21.757812 -23.839844 C 21.597656 -23.839844 21.597656 -24.078125 21.679688 -24.238281 C 21.757812 -24.398438 21.679688 -24.398438 21.597656 -24.476562 Z M 12.238281 -10.558594 C 12.160156 -10.480469 12 -10.238281 11.839844 -10.320312 C 11.757812 -10.480469 11.839844 -10.71875 11.917969 -10.878906 L 12.160156 -11.121094 C 12.238281 -11.199219 12.480469 -11.199219 12.558594 -11.199219 C 12.640625 -11.039062 12.398438 -10.960938 12.320312 -10.878906 C 12.238281 -10.800781 11.917969 -10.71875 12.238281 -10.558594 Z M 19.117188 -25.597656 C 19.117188 -25.4375 19.117188 -25.277344 18.878906 -25.277344 C 18.71875 -25.277344 18.71875 -25.4375 18.640625 -25.597656 C 18.71875 -26 18.957031 -25.917969 19.277344 -25.839844 Z M 27.597656 -41.355469 C 27.597656 -41.199219 27.519531 -41.117188 27.359375 -41.199219 C 27.277344 -41.277344 27.117188 -41.355469 26.957031 -41.277344 C 26.878906 -41.277344 26.796875 -41.277344 26.796875 -41.355469 C 26.878906 -41.515625 27.039062 -41.675781 27.199219 -41.675781 C 27.359375 -41.597656 27.597656 -41.597656 27.597656 -41.355469 Z M 5.28125 -41.515625 C 5.359375 -41.597656 5.601562 -41.675781 5.441406 -41.757812 C 5.28125 -41.917969 5.28125 -42.078125 5.121094 -42.15625 C 5.039062 -42.238281 4.960938 -42.316406 4.878906 -42.238281 C 4.71875 -42.15625 4.878906 -42.078125 4.960938 -42.078125 C 4.960938 -41.996094 4.960938 -41.917969 5.039062 -41.917969 C 5.039062 -41.835938 4.71875 -41.835938 4.960938 -41.675781 C 5.039062 -41.597656 5.121094 -41.515625 5.28125 -41.515625 Z M 8.320312 -42.476562 C 8.558594 -42.078125 8.480469 -41.675781 8.320312 -41.355469 L 8.320312 -41.277344 C 8.078125 -41.277344 8 -41.355469 8.078125 -41.515625 C 8.398438 -41.757812 8.238281 -42.15625 8.320312 -42.476562 Z M 11.4375 -53.117188 C 11.359375 -53.117188 11.199219 -53.035156 11.121094 -53.117188 L 10.960938 -53.597656 C 10.960938 -53.597656 10.960938 -53.675781 11.039062 -53.675781 L 11.121094 -53.675781 C 11.199219 -53.515625 11.277344 -53.277344 11.597656 -53.4375 C 11.679688 -53.4375 11.757812 -53.277344 11.757812 -53.195312 C 11.679688 -52.957031 11.519531 -53.195312 11.4375 -53.117188 Z M 5.359375 -39.359375 C 5.359375 -39.199219 5.359375 -39.117188 5.28125 -39.039062 C 5.121094 -38.957031 5.121094 -39.199219 5.039062 -39.199219 L 4.558594 -39.515625 C 4.558594 -39.515625 4.480469 -39.515625 4.480469 -39.597656 C 4.480469 -39.597656 4.558594 -39.675781 4.640625 -39.675781 C 4.71875 -39.675781 4.800781 -39.675781 4.878906 -39.597656 C 4.960938 -39.515625 5.039062 -39.359375 5.121094 -39.4375 C 5.359375 -39.675781 5.359375 -39.4375 5.359375 -39.359375 Z M 27.679688 -12.71875 C 27.679688 -12.640625 27.519531 -12.558594 27.4375 -12.558594 C 27.199219 -12.71875 26.957031 -12.320312 26.71875 -12.640625 C 26.71875 -12.640625 26.71875 -12.800781 26.796875 -12.800781 C 26.878906 -12.878906 27.039062 -12.558594 27.117188 -12.878906 C 27.199219 -13.039062 27.4375 -12.800781 27.597656 -12.878906 C 27.597656 -12.878906 27.679688 -12.800781 27.679688 -12.71875 Z M 29.277344 -16.078125 C 29.199219 -16.078125 29.199219 -16.078125 29.199219 -16.160156 C 29.117188 -16.398438 29.039062 -16.71875 28.878906 -16.957031 L 28.878906 -17.039062 C 29.039062 -16.878906 29.359375 -17.039062 29.277344 -16.640625 C 29.277344 -16.558594 29.359375 -16.480469 29.4375 -16.398438 C 29.597656 -16.160156 29.359375 -16.160156 29.277344 -16.078125 Z M 6.078125 -49.675781 C 6.078125 -49.835938 6.078125 -49.917969 6.238281 -49.996094 C 6.238281 -50.078125 6.320312 -50.238281 6.398438 -50.15625 C 6.480469 -50.078125 6.640625 -49.996094 6.480469 -49.835938 C 6.398438 -49.757812 6.320312 -49.757812 6.398438 -49.597656 C 6.398438 -49.515625 6.398438 -49.355469 6.238281 -49.355469 C 6.078125 -49.4375 6.078125 -49.515625 6.078125 -49.675781 Z M 2.480469 -9.679688 L 2.480469 -9.757812 C 2.800781 -9.917969 2.878906 -10.160156 2.800781 -10.398438 C 2.800781 -10.480469 2.800781 -10.558594 2.878906 -10.558594 C 2.960938 -10.558594 2.960938 -10.480469 3.039062 -10.480469 C 3.039062 -10.320312 3.039062 -10.238281 3.121094 -10.160156 C 3.199219 -10 3.121094 -9.917969 2.960938 -9.839844 C 2.800781 -9.839844 2.71875 -9.757812 2.558594 -9.679688 Z M 9.199219 -42.476562 C 9.199219 -42.398438 9.199219 -42.316406 9.121094 -42.238281 C 9.039062 -42.238281 8.960938 -42.238281 8.878906 -42.316406 C 8.71875 -42.476562 8.71875 -42.71875 8.558594 -42.878906 C 8.558594 -42.878906 8.558594 -42.957031 8.640625 -42.957031 C 8.71875 -42.957031 9.199219 -42.558594 9.199219 -42.476562 Z M 13.519531 -11.121094 C 13.679688 -10.960938 13.597656 -10.398438 13.4375 -10.320312 L 13.359375 -10.320312 C 13.359375 -10.480469 13.277344 -10.640625 13.199219 -10.878906 C 13.199219 -10.960938 13.359375 -11.039062 13.4375 -11.121094 Z M 18.640625 -7.597656 C 18.640625 -7.757812 18.558594 -7.839844 18.480469 -7.917969 L 18.480469 -8 L 18.640625 -8 C 18.878906 -7.917969 18.71875 -7.519531 19.039062 -7.441406 C 18.878906 -7.359375 18.796875 -7.28125 18.640625 -7.28125 C 18.558594 -7.359375 18.480469 -7.359375 18.480469 -7.441406 C 18.398438 -7.519531 18.558594 -7.519531 18.558594 -7.519531 C 18.640625 -7.519531 18.640625 -7.597656 18.640625 -7.597656 Z M 16.480469 -31.757812 C 16.558594 -31.757812 16.640625 -31.597656 16.640625 -31.519531 C 16.640625 -31.359375 16.480469 -31.359375 16.480469 -31.199219 C 16.480469 -31.117188 16.480469 -30.957031 16.320312 -31.039062 C 16.238281 -31.039062 16.238281 -31.117188 16.238281 -31.277344 C 16.238281 -31.4375 16.398438 -31.597656 16.480469 -31.757812 Z M 27.519531 -42.636719 C 27.597656 -42.636719 27.757812 -42.796875 27.679688 -42.636719 C 27.679688 -42.476562 27.679688 -42.238281 27.4375 -42.15625 C 27.359375 -42.15625 27.277344 -42.238281 27.359375 -42.316406 C 27.4375 -42.316406 27.4375 -42.398438 27.359375 -42.476562 C 27.359375 -42.558594 27.117188 -42.636719 27.199219 -42.71875 C 27.277344 -42.796875 27.4375 -42.71875 27.519531 -42.636719 Z M 4.160156 -10.640625 C 4.398438 -10.558594 4.480469 -10.398438 4.238281 -10.160156 C 4.160156 -9.917969 4.078125 -9.839844 3.917969 -9.917969 C 3.839844 -10 3.839844 -10 3.917969 -10.160156 C 4 -10.238281 4.320312 -10.398438 4.160156 -10.640625 Z M 29.199219 -17.199219 C 29.199219 -17.519531 29.4375 -17.519531 29.597656 -17.519531 C 29.757812 -17.597656 29.757812 -17.4375 29.757812 -17.359375 C 29.757812 -16.957031 29.519531 -17.277344 29.359375 -17.199219 C 29.277344 -17.117188 29.199219 -17.117188 29.199219 -17.199219 Z M 24.398438 -24.078125 C 24.078125 -23.917969 24.078125 -24.476562 23.757812 -24.398438 L 23.839844 -24.476562 L 24.160156 -24.71875 C 24.238281 -24.71875 24.160156 -24.636719 24.160156 -24.558594 C 24.078125 -24.320312 24.320312 -24.320312 24.476562 -24.238281 C 24.476562 -24.160156 24.558594 -24.160156 24.558594 -24.078125 C 24.558594 -24 24.476562 -24.078125 24.398438 -24.078125 Z M 24.398438 -24.078125 "/></g></g></g><g fill="#ffffff" fill-opacity="1"><g transform="translate(75.002062, 106.124994)"><g><path d="M 6 -4.480469 C 6.078125 -4.320312 6.238281 -4.320312 6.320312 -4.480469 C 6.398438 -4.558594 6.398438 -4.640625 6.480469 -4.640625 C 6.558594 -4.558594 6.558594 -4.480469 6.480469 -4.398438 L 6.480469 -4.320312 C 6.398438 -4.078125 6.320312 -3.917969 6.640625 -4.078125 C 6.71875 -4.078125 6.878906 -4 6.878906 -3.917969 C 6.800781 -3.757812 6.960938 -3.757812 7.039062 -3.679688 C 7.519531 -3.199219 8.160156 -3.039062 8.71875 -2.71875 C 9.359375 -2.320312 10 -2 10.640625 -1.679688 L 11.917969 -1.039062 C 13.199219 -0.480469 14.398438 0 15.679688 0.320312 C 17.039062 0.640625 18.398438 0.878906 19.757812 1.121094 C 20.957031 1.28125 22.160156 1.28125 23.277344 1.441406 L 24.160156 1.441406 C 25.359375 1.28125 26.558594 1.199219 27.679688 1.121094 C 28.398438 1.039062 29.117188 0.960938 29.839844 0.800781 C 31.679688 0.320312 33.4375 -0.320312 35.199219 -1.039062 C 35.917969 -1.359375 36.71875 -1.601562 37.359375 -2 C 38.476562 -2.640625 39.4375 -3.359375 40.316406 -4.160156 C 41.199219 -4.800781 41.917969 -5.519531 42.558594 -6.398438 L 44.398438 -9.28125 C 44.71875 -9.917969 45.039062 -10.558594 45.117188 -11.359375 C 45.117188 -11.597656 45.117188 -11.839844 45.195312 -12.078125 C 45.355469 -12.480469 45.4375 -12.960938 45.515625 -13.359375 C 45.757812 -14.960938 45.757812 -16.640625 45.515625 -18.238281 C 45.277344 -19.839844 44.796875 -21.4375 43.996094 -22.796875 L 42.71875 -25.039062 C 42.398438 -25.679688 41.996094 -26.316406 41.515625 -26.878906 C 41.199219 -27.277344 40.957031 -27.757812 40.71875 -28.238281 C 40.398438 -28.878906 40.398438 -29.519531 40.71875 -30.15625 C 41.117188 -31.039062 41.675781 -31.917969 42.238281 -32.796875 C 43.117188 -34.15625 43.835938 -35.597656 44.316406 -37.117188 C 44.558594 -38.15625 44.71875 -39.199219 44.796875 -40.238281 C 44.957031 -41.355469 44.796875 -42.558594 44.71875 -43.675781 C 44.71875 -43.917969 44.636719 -44.15625 44.558594 -44.398438 L 44.316406 -45.039062 C 44.238281 -45.277344 44.238281 -45.597656 44.078125 -45.675781 C 43.757812 -45.835938 43.996094 -46.078125 43.835938 -46.238281 L 43.355469 -47.117188 C 42.71875 -48.238281 42.078125 -49.355469 41.199219 -50.238281 C 40.398438 -51.035156 39.675781 -51.835938 38.796875 -52.558594 C 37.277344 -53.597656 35.679688 -54.554688 33.996094 -55.277344 L 32.558594 -55.675781 C 31.277344 -56.078125 29.917969 -56.476562 28.558594 -56.714844 C 27.199219 -56.957031 25.839844 -57.117188 24.398438 -57.195312 C 23.917969 -57.277344 23.359375 -57.277344 22.796875 -57.277344 L 19.757812 -57.117188 L 17.4375 -56.875 C 16.71875 -56.796875 16.078125 -56.554688 15.359375 -56.394531 C 13.917969 -56.078125 12.480469 -55.675781 11.121094 -55.117188 C 10.878906 -55.035156 10.640625 -54.957031 10.558594 -54.714844 C 10.480469 -54.636719 10.398438 -54.636719 10.320312 -54.636719 C 10.078125 -54.714844 9.917969 -54.554688 9.679688 -54.476562 C 8.480469 -53.917969 7.359375 -53.195312 6.238281 -52.476562 C 5.039062 -51.675781 4.238281 -50.476562 3.757812 -49.117188 C 3.441406 -48.316406 3.441406 -47.4375 3.519531 -46.636719 L 3.679688 -45.195312 C 3.679688 -44.796875 3.757812 -44.398438 3.679688 -43.917969 C 3.679688 -43.277344 3.679688 -42.558594 3.757812 -41.917969 C 3.839844 -40.71875 3.839844 -39.597656 4 -38.398438 C 4 -37.835938 4.078125 -37.277344 4.160156 -36.796875 C 4.320312 -36.078125 4.71875 -35.757812 5.359375 -35.597656 C 5.519531 -35.597656 5.601562 -35.597656 5.679688 -35.519531 C 6.078125 -35.359375 6.160156 -35.359375 6.320312 -35.679688 C 6.480469 -35.835938 6.640625 -36.078125 6.640625 -36.238281 C 6.640625 -36.476562 6.878906 -36.476562 6.960938 -36.636719 C 7.28125 -37.519531 7.839844 -38.238281 8.238281 -39.039062 C 8.71875 -39.835938 9.4375 -40.476562 10.078125 -41.277344 C 10.320312 -41.4375 10.558594 -41.597656 10.640625 -41.917969 C 11.4375 -42.15625 11.917969 -42.796875 12.480469 -43.277344 C 13.121094 -43.835938 13.757812 -44.558594 14.640625 -45.039062 C 16.558594 -46.15625 18.558594 -46.796875 20.796875 -46.796875 C 22.71875 -46.71875 24.160156 -45.835938 25.117188 -44.316406 C 25.679688 -43.515625 25.917969 -42.636719 26.078125 -41.675781 C 26.078125 -41.515625 26.316406 -41.355469 26.238281 -41.199219 C 26.160156 -40.796875 26.238281 -40.398438 26.160156 -39.996094 C 26.160156 -39.117188 26 -38.316406 25.519531 -37.597656 C 25.117188 -36.878906 24.476562 -36.316406 23.839844 -35.835938 C 22.71875 -35.039062 21.519531 -34.476562 20.238281 -34.15625 C 19.359375 -33.917969 18.480469 -33.835938 17.597656 -33.597656 C 17.117188 -33.519531 16.71875 -33.519531 16.320312 -33.519531 L 15.4375 -33.519531 C 14.960938 -33.519531 14.800781 -33.359375 14.640625 -32.878906 C 14.480469 -32.238281 14.558594 -31.519531 14.558594 -30.878906 C 14.558594 -30.078125 14.640625 -29.199219 14.640625 -28.398438 C 14.640625 -27.039062 14.640625 -25.679688 14.71875 -24.398438 C 14.800781 -23.757812 14.960938 -23.679688 15.597656 -23.679688 C 16.480469 -23.679688 17.4375 -23.679688 18.398438 -23.359375 L 19.597656 -23.117188 C 20.558594 -23.117188 21.519531 -22.878906 22.320312 -22.480469 C 23.757812 -21.917969 25.039062 -21.117188 26 -19.839844 C 27.117188 -18.160156 27.4375 -16.398438 26.957031 -14.480469 C 26.878906 -14.320312 26.796875 -14.238281 26.878906 -14.160156 C 26.957031 -14 26.957031 -13.917969 26.796875 -13.839844 C 26.636719 -13.839844 26.636719 -13.679688 26.636719 -13.597656 C 26.238281 -12.480469 25.679688 -11.519531 24.796875 -10.640625 C 23.757812 -9.757812 22.636719 -9.359375 21.359375 -9.28125 L 19.679688 -9.28125 C 19.277344 -9.28125 18.957031 -9.28125 18.558594 -9.359375 C 17.679688 -9.519531 16.878906 -9.757812 16.160156 -10.160156 C 16 -10.160156 15.757812 -10.320312 15.597656 -10.160156 C 15.597656 -10.078125 15.4375 -10.160156 15.4375 -10.238281 C 15.597656 -10.558594 15.277344 -10.558594 15.199219 -10.480469 C 15.039062 -10.480469 15.039062 -10.480469 15.039062 -10.558594 C 14.960938 -10.800781 14.800781 -10.878906 14.640625 -10.960938 L 13.4375 -11.679688 L 11.757812 -12.878906 C 10.640625 -13.757812 9.597656 -14.71875 8.398438 -15.519531 C 7.839844 -15.839844 7.28125 -15.917969 6.71875 -15.679688 C 6.160156 -15.4375 5.679688 -15.039062 5.121094 -14.71875 C 4.640625 -14.480469 4.160156 -14.078125 3.679688 -13.679688 C 3.519531 -13.597656 3.28125 -13.519531 3.441406 -13.277344 C 3.359375 -13.199219 3.121094 -13.359375 2.960938 -13.121094 C 2.320312 -12.558594 1.679688 -11.839844 1.441406 -11.039062 C 1.199219 -10.238281 1.121094 -9.519531 1.519531 -8.800781 C 2.078125 -7.839844 2.71875 -6.960938 3.601562 -6.238281 C 3.757812 -6.160156 3.839844 -5.679688 4.160156 -6.078125 C 4.160156 -6.160156 4.238281 -6.078125 4.238281 -6.078125 C 4.480469 -6 4.640625 -5.839844 4.640625 -5.601562 C 4.640625 -5.441406 4.558594 -5.441406 4.640625 -5.28125 C 5.039062 -4.960938 5.441406 -4.558594 6 -4.480469 Z M 8.320312 -42.476562 C 8.558594 -42.316406 8.71875 -42.238281 8.71875 -41.917969 L 8.71875 -41.757812 C 8.878906 -41.4375 8.800781 -41.355469 8.398438 -41.355469 L 8.320312 -41.355469 L 8.320312 -41.277344 C 8.320312 -40.796875 8.160156 -40.636719 7.757812 -40.476562 C 7.597656 -40.476562 7.597656 -40.398438 7.519531 -40.316406 C 7.519531 -40.15625 7.597656 -40.238281 7.757812 -40.15625 C 7.917969 -40.15625 8 -39.996094 8 -39.675781 C 8 -39.515625 8.078125 -39.359375 7.839844 -39.277344 C 7.757812 -39.199219 7.679688 -39.117188 7.597656 -39.199219 C 7.519531 -39.277344 7.597656 -39.359375 7.679688 -39.4375 C 7.757812 -39.675781 7.597656 -39.835938 7.441406 -39.996094 C 7.359375 -39.996094 7.28125 -39.996094 7.28125 -39.917969 C 7.28125 -39.757812 7.199219 -39.597656 7.039062 -39.515625 C 6.960938 -39.515625 7.039062 -39.4375 7.121094 -39.4375 C 7.359375 -39.359375 7.28125 -39.199219 7.199219 -39.039062 C 7.121094 -38.957031 7.121094 -38.878906 7.199219 -38.71875 C 7.359375 -38.476562 7.28125 -38.476562 7.039062 -38.476562 C 6.878906 -38.558594 6.800781 -38.476562 6.800781 -38.316406 C 6.800781 -38.15625 6.800781 -37.996094 6.640625 -38.078125 C 6.480469 -38.078125 6.640625 -38.238281 6.640625 -38.316406 L 6.640625 -39.039062 C 6.71875 -39.277344 6.71875 -39.4375 6.480469 -39.199219 C 6.398438 -39.039062 6.320312 -39.199219 6.320312 -39.277344 C 6.160156 -39.515625 5.917969 -39.515625 5.679688 -39.515625 C 5.679688 -39.515625 5.601562 -39.4375 5.519531 -39.515625 C 5.519531 -39.597656 5.601562 -39.597656 5.679688 -39.675781 C 5.679688 -39.675781 5.839844 -39.675781 5.757812 -39.835938 C 5.757812 -39.917969 5.601562 -39.917969 5.519531 -39.917969 C 5.441406 -39.917969 5.359375 -39.757812 5.28125 -39.757812 L 5.121094 -39.757812 L 5.121094 -39.835938 C 5.359375 -40.078125 4.800781 -40.078125 4.960938 -40.238281 C 5.359375 -40.636719 5.039062 -40.957031 4.800781 -41.117188 C 4.558594 -41.355469 4.558594 -41.675781 4.480469 -41.996094 L 4.480469 -42.15625 C 4.398438 -42.398438 4.398438 -42.476562 4.640625 -42.398438 C 4.71875 -42.398438 4.800781 -42.476562 4.878906 -42.476562 C 5.039062 -42.476562 5.121094 -42.558594 5.039062 -42.71875 C 4.878906 -42.957031 4.878906 -43.199219 5.199219 -43.199219 C 5.28125 -43.199219 5.441406 -43.355469 5.441406 -43.355469 C 5.441406 -43.597656 5.601562 -43.597656 5.839844 -43.597656 C 5.917969 -43.597656 6 -43.515625 6.078125 -43.515625 C 6.480469 -43.199219 6.800781 -43.355469 6.800781 -43.835938 C 6.878906 -44.398438 6.878906 -44.957031 6.800781 -45.515625 C 6.71875 -46.316406 6.640625 -47.117188 6.878906 -47.835938 C 7.039062 -48.71875 7.519531 -49.355469 8.238281 -49.917969 C 9.28125 -50.636719 10.398438 -51.277344 11.679688 -51.757812 C 13.277344 -52.316406 14.800781 -52.957031 16.480469 -53.4375 C 17.199219 -53.675781 17.917969 -53.835938 18.71875 -53.835938 C 19.519531 -53.835938 20.320312 -53.757812 21.039062 -53.996094 C 22.078125 -54.316406 23.039062 -54.15625 24.078125 -54.15625 C 25.519531 -54.15625 27.039062 -53.835938 28.476562 -53.597656 C 29.757812 -53.355469 30.957031 -53.035156 32.078125 -52.636719 C 33.597656 -52.078125 35.039062 -51.355469 36.316406 -50.398438 C 36.398438 -50.316406 36.558594 -50.078125 36.636719 -50.476562 C 36.636719 -50.558594 36.71875 -50.558594 36.71875 -50.398438 C 36.71875 -50.078125 36.957031 -49.917969 37.199219 -49.757812 C 37.996094 -49.117188 38.878906 -48.398438 39.4375 -47.4375 C 39.835938 -46.878906 40.238281 -46.238281 40.558594 -45.597656 C 40.957031 -44.796875 41.199219 -43.917969 41.4375 -43.039062 C 41.597656 -42.71875 41.515625 -42.316406 41.515625 -41.996094 C 41.597656 -41.355469 41.515625 -40.71875 41.597656 -40.078125 C 41.675781 -38.476562 41.117188 -37.117188 40.398438 -35.835938 C 40.078125 -35.199219 39.597656 -34.71875 39.117188 -34.238281 C 38.078125 -33.199219 37.117188 -32.078125 36.476562 -30.796875 C 35.835938 -29.679688 35.996094 -28.558594 36.558594 -27.519531 C 37.117188 -26.476562 37.835938 -25.597656 38.558594 -24.71875 L 40.316406 -22.636719 C 40.476562 -22.480469 40.636719 -22.320312 40.71875 -22.078125 C 41.039062 -21.359375 41.355469 -20.640625 41.757812 -20 C 42.15625 -19.359375 42.316406 -18.640625 42.398438 -17.917969 L 42.558594 -17.277344 C 42.558594 -17.199219 42.558594 -17.117188 42.636719 -17.039062 C 42.71875 -17.039062 42.796875 -17.117188 42.796875 -17.199219 C 42.796875 -17.277344 42.796875 -17.4375 42.878906 -17.4375 C 43.039062 -17.359375 42.957031 -17.199219 42.957031 -17.117188 C 42.957031 -17.039062 42.957031 -16.957031 42.878906 -16.957031 C 42.476562 -16.800781 42.636719 -16.480469 42.636719 -16.238281 C 42.636719 -14.238281 42.316406 -12.398438 41.4375 -10.640625 C 41.117188 -10 40.796875 -9.28125 40.316406 -8.800781 L 39.359375 -7.757812 C 38.476562 -6.71875 37.4375 -5.839844 36.316406 -5.039062 C 35.4375 -4.480469 34.476562 -4 33.4375 -3.679688 L 31.277344 -2.878906 C 30.476562 -2.480469 29.597656 -2.398438 28.71875 -2.238281 C 27.597656 -1.917969 26.398438 -1.917969 25.199219 -1.761719 C 23.519531 -1.679688 21.839844 -1.839844 20.160156 -1.917969 C 19.917969 -1.917969 19.679688 -2.078125 19.4375 -2 C 19.277344 -1.917969 19.277344 -2.160156 19.117188 -2.238281 C 18.398438 -2.398438 17.757812 -2.558594 16.957031 -2.558594 C 16.800781 -2.558594 16.800781 -2.800781 16.640625 -2.800781 C 16 -2.878906 15.4375 -3.121094 14.878906 -3.28125 C 13.679688 -3.679688 12.480469 -4.238281 11.277344 -4.800781 C 10.640625 -5.121094 9.839844 -5.359375 9.199219 -5.757812 C 9.121094 -5.839844 8.960938 -5.757812 9.039062 -5.679688 C 9.28125 -5.519531 8.960938 -5.359375 9.039062 -5.199219 L 9.039062 -5.121094 C 8.960938 -5.039062 8.878906 -4.960938 8.800781 -5.121094 C 8.558594 -5.359375 8.480469 -5.359375 8.398438 -5.039062 C 8.398438 -4.960938 8.320312 -4.960938 8.320312 -4.960938 C 8.238281 -5.039062 8.160156 -5.121094 8.160156 -5.28125 C 8.160156 -5.359375 8.160156 -5.441406 8.238281 -5.441406 C 8.320312 -5.441406 8.480469 -5.519531 8.480469 -5.441406 C 8.71875 -5.359375 8.800781 -5.519531 8.878906 -5.679688 C 8.960938 -5.917969 8.800781 -5.917969 8.640625 -6 C 7.839844 -6.640625 6.960938 -7.121094 6.238281 -7.839844 C 6 -8 5.757812 -8.160156 5.679688 -8.480469 C 5.601562 -8.640625 5.441406 -8.640625 5.359375 -8.480469 L 5.199219 -8.480469 C 5.121094 -8.558594 5.28125 -8.558594 5.28125 -8.640625 C 5.359375 -8.71875 5.359375 -8.878906 5.359375 -9.039062 C 4.800781 -10.078125 5.199219 -10.71875 5.917969 -11.4375 C 6.160156 -11.597656 6.480469 -11.679688 6.640625 -12 C 6.71875 -12.078125 6.960938 -12.078125 7.121094 -12.160156 C 7.28125 -12.160156 7.519531 -11.917969 7.679688 -12.238281 C 7.757812 -12.078125 7.917969 -12 7.917969 -11.839844 C 8 -11.519531 8.558594 -11.199219 8.878906 -11.199219 C 8.960938 -11.199219 9.121094 -11.199219 9.039062 -11.039062 C 8.878906 -10.878906 9.121094 -10.800781 9.199219 -10.71875 C 9.757812 -10.398438 10.160156 -10 10.800781 -9.839844 C 11.039062 -9.757812 11.121094 -9.519531 11.359375 -9.359375 C 11.679688 -9.199219 11.679688 -9.199219 11.839844 -9.519531 C 11.839844 -9.597656 11.917969 -9.597656 11.917969 -9.519531 C 12 -9.4375 12.320312 -9.519531 12.238281 -9.28125 C 12.238281 -9.199219 12.320312 -9.199219 12.398438 -9.199219 C 12.398438 -9.121094 12.558594 -9.199219 12.558594 -9.121094 C 12.558594 -9.039062 12.398438 -9.039062 12.398438 -9.039062 C 12.320312 -9.039062 12.320312 -8.960938 12.320312 -8.960938 C 12.238281 -8.878906 12.238281 -8.800781 12.320312 -8.71875 C 12.558594 -8.71875 12.640625 -8.320312 12.960938 -8.398438 C 13.039062 -8.398438 13.121094 -8.480469 13.121094 -8.558594 L 13.121094 -8.960938 C 13.199219 -9.039062 13.277344 -9.121094 13.4375 -9.121094 C 13.757812 -9.28125 13.839844 -9.28125 14 -8.960938 C 14.078125 -8.71875 14.078125 -8.800781 14.238281 -8.878906 C 14.480469 -9.039062 14.558594 -9.199219 14.320312 -9.4375 C 14.238281 -9.597656 14.238281 -9.597656 14.320312 -9.679688 C 14.398438 -9.839844 14.480469 -9.839844 14.558594 -9.757812 C 14.640625 -9.679688 14.640625 -9.597656 14.71875 -9.679688 C 14.800781 -9.679688 14.800781 -9.839844 14.800781 -9.917969 C 14.800781 -9.917969 14.71875 -10 14.71875 -10.078125 C 14.71875 -10.160156 14.640625 -10.320312 14.800781 -10.320312 C 14.878906 -10.398438 14.878906 -10.238281 14.960938 -10.160156 C 14.960938 -9.917969 15.277344 -9.679688 15.199219 -9.359375 C 15.117188 -9.199219 15.359375 -9.121094 15.597656 -9.28125 C 15.679688 -9.359375 15.839844 -9.519531 16 -9.28125 C 16.078125 -9.199219 16.078125 -9.121094 16 -9.039062 C 16 -8.960938 15.839844 -8.960938 15.917969 -8.878906 C 16 -8.800781 16.078125 -8.800781 16.160156 -8.878906 C 16.238281 -8.960938 16.398438 -9.039062 16.480469 -8.878906 C 16.558594 -8.640625 16.71875 -8.800781 16.800781 -8.878906 C 16.957031 -9.039062 17.039062 -9.121094 17.039062 -8.800781 C 16.957031 -8.640625 17.199219 -8.640625 17.117188 -8.398438 C 16.957031 -8.480469 16.878906 -8.398438 16.71875 -8.320312 C 16.640625 -8.320312 16.558594 -8.320312 16.398438 -8.398438 C 16.320312 -8.398438 16.238281 -8.320312 16.238281 -8.320312 C 16.558594 -8 16 -7.839844 16.078125 -7.597656 C 16.160156 -7.519531 16.078125 -7.441406 16 -7.441406 C 15.917969 -7.441406 15.917969 -7.519531 15.917969 -7.597656 C 15.917969 -7.839844 15.839844 -8.160156 16 -8.398438 C 16 -8.480469 16 -8.640625 15.917969 -8.640625 C 15.839844 -8.640625 15.679688 -8.640625 15.679688 -8.558594 C 15.679688 -8.320312 15.519531 -8.320312 15.4375 -8.238281 C 15.277344 -8.160156 15.199219 -8.078125 15.199219 -7.917969 C 15.199219 -7.757812 15.199219 -7.679688 15.039062 -7.597656 C 14.960938 -7.597656 14.800781 -7.597656 14.800781 -7.519531 C 14.800781 -7.359375 14.878906 -7.359375 14.960938 -7.28125 C 15.597656 -7.039062 16.238281 -6.878906 16.800781 -6.640625 C 17.039062 -6.558594 17.117188 -6.878906 17.277344 -6.71875 C 17.359375 -6.71875 17.199219 -6.558594 17.4375 -6.480469 C 18.320312 -6.398438 19.199219 -6.160156 20.160156 -6.320312 C 20.640625 -6.320312 21.117188 -6.238281 21.597656 -6.238281 C 23.519531 -6.398438 25.277344 -6.960938 26.71875 -8.160156 C 27.519531 -8.800781 28.316406 -9.519531 28.878906 -10.480469 C 28.957031 -10.640625 29.039062 -10.800781 28.71875 -10.71875 C 28.636719 -10.71875 28.636719 -10.71875 28.558594 -10.800781 C 28.558594 -10.800781 28.636719 -10.800781 28.636719 -10.878906 C 29.199219 -11.121094 29.359375 -11.679688 29.597656 -12.238281 C 30.238281 -14.160156 30.398438 -16.160156 30 -18.238281 C 29.679688 -19.757812 28.957031 -21.117188 27.839844 -22.398438 C 26.71875 -23.597656 25.359375 -24.636719 23.917969 -25.519531 C 23.199219 -26 22.398438 -26.398438 21.597656 -26.71875 C 20.640625 -27.039062 19.679688 -27.4375 18.71875 -27.597656 L 18.558594 -27.597656 C 17.839844 -27.839844 17.679688 -28 17.679688 -28.796875 C 17.757812 -29.277344 17.839844 -29.4375 18.320312 -29.519531 C 19.199219 -29.757812 20.078125 -30 20.957031 -30.316406 C 22.160156 -30.878906 23.277344 -31.519531 24.398438 -32.238281 C 24.878906 -32.558594 25.4375 -32.878906 25.917969 -33.277344 C 26.636719 -34.078125 27.519531 -34.796875 28.078125 -35.757812 C 28.878906 -37.117188 29.277344 -38.558594 29.277344 -40.15625 C 29.277344 -41.515625 29.039062 -42.878906 28.558594 -44.238281 C 28.476562 -44.398438 28.476562 -44.636719 28.316406 -44.71875 C 28.160156 -44.878906 28.160156 -45.039062 28.078125 -45.195312 C 27.839844 -45.757812 27.519531 -46.238281 27.117188 -46.636719 C 26.957031 -46.796875 26.957031 -47.035156 26.796875 -47.195312 C 26.316406 -47.757812 25.757812 -48.238281 25.039062 -48.636719 C 24.238281 -49.035156 23.4375 -49.355469 22.558594 -49.597656 C 21.519531 -49.917969 20.480469 -49.917969 19.4375 -49.835938 C 16.558594 -49.515625 14.078125 -48.316406 11.757812 -46.71875 C 11.679688 -46.71875 11.519531 -46.71875 11.597656 -46.558594 C 11.597656 -46.476562 11.679688 -46.398438 11.519531 -46.476562 C 11.121094 -46.636719 10.800781 -46.316406 10.558594 -46.078125 C 9.519531 -45.355469 8.640625 -44.558594 7.679688 -43.835938 C 7.519531 -43.675781 7.199219 -43.675781 7.28125 -43.355469 C 7.28125 -43.277344 7.199219 -43.277344 7.121094 -43.355469 C 7.039062 -43.355469 6.960938 -43.355469 6.960938 -43.277344 C 6.960938 -43.277344 6.960938 -43.199219 7.039062 -43.199219 C 7.359375 -42.878906 7.597656 -42.796875 8 -43.117188 C 8.078125 -43.199219 8.160156 -43.277344 8.238281 -43.199219 C 8.398438 -43.039062 8.238281 -42.957031 8.238281 -42.878906 C 8.160156 -42.71875 7.917969 -42.636719 7.757812 -42.476562 C 7.679688 -42.476562 7.597656 -42.398438 7.679688 -42.316406 C 7.679688 -42.15625 7.839844 -42.238281 7.839844 -42.316406 C 8 -42.316406 8.160156 -42.316406 8.320312 -42.476562 Z M 9.121094 -4.800781 C 9.121094 -4.960938 9.039062 -5.039062 9.039062 -5.121094 C 9.359375 -5.039062 9.4375 -4.800781 9.679688 -4.640625 C 9.839844 -4.480469 9.757812 -4.320312 9.597656 -4.160156 C 9.917969 -4.398438 10.160156 -4.160156 10.398438 -4 C 10.480469 -3.917969 10.320312 -3.839844 10.238281 -3.839844 C 9.917969 -3.757812 9.917969 -3.679688 10 -3.359375 C 10.078125 -3.28125 10.078125 -3.199219 10 -3.199219 C 10 -3.121094 9.917969 -3.121094 9.917969 -3.121094 C 9.839844 -3.199219 9.359375 -3.757812 9.359375 -3.839844 C 9.359375 -3.917969 9.4375 -3.917969 9.4375 -4 C 9.121094 -3.757812 9.039062 -3.757812 8.71875 -4 C 8.558594 -4.160156 8.480469 -4.238281 8.238281 -4.160156 C 8.078125 -4.160156 8 -4.320312 7.917969 -4.398438 C 7.839844 -4.558594 7.917969 -4.640625 7.917969 -4.71875 C 8 -4.800781 8.160156 -4.878906 8.160156 -4.71875 C 8.320312 -4.320312 8.480469 -4.558594 8.640625 -4.640625 C 8.800781 -4.800781 8.800781 -4.800781 8.878906 -4.558594 C 8.878906 -4.480469 8.878906 -4.480469 8.960938 -4.480469 C 9.121094 -4.558594 9.199219 -4.640625 9.121094 -4.800781 Z M 6 -4.800781 C 6 -4.960938 5.679688 -5.359375 6.238281 -5.121094 C 6.320312 -5.121094 6.640625 -5.359375 6.640625 -5.519531 C 6.558594 -5.839844 7.039062 -5.679688 6.960938 -5.917969 C 7.199219 -5.917969 7.28125 -5.839844 7.199219 -5.679688 C 7.199219 -5.519531 7.199219 -5.519531 7.359375 -5.519531 C 7.441406 -5.519531 7.519531 -5.757812 7.597656 -5.519531 C 7.597656 -5.359375 7.757812 -5.199219 7.597656 -5.039062 C 7.519531 -5.039062 7.441406 -4.960938 7.441406 -4.878906 C 7.121094 -4.878906 7.121094 -4.800781 7.28125 -4.558594 C 7.28125 -4.480469 7.28125 -4.398438 7.199219 -4.398438 C 7.039062 -4.320312 7.039062 -4.398438 7.039062 -4.480469 L 6.71875 -4.71875 C 6.640625 -4.800781 6.558594 -4.878906 6.640625 -5.039062 C 6.71875 -5.039062 6.71875 -5.121094 6.640625 -5.199219 C 6.558594 -5.199219 6.558594 -5.121094 6.480469 -5.039062 C 6.320312 -4.878906 6.238281 -4.640625 6 -4.480469 Z M 18.480469 -25.199219 C 18.480469 -25.277344 18.238281 -25.4375 18.480469 -25.519531 L 18.480469 -25.597656 C 18.238281 -25.597656 18 -25.597656 18.078125 -25.917969 C 18.078125 -26.160156 18.398438 -26.316406 18.640625 -26.316406 C 18.796875 -26.238281 18.957031 -26.078125 19.199219 -26.238281 C 19.199219 -26.316406 19.277344 -26.160156 19.277344 -26.160156 L 19.277344 -25.839844 C 19.359375 -25.839844 19.519531 -26 19.4375 -25.679688 C 19.359375 -25.277344 19.117188 -25.117188 18.71875 -25.117188 C 18.558594 -25.117188 18.480469 -25.039062 18.480469 -25.199219 Z M 28.078125 -14.320312 C 28.078125 -14.160156 28.160156 -14 28 -14 C 27.839844 -14 27.757812 -14.078125 27.757812 -14.160156 C 27.679688 -14.398438 27.597656 -14.558594 27.359375 -14.398438 C 27.277344 -14.398438 27.117188 -14.480469 27.117188 -14.558594 C 27.117188 -14.71875 27.117188 -14.878906 27.359375 -14.878906 C 27.597656 -14.878906 27.757812 -14.878906 27.757812 -15.277344 C 27.757812 -15.4375 27.917969 -15.359375 28.078125 -15.359375 C 28.078125 -15.277344 28.160156 -15.277344 28.078125 -15.117188 C 28.078125 -15.039062 27.839844 -14.960938 28 -14.878906 C 28.160156 -14.800781 28.476562 -14.800781 28.558594 -15.039062 C 28.636719 -15.117188 28.636719 -15.199219 28.636719 -15.359375 C 28.71875 -15.4375 28.71875 -15.519531 28.878906 -15.519531 C 28.957031 -15.519531 29.117188 -15.597656 29.199219 -15.519531 C 29.199219 -15.4375 29.199219 -15.277344 29.117188 -15.117188 C 29.039062 -15.039062 28.957031 -15.117188 28.878906 -15.199219 C 28.71875 -15.277344 28.71875 -15.117188 28.71875 -15.039062 C 28.636719 -14.71875 28.636719 -14.398438 28.160156 -14.558594 C 28 -14.558594 28.078125 -14.398438 28.078125 -14.320312 Z M 9.597656 -11.597656 C 9.597656 -11.597656 9.519531 -11.679688 9.597656 -11.757812 C 9.597656 -11.839844 9.679688 -11.917969 9.757812 -12 C 9.839844 -12.160156 10 -12.238281 9.917969 -12.480469 C 9.839844 -12.558594 9.839844 -12.640625 9.917969 -12.640625 C 10.078125 -12.71875 10.160156 -12.640625 10.320312 -12.558594 C 10.398438 -12.480469 10.320312 -12.398438 10.238281 -12.320312 C 10.078125 -12.320312 10.078125 -12.160156 10.160156 -12.078125 C 10.238281 -12 10.398438 -12.078125 10.398438 -12.160156 C 10.480469 -12.398438 10.640625 -12.398438 10.800781 -12.238281 C 11.039062 -12.160156 11.277344 -12.320312 11.4375 -12.320312 C 11.679688 -12.398438 11.917969 -12.480469 11.839844 -12.078125 C 11.839844 -11.917969 12 -11.839844 12 -11.679688 C 12.078125 -11.597656 12 -11.519531 11.917969 -11.519531 C 11.839844 -11.4375 11.757812 -11.519531 11.757812 -11.597656 C 11.757812 -11.917969 11.679688 -12 11.4375 -11.839844 L 11.121094 -11.839844 C 10.800781 -12.078125 10.480469 -11.839844 10.078125 -11.839844 C 9.917969 -11.839844 9.839844 -11.839844 9.757812 -11.679688 C 9.757812 -11.679688 9.757812 -11.597656 9.597656 -11.597656 Z M 13.679688 -9.519531 C 13.359375 -9.4375 13.199219 -9.28125 13.039062 -9.039062 C 12.878906 -9.121094 12.800781 -9.359375 12.558594 -9.519531 C 12.398438 -9.597656 12.71875 -10 12.878906 -10.078125 C 13.121094 -10.078125 13.359375 -10.078125 13.519531 -10.160156 C 13.757812 -10.238281 13.757812 -10 13.839844 -9.917969 C 13.917969 -9.757812 14 -9.757812 14 -9.597656 C 13.917969 -9.4375 13.757812 -9.519531 13.679688 -9.519531 Z M 13.277344 -8.71875 L 13.359375 -8.640625 C 13.519531 -8.640625 13.597656 -8.558594 13.679688 -8.398438 C 13.679688 -8.320312 13.839844 -8.320312 13.679688 -8.238281 C 13.597656 -8.238281 13.359375 -8.238281 13.4375 -8.078125 C 13.4375 -7.917969 13.597656 -7.839844 13.679688 -7.839844 L 14 -7.679688 C 14.398438 -7.519531 14.558594 -7.679688 14.71875 -8.078125 L 14.71875 -8.238281 C 14.640625 -8.320312 14.558594 -8.238281 14.558594 -8.160156 C 14.398438 -8.078125 14.398438 -8.078125 14.320312 -8.238281 C 14.320312 -8.320312 14.320312 -8.320312 14.238281 -8.320312 C 14 -8.320312 13.839844 -8.480469 13.757812 -8.640625 C 13.679688 -8.71875 13.597656 -8.878906 13.4375 -8.878906 Z M 2.878906 -8.398438 C 3.039062 -8.398438 3.039062 -8.078125 3.199219 -8.320312 C 3.199219 -8.398438 3.039062 -8.558594 3.039062 -8.640625 C 3.039062 -8.800781 3.28125 -8.878906 3.359375 -8.960938 C 3.441406 -9.039062 3.679688 -8.960938 3.757812 -8.800781 C 3.839844 -8.71875 3.679688 -8.71875 3.601562 -8.640625 C 3.519531 -8.480469 3.199219 -8.398438 3.441406 -8.078125 C 3.519531 -8.078125 3.441406 -8 3.441406 -8 L 3.199219 -7.839844 C 3.199219 -7.679688 3.121094 -7.441406 2.960938 -7.597656 C 2.800781 -7.597656 2.960938 -7.757812 2.960938 -7.917969 C 3.121094 -8.078125 2.878906 -8.078125 2.878906 -8.238281 C 2.800781 -8.320312 2.800781 -8.320312 2.878906 -8.398438 Z M 17.917969 -7.441406 C 17.757812 -7.359375 17.679688 -7.359375 17.597656 -7.441406 C 17.519531 -7.519531 17.4375 -7.519531 17.4375 -7.519531 C 17.117188 -7.199219 17.199219 -7.597656 17.117188 -7.679688 C 17.039062 -7.757812 17.117188 -7.839844 17.199219 -7.757812 C 17.277344 -7.679688 17.359375 -7.679688 17.4375 -7.757812 C 17.519531 -7.839844 17.4375 -7.917969 17.359375 -8 C 17.359375 -8.078125 17.199219 -8.078125 17.277344 -8.160156 C 17.277344 -8.238281 17.4375 -8.238281 17.519531 -8.238281 C 17.757812 -8.160156 18.078125 -7.839844 18.078125 -7.597656 C 18.160156 -7.441406 18.160156 -7.199219 17.917969 -7.441406 Z M 12.238281 -10.558594 C 12.238281 -10.640625 12.320312 -10.71875 12.480469 -10.800781 C 12.558594 -10.800781 12.71875 -10.878906 12.878906 -10.960938 C 12.960938 -10.960938 12.960938 -11.199219 13.121094 -11.121094 C 13.277344 -11.039062 13.039062 -10.960938 12.960938 -10.878906 C 12.960938 -10.800781 12.960938 -10.71875 13.039062 -10.640625 C 13.039062 -10.558594 12.960938 -10.398438 12.878906 -10.480469 C 12.558594 -10.71875 12.71875 -10.480469 12.71875 -10.320312 C 12.71875 -10.238281 12.480469 -10.078125 12.320312 -9.917969 L 12.160156 -9.917969 C 12.078125 -9.839844 11.917969 -9.757812 11.839844 -9.917969 C 11.757812 -10.078125 12 -10.078125 12.078125 -10.078125 C 12.238281 -10.160156 12.320312 -10.238281 12.398438 -10.398438 C 12.480469 -10.558594 12.398438 -10.558594 12.238281 -10.558594 Z M 28.957031 -17.359375 C 28.71875 -17.4375 28.71875 -17.597656 28.636719 -17.757812 C 28.398438 -17.917969 28.636719 -18.480469 28.957031 -18.558594 L 29.039062 -18.558594 C 29.117188 -18.480469 29.199219 -17.917969 29.117188 -17.917969 C 28.878906 -17.839844 28.878906 -17.757812 29.039062 -17.597656 C 29.117188 -17.519531 29.039062 -17.4375 28.957031 -17.359375 Z M 5.757812 -45.835938 C 5.441406 -45.515625 5.359375 -45.195312 5.199219 -44.878906 C 5.121094 -44.71875 5.039062 -44.636719 5.121094 -44.476562 C 5.121094 -44.398438 5.121094 -44.316406 4.960938 -44.238281 C 4.878906 -44.238281 4.878906 -44.316406 4.878906 -44.398438 C 4.71875 -44.71875 4.640625 -44.957031 5.039062 -45.117188 C 5.199219 -45.195312 5.28125 -45.355469 5.359375 -45.515625 C 5.359375 -45.757812 5.519531 -45.835938 5.679688 -45.917969 C 5.679688 -45.996094 5.757812 -45.917969 5.757812 -45.835938 Z M 6.078125 -37.996094 C 6.078125 -37.917969 6.078125 -37.835938 6 -37.917969 C 5.917969 -37.917969 5.757812 -37.996094 5.679688 -37.996094 L 5.28125 -38.476562 C 5.601562 -38.476562 5.519531 -38.878906 5.601562 -38.878906 C 5.757812 -38.796875 6 -38.71875 6 -38.476562 C 6.078125 -38.316406 5.917969 -38.078125 6.078125 -37.996094 Z M 6.160156 -43.675781 C 6 -43.835938 5.917969 -43.757812 5.839844 -43.675781 C 5.679688 -43.835938 5.519531 -43.835938 5.359375 -43.757812 C 5.28125 -43.675781 5.199219 -43.597656 5.121094 -43.675781 C 5.039062 -43.757812 5.199219 -43.835938 5.199219 -43.835938 C 5.28125 -44.15625 5.601562 -44.078125 5.679688 -44.238281 C 5.757812 -44.316406 5.917969 -44.238281 5.917969 -44.15625 C 6 -43.996094 6.160156 -43.917969 6.320312 -43.835938 C 6.398438 -43.757812 6.398438 -43.675781 6.398438 -43.597656 C 6.320312 -43.515625 6.238281 -43.597656 6.160156 -43.675781 Z M 6.800781 -12.71875 C 6.878906 -12.878906 6.71875 -12.960938 6.640625 -13.039062 C 6.640625 -13.121094 6.558594 -13.199219 6.640625 -13.277344 C 6.71875 -13.359375 6.800781 -13.277344 6.878906 -13.199219 C 6.960938 -13.199219 6.960938 -13.121094 7.039062 -13.039062 C 7.039062 -12.878906 7.121094 -12.878906 7.28125 -12.960938 C 7.359375 -13.039062 7.441406 -12.960938 7.441406 -12.960938 C 7.519531 -12.878906 7.597656 -12.800781 7.597656 -12.71875 C 7.597656 -12.640625 7.519531 -12.640625 7.441406 -12.640625 L 7.199219 -12.640625 C 7.121094 -12.640625 7.039062 -12.640625 6.960938 -12.558594 C 6.960938 -12.558594 7.121094 -12.320312 6.878906 -12.398438 C 6.71875 -12.480469 6.71875 -12.558594 6.800781 -12.71875 Z M 15.039062 -54.796875 C 15.277344 -55.035156 15.519531 -55.195312 15.839844 -55.195312 C 16 -55.195312 16.160156 -55.195312 16 -54.957031 L 15.757812 -54.636719 C 15.679688 -54.476562 15.519531 -54.316406 15.4375 -54.714844 C 15.359375 -54.875 15.117188 -54.714844 15.039062 -54.796875 Z M 9.917969 -11.277344 C 10 -11.277344 10.160156 -11.199219 10.320312 -11.199219 C 10.398438 -11.121094 10.398438 -10.960938 10.398438 -10.878906 C 10.398438 -10.71875 10.238281 -10.640625 10.160156 -10.640625 C 10 -10.558594 9.917969 -10.640625 9.839844 -10.800781 C 9.839844 -10.878906 9.839844 -10.960938 9.757812 -11.039062 C 9.679688 -11.039062 9.519531 -11.121094 9.597656 -11.199219 C 9.597656 -11.277344 9.757812 -11.359375 9.917969 -11.277344 Z M 39.039062 -28.796875 C 39.039062 -28.957031 39.039062 -29.117188 38.957031 -29.277344 L 38.71875 -29.679688 C 38.71875 -29.757812 38.796875 -29.917969 38.878906 -29.917969 C 39.117188 -29.917969 38.878906 -29.757812 38.957031 -29.757812 C 39.199219 -29.359375 39.117188 -28.878906 39.4375 -28.476562 C 39.4375 -28.476562 39.515625 -28.398438 39.4375 -28.398438 L 39.359375 -28.316406 C 39.117188 -28.398438 38.957031 -28.558594 39.039062 -28.796875 Z M 28.71875 -13.839844 C 28.398438 -13.917969 28.476562 -13.597656 28.398438 -13.519531 L 27.679688 -13.277344 C 27.597656 -13.277344 27.519531 -13.4375 27.519531 -13.519531 C 27.4375 -13.679688 27.597656 -13.757812 27.679688 -13.757812 C 27.679688 -13.839844 27.757812 -13.839844 27.757812 -13.757812 C 27.839844 -13.519531 27.839844 -13.597656 28 -13.597656 C 28.160156 -13.679688 28.316406 -13.917969 28.558594 -14 C 28.558594 -14 28.636719 -14 28.71875 -13.839844 Z M 5.199219 -12.160156 C 5.039062 -12.238281 5.039062 -12.320312 5.039062 -12.398438 L 5.441406 -13.121094 C 5.519531 -13.199219 5.601562 -13.359375 5.679688 -13.277344 C 5.757812 -13.121094 5.917969 -12.960938 5.757812 -12.800781 C 5.519531 -12.640625 5.199219 -12.558594 5.28125 -12.160156 Z M 8.960938 -12.480469 C 8.960938 -12.640625 8.960938 -12.71875 9.039062 -12.800781 C 9.199219 -12.800781 9.199219 -12.640625 9.28125 -12.640625 C 9.359375 -12.558594 9.359375 -12.480469 9.4375 -12.480469 C 9.679688 -12.320312 9.679688 -12.160156 9.4375 -12 C 9.359375 -11.917969 9.359375 -11.757812 9.28125 -11.839844 C 9.121094 -11.839844 9.199219 -12 9.199219 -12.078125 C 9.28125 -12.160156 9.199219 -12.238281 9.199219 -12.238281 C 8.878906 -12.160156 9.039062 -12.398438 8.960938 -12.480469 Z M 23.917969 -55.195312 C 23.917969 -55.117188 23.917969 -55.117188 23.839844 -55.117188 C 23.4375 -55.277344 23.117188 -55.515625 22.71875 -55.515625 C 22.636719 -55.515625 22.636719 -55.675781 22.71875 -55.675781 C 22.878906 -55.675781 23.039062 -55.917969 23.199219 -55.675781 C 23.277344 -55.597656 23.4375 -55.355469 23.597656 -55.675781 L 23.679688 -55.675781 Z M 3.757812 -10.640625 C 3.601562 -10.640625 3.441406 -10.640625 3.359375 -10.398438 C 3.359375 -10.320312 3.28125 -10.238281 3.199219 -10.320312 C 3.121094 -10.320312 3.121094 -10.480469 3.199219 -10.558594 L 3.519531 -10.800781 C 3.757812 -10.960938 4 -10.878906 4.160156 -11.121094 L 4.320312 -11.039062 C 4.398438 -10.960938 4.320312 -10.878906 4.320312 -10.878906 L 4.160156 -10.640625 Z M 3.917969 -12 C 3.917969 -12 3.839844 -12 3.757812 -12.078125 C 3.757812 -12.160156 3.679688 -12.238281 3.601562 -12.238281 C 3.359375 -12.398438 3.359375 -12.640625 3.28125 -12.800781 L 3.359375 -12.800781 C 3.601562 -12.71875 3.839844 -12.71875 3.917969 -12.398438 C 4 -12.320312 4.078125 -12.320312 4.078125 -12.160156 C 4.160156 -12.078125 4.078125 -12 3.917969 -12 Z M 15.039062 -54.796875 C 15.039062 -54.714844 15.039062 -54.636719 15.117188 -54.554688 C 15.359375 -54.398438 15.277344 -54.238281 15.117188 -53.996094 C 15.039062 -53.835938 14.960938 -53.835938 14.71875 -53.996094 C 14.558594 -54.15625 14.640625 -54.238281 14.800781 -54.316406 C 14.960938 -54.398438 14.960938 -54.476562 14.878906 -54.636719 C 14.71875 -54.875 14.960938 -54.714844 15.039062 -54.796875 Z M 21.597656 -24.476562 C 21.359375 -24.238281 21.277344 -24.398438 21.359375 -24.636719 C 21.359375 -24.636719 21.359375 -24.71875 21.4375 -24.71875 C 21.679688 -24.636719 21.917969 -24.558594 22.160156 -24.558594 C 22.160156 -24.476562 22.160156 -24.398438 22.078125 -24.398438 L 21.839844 -24.078125 C 21.757812 -24 21.917969 -23.839844 21.757812 -23.839844 C 21.597656 -23.839844 21.597656 -24.078125 21.679688 -24.238281 C 21.757812 -24.398438 21.679688 -24.398438 21.597656 -24.476562 Z M 12.238281 -10.558594 C 12.160156 -10.480469 12 -10.238281 11.839844 -10.320312 C 11.757812 -10.480469 11.839844 -10.71875 11.917969 -10.878906 L 12.160156 -11.121094 C 12.238281 -11.199219 12.480469 -11.199219 12.558594 -11.199219 C 12.640625 -11.039062 12.398438 -10.960938 12.320312 -10.878906 C 12.238281 -10.800781 11.917969 -10.71875 12.238281 -10.558594 Z M 19.117188 -25.597656 C 19.117188 -25.4375 19.117188 -25.277344 18.878906 -25.277344 C 18.71875 -25.277344 18.71875 -25.4375 18.640625 -25.597656 C 18.71875 -26 18.957031 -25.917969 19.277344 -25.839844 Z M 27.597656 -41.355469 C 27.597656 -41.199219 27.519531 -41.117188 27.359375 -41.199219 C 27.277344 -41.277344 27.117188 -41.355469 26.957031 -41.277344 C 26.878906 -41.277344 26.796875 -41.277344 26.796875 -41.355469 C 26.878906 -41.515625 27.039062 -41.675781 27.199219 -41.675781 C 27.359375 -41.597656 27.597656 -41.597656 27.597656 -41.355469 Z M 5.28125 -41.515625 C 5.359375 -41.597656 5.601562 -41.675781 5.441406 -41.757812 C 5.28125 -41.917969 5.28125 -42.078125 5.121094 -42.15625 C 5.039062 -42.238281 4.960938 -42.316406 4.878906 -42.238281 C 4.71875 -42.15625 4.878906 -42.078125 4.960938 -42.078125 C 4.960938 -41.996094 4.960938 -41.917969 5.039062 -41.917969 C 5.039062 -41.835938 4.71875 -41.835938 4.960938 -41.675781 C 5.039062 -41.597656 5.121094 -41.515625 5.28125 -41.515625 Z M 8.320312 -42.476562 C 8.558594 -42.078125 8.480469 -41.675781 8.320312 -41.355469 L 8.320312 -41.277344 C 8.078125 -41.277344 8 -41.355469 8.078125 -41.515625 C 8.398438 -41.757812 8.238281 -42.15625 8.320312 -42.476562 Z M 11.4375 -53.117188 C 11.359375 -53.117188 11.199219 -53.035156 11.121094 -53.117188 L 10.960938 -53.597656 C 10.960938 -53.597656 10.960938 -53.675781 11.039062 -53.675781 L 11.121094 -53.675781 C 11.199219 -53.515625 11.277344 -53.277344 11.597656 -53.4375 C 11.679688 -53.4375 11.757812 -53.277344 11.757812 -53.195312 C 11.679688 -52.957031 11.519531 -53.195312 11.4375 -53.117188 Z M 5.359375 -39.359375 C 5.359375 -39.199219 5.359375 -39.117188 5.28125 -39.039062 C 5.121094 -38.957031 5.121094 -39.199219 5.039062 -39.199219 L 4.558594 -39.515625 C 4.558594 -39.515625 4.480469 -39.515625 4.480469 -39.597656 C 4.480469 -39.597656 4.558594 -39.675781 4.640625 -39.675781 C 4.71875 -39.675781 4.800781 -39.675781 4.878906 -39.597656 C 4.960938 -39.515625 5.039062 -39.359375 5.121094 -39.4375 C 5.359375 -39.675781 5.359375 -39.4375 5.359375 -39.359375 Z M 27.679688 -12.71875 C 27.679688 -12.640625 27.519531 -12.558594 27.4375 -12.558594 C 27.199219 -12.71875 26.957031 -12.320312 26.71875 -12.640625 C 26.71875 -12.640625 26.71875 -12.800781 26.796875 -12.800781 C 26.878906 -12.878906 27.039062 -12.558594 27.117188 -12.878906 C 27.199219 -13.039062 27.4375 -12.800781 27.597656 -12.878906 C 27.597656 -12.878906 27.679688 -12.800781 27.679688 -12.71875 Z M 29.277344 -16.078125 C 29.199219 -16.078125 29.199219 -16.078125 29.199219 -16.160156 C 29.117188 -16.398438 29.039062 -16.71875 28.878906 -16.957031 L 28.878906 -17.039062 C 29.039062 -16.878906 29.359375 -17.039062 29.277344 -16.640625 C 29.277344 -16.558594 29.359375 -16.480469 29.4375 -16.398438 C 29.597656 -16.160156 29.359375 -16.160156 29.277344 -16.078125 Z M 6.078125 -49.675781 C 6.078125 -49.835938 6.078125 -49.917969 6.238281 -49.996094 C 6.238281 -50.078125 6.320312 -50.238281 6.398438 -50.15625 C 6.480469 -50.078125 6.640625 -49.996094 6.480469 -49.835938 C 6.398438 -49.757812 6.320312 -49.757812 6.398438 -49.597656 C 6.398438 -49.515625 6.398438 -49.355469 6.238281 -49.355469 C 6.078125 -49.4375 6.078125 -49.515625 6.078125 -49.675781 Z M 2.480469 -9.679688 L 2.480469 -9.757812 C 2.800781 -9.917969 2.878906 -10.160156 2.800781 -10.398438 C 2.800781 -10.480469 2.800781 -10.558594 2.878906 -10.558594 C 2.960938 -10.558594 2.960938 -10.480469 3.039062 -10.480469 C 3.039062 -10.320312 3.039062 -10.238281 3.121094 -10.160156 C 3.199219 -10 3.121094 -9.917969 2.960938 -9.839844 C 2.800781 -9.839844 2.71875 -9.757812 2.558594 -9.679688 Z M 9.199219 -42.476562 C 9.199219 -42.398438 9.199219 -42.316406 9.121094 -42.238281 C 9.039062 -42.238281 8.960938 -42.238281 8.878906 -42.316406 C 8.71875 -42.476562 8.71875 -42.71875 8.558594 -42.878906 C 8.558594 -42.878906 8.558594 -42.957031 8.640625 -42.957031 C 8.71875 -42.957031 9.199219 -42.558594 9.199219 -42.476562 Z M 13.519531 -11.121094 C 13.679688 -10.960938 13.597656 -10.398438 13.4375 -10.320312 L 13.359375 -10.320312 C 13.359375 -10.480469 13.277344 -10.640625 13.199219 -10.878906 C 13.199219 -10.960938 13.359375 -11.039062 13.4375 -11.121094 Z M 18.640625 -7.597656 C 18.640625 -7.757812 18.558594 -7.839844 18.480469 -7.917969 L 18.480469 -8 L 18.640625 -8 C 18.878906 -7.917969 18.71875 -7.519531 19.039062 -7.441406 C 18.878906 -7.359375 18.796875 -7.28125 18.640625 -7.28125 C 18.558594 -7.359375 18.480469 -7.359375 18.480469 -7.441406 C 18.398438 -7.519531 18.558594 -7.519531 18.558594 -7.519531 C 18.640625 -7.519531 18.640625 -7.597656 18.640625 -7.597656 Z M 16.480469 -31.757812 C 16.558594 -31.757812 16.640625 -31.597656 16.640625 -31.519531 C 16.640625 -31.359375 16.480469 -31.359375 16.480469 -31.199219 C 16.480469 -31.117188 16.480469 -30.957031 16.320312 -31.039062 C 16.238281 -31.039062 16.238281 -31.117188 16.238281 -31.277344 C 16.238281 -31.4375 16.398438 -31.597656 16.480469 -31.757812 Z M 27.519531 -42.636719 C 27.597656 -42.636719 27.757812 -42.796875 27.679688 -42.636719 C 27.679688 -42.476562 27.679688 -42.238281 27.4375 -42.15625 C 27.359375 -42.15625 27.277344 -42.238281 27.359375 -42.316406 C 27.4375 -42.316406 27.4375 -42.398438 27.359375 -42.476562 C 27.359375 -42.558594 27.117188 -42.636719 27.199219 -42.71875 C 27.277344 -42.796875 27.4375 -42.71875 27.519531 -42.636719 Z M 4.160156 -10.640625 C 4.398438 -10.558594 4.480469 -10.398438 4.238281 -10.160156 C 4.160156 -9.917969 4.078125 -9.839844 3.917969 -9.917969 C 3.839844 -10 3.839844 -10 3.917969 -10.160156 C 4 -10.238281 4.320312 -10.398438 4.160156 -10.640625 Z M 29.199219 -17.199219 C 29.199219 -17.519531 29.4375 -17.519531 29.597656 -17.519531 C 29.757812 -17.597656 29.757812 -17.4375 29.757812 -17.359375 C 29.757812 -16.957031 29.519531 -17.277344 29.359375 -17.199219 C 29.277344 -17.117188 29.199219 -17.117188 29.199219 -17.199219 Z M 24.398438 -24.078125 C 24.078125 -23.917969 24.078125 -24.476562 23.757812 -24.398438 L 23.839844 -24.476562 L 24.160156 -24.71875 C 24.238281 -24.71875 24.160156 -24.636719 24.160156 -24.558594 C 24.078125 -24.320312 24.320312 -24.320312 24.476562 -24.238281 C 24.476562 -24.160156 24.558594 -24.160156 24.558594 -24.078125 C 24.558594 -24 24.476562 -24.078125 24.398438 -24.078125 Z M 24.398438 -24.078125 "/></g></g></g></svg>