<svg xmlns="http://www.w3.org/2000/svg" xmlns:xlink="http://www.w3.org/1999/xlink" width="200" zoomAndPan="magnify" viewBox="0 0 150 149.999998" height="200" preserveAspectRatio="xMidYMid meet" version="1.0"><defs><g/></defs><rect x="-15" width="180" fill="#ffffff" y="-15" height="179.999997" fill-opacity="1"/><rect x="-15" width="180" fill="#1f2937" y="-15" height="179.999997" fill-opacity="1"/><g fill="#ffffff" fill-opacity="1"><g transform="translate(29.71875, 106.124996)"><g><path d="M 24.320312 -11.839844 C 24.476562 -11.679688 24.636719 -11.839844 24.796875 -11.839844 C 24.878906 -11.917969 24.796875 -12.078125 24.796875 -12.238281 C 24.878906 -12.398438 24.957031 -12.558594 25.199219 -12.558594 C 25.277344 -12.558594 25.359375 -12.640625 25.359375 -12.800781 L 25.359375 -14.480469 C 25.359375 -14.71875 25.117188 -14.878906 24.957031 -14.878906 C 24.796875 -14.800781 24.476562 -14.800781 24.398438 -14.480469 C 24.320312 -14.398438 24.238281 -14.320312 24.238281 -14.160156 C 24.160156 -14.160156 24.160156 -14.078125 24.078125 -14.078125 C 24 -14.160156 24.078125 -14.238281 24.078125 -14.238281 C 24.078125 -14.480469 24.160156 -14.71875 24 -14.960938 C 23.917969 -15.039062 24 -15.199219 24.078125 -15.199219 C 24.238281 -15.277344 24.238281 -15.117188 24.238281 -15.039062 C 24.238281 -14.960938 24.320312 -15.039062 24.398438 -15.039062 C 24.636719 -15.117188 24.878906 -15.199219 25.117188 -15.039062 L 25.199219 -15.039062 C 25.199219 -15.199219 25.277344 -15.359375 25.199219 -15.4375 C 25.199219 -15.519531 25.117188 -15.519531 25.039062 -15.4375 C 24.957031 -15.4375 24.878906 -15.359375 24.796875 -15.519531 C 24.796875 -15.597656 24.878906 -15.597656 24.957031 -15.597656 C 25.117188 -15.679688 25.277344 -15.839844 25.199219 -16.078125 C 25.117188 -16.320312 25.359375 -16.558594 25.199219 -16.800781 C 24.957031 -17.117188 25.277344 -17.277344 25.277344 -17.519531 C 25.277344 -17.917969 25.359375 -18.320312 25.359375 -18.71875 L 25.359375 -23.117188 C 25.359375 -24 25.359375 -24.878906 25.277344 -25.757812 C 25.199219 -27.4375 25.117188 -29.039062 25.359375 -30.636719 L 25.359375 -33.039062 C 25.359375 -33.996094 25.4375 -34.957031 25.277344 -35.917969 C 25.117188 -36.878906 25.117188 -37.835938 25.277344 -38.71875 C 25.359375 -39.597656 25.4375 -40.398438 25.359375 -41.277344 C 25.277344 -41.597656 25.199219 -41.996094 25.199219 -42.398438 L 25.199219 -49.117188 L 24.957031 -52.636719 C 24.878906 -53.355469 24.796875 -54.078125 24.636719 -54.714844 C 24.398438 -55.675781 23.917969 -56.078125 22.957031 -56.15625 L 22.71875 -56.15625 C 21.597656 -56.15625 20.480469 -56.078125 19.4375 -55.757812 C 18.480469 -55.4375 17.4375 -55.117188 16.480469 -54.714844 C 15.757812 -54.398438 15.039062 -54.078125 14.320312 -53.675781 C 13.359375 -53.195312 12.238281 -52.875 11.277344 -52.316406 C 10.640625 -51.996094 10 -51.597656 9.28125 -51.277344 L 5.839844 -49.597656 C 5.121094 -49.195312 4.480469 -48.875 3.917969 -48.316406 C 3.199219 -47.675781 3.28125 -46.558594 4.078125 -46.078125 C 4.960938 -45.597656 5.601562 -44.957031 6.160156 -44.15625 C 6.71875 -43.515625 7.121094 -42.71875 7.441406 -41.835938 C 7.679688 -41.199219 7.757812 -40.476562 7.839844 -39.757812 C 7.917969 -39.597656 7.757812 -39.359375 8.078125 -39.359375 C 8.238281 -39.359375 8.160156 -39.277344 8.078125 -39.277344 C 7.917969 -39.277344 7.917969 -39.199219 7.917969 -39.039062 C 8 -38.878906 8 -38.71875 8 -38.476562 C 8.078125 -37.757812 8.160156 -37.039062 8.078125 -36.316406 C 8 -35.757812 7.917969 -35.199219 8 -34.636719 C 8 -33.996094 8.160156 -33.277344 8.160156 -32.558594 C 8.078125 -31.277344 8.160156 -30 8.160156 -28.71875 C 8.078125 -26.160156 8.160156 -23.519531 8 -20.957031 C 7.917969 -20.238281 8.078125 -19.597656 8.078125 -18.957031 L 8.078125 -17.4375 C 8.160156 -16.640625 8.160156 -15.757812 8.160156 -14.960938 C 8.078125 -14.078125 7.917969 -13.121094 8.078125 -12.238281 C 8.238281 -11.359375 8 -10.558594 7.917969 -9.757812 C 7.917969 -9.4375 8 -9.039062 7.917969 -8.800781 C 7.679688 -8.160156 7.519531 -7.519531 7.359375 -6.878906 C 7.039062 -5.359375 6.480469 -3.917969 5.359375 -2.71875 C 4.960938 -2.238281 4.878906 -1.761719 4.960938 -1.199219 C 5.039062 -0.878906 5.121094 -0.640625 5.441406 -0.398438 C 5.917969 0 6.558594 0.078125 7.121094 0.078125 C 8.238281 0.078125 9.359375 0.238281 10.398438 0.160156 C 10.640625 0.160156 10.878906 0 11.039062 0.078125 C 11.519531 0.238281 11.917969 0.160156 12.320312 0.160156 C 13.4375 0.160156 14.640625 0.238281 15.757812 0.160156 C 16.71875 0.078125 17.679688 0.160156 18.640625 0 C 18.957031 0 19.277344 0.078125 19.597656 0 C 19.917969 0 20.238281 0.160156 20.558594 0 C 20.796875 -0.160156 21.117188 0.160156 21.4375 0 C 21.597656 0 21.839844 0.160156 21.839844 -0.160156 C 21.839844 -0.238281 22 -0.160156 22 -0.160156 C 22.078125 0.160156 22.320312 0.078125 22.558594 0.078125 C 23.597656 0.078125 24.558594 0.078125 25.597656 0 C 26.238281 0 26.957031 0 27.597656 -0.160156 C 28 -0.238281 28.398438 -0.480469 28.476562 -0.960938 C 28.636719 -1.441406 28.71875 -2 28.316406 -2.480469 C 28.160156 -2.640625 28.078125 -2.800781 28 -2.960938 C 27.597656 -3.441406 27.277344 -3.839844 27.117188 -4.320312 C 26.878906 -4.800781 26.558594 -5.199219 26.398438 -5.757812 C 26.316406 -6.078125 26.160156 -6.398438 26.078125 -6.800781 C 25.757812 -8.160156 25.4375 -9.519531 25.359375 -10.878906 C 25.359375 -11.121094 25.277344 -11.277344 24.957031 -11.277344 C 24.636719 -11.277344 24.476562 -11.519531 24.320312 -11.839844 Z M 22.078125 -47.996094 C 22.238281 -45.597656 22.078125 -43.117188 22.160156 -40.71875 L 22.160156 -40.316406 C 22 -39.4375 22 -38.476562 22.078125 -37.519531 C 22.160156 -36.636719 22.160156 -35.835938 22.078125 -35.039062 C 22.078125 -34.476562 22.238281 -33.996094 22.238281 -33.4375 C 22.238281 -32.71875 22.160156 -31.917969 22.078125 -31.199219 C 22 -30.636719 22 -30 22.078125 -29.4375 C 22.160156 -28.878906 22.160156 -28.316406 22.160156 -27.757812 C 22.160156 -26.316406 22.078125 -24.878906 22.160156 -23.4375 C 22.238281 -21.839844 22.078125 -20.238281 22.160156 -18.71875 C 22.160156 -17.917969 22.078125 -17.199219 22 -16.480469 C 21.917969 -15.4375 22 -14.398438 22 -13.359375 C 22 -12.480469 22.078125 -11.597656 22.160156 -10.71875 C 22.160156 -10.558594 22.160156 -10.398438 22.238281 -10.480469 C 22.796875 -10.480469 22.398438 -10.238281 22.398438 -10.160156 C 22.160156 -9.839844 22.320312 -9.519531 22.320312 -9.28125 C 22.320312 -9.039062 22.398438 -9.28125 22.480469 -9.28125 C 22.558594 -9.28125 22.636719 -9.359375 22.636719 -9.28125 C 22.71875 -9.28125 22.636719 -9.199219 22.558594 -9.199219 C 22.480469 -9.039062 22.398438 -8.800781 22.398438 -8.640625 L 22.398438 -8.558594 C 22.480469 -8.398438 22.636719 -8.640625 22.71875 -8.480469 C 22.71875 -8.398438 22.480469 -8.320312 22.480469 -8.160156 L 22.480469 -8 C 22.796875 -7.839844 22.71875 -7.519531 22.71875 -7.28125 C 22.71875 -6.480469 23.039062 -5.679688 23.117188 -4.878906 C 23.199219 -4.320312 22.957031 -3.839844 22.636719 -3.441406 C 22.398438 -3.199219 22.078125 -3.28125 21.839844 -3.121094 C 21.039062 -3.199219 20.238281 -3.039062 19.359375 -3.039062 C 18.558594 -3.121094 17.757812 -3.121094 16.878906 -3.039062 C 15.839844 -2.960938 14.800781 -2.960938 13.757812 -3.039062 L 11.199219 -3.359375 C 10.960938 -3.359375 10.71875 -3.679688 10.398438 -3.601562 C 10.398438 -3.601562 10.320312 -3.601562 10.320312 -3.679688 C 10.480469 -4.160156 10.320312 -4.640625 10.398438 -5.121094 C 10.558594 -5.601562 10.558594 -6.160156 10.558594 -6.640625 L 10.558594 -6.71875 C 10.800781 -6.878906 10.480469 -7.121094 10.71875 -7.28125 C 10.878906 -7.359375 10.800781 -7.679688 10.800781 -7.917969 C 10.878906 -8.078125 10.960938 -8.320312 10.800781 -8.480469 L 10.800781 -8.558594 C 11.359375 -9.519531 11.359375 -10.558594 11.277344 -11.679688 C 11.199219 -12.480469 11.199219 -13.359375 11.199219 -14.238281 C 11.199219 -15.757812 11.277344 -17.277344 11.277344 -18.796875 C 11.199219 -20.957031 11.199219 -23.039062 11.277344 -25.199219 C 11.277344 -26.160156 11.359375 -27.117188 11.277344 -28.078125 C 11.277344 -28.476562 11.199219 -28.957031 11.277344 -29.4375 C 11.277344 -30.398438 11.277344 -31.277344 11.4375 -32.238281 C 11.4375 -32.636719 11.359375 -33.117188 11.359375 -33.519531 C 11.277344 -34.796875 11.359375 -36.078125 11.359375 -37.359375 C 11.359375 -38.238281 11.277344 -39.117188 11.039062 -39.996094 C 10.800781 -41.039062 10.640625 -42.15625 10.398438 -43.117188 L 9.597656 -45.675781 C 9.519531 -46.078125 9.519531 -46.476562 9.597656 -46.796875 C 9.679688 -47.355469 9.917969 -47.757812 10.398438 -48.078125 C 11.277344 -48.71875 12.320312 -49.195312 13.277344 -49.675781 C 15.519531 -50.796875 17.839844 -51.757812 20.078125 -52.796875 C 20.398438 -52.875 20.640625 -52.875 20.878906 -52.796875 L 21.277344 -52.796875 C 21.757812 -52.875 21.839844 -52.558594 21.917969 -52.15625 C 22.078125 -50.796875 22.078125 -49.355469 22.078125 -47.996094 Z M 5.839844 -45.757812 C 5.679688 -45.996094 5.519531 -46.15625 5.757812 -46.398438 C 5.839844 -46.476562 5.839844 -46.71875 5.757812 -46.796875 C 5.601562 -47.035156 5.757812 -47.195312 5.839844 -47.355469 C 6 -47.4375 6 -47.597656 6.238281 -47.4375 C 6.398438 -47.355469 6.480469 -47.355469 6.398438 -47.675781 C 6.398438 -47.835938 6.558594 -47.996094 6.398438 -48.238281 C 6.398438 -48.238281 6.398438 -48.316406 6.480469 -48.316406 C 6.558594 -48.398438 6.558594 -48.316406 6.640625 -48.316406 C 6.71875 -47.996094 6.800781 -48.15625 6.878906 -48.316406 C 6.960938 -48.316406 7.039062 -48.398438 7.039062 -48.476562 C 7.121094 -48.476562 7.199219 -48.558594 7.199219 -48.476562 C 7.28125 -48.476562 7.199219 -48.398438 7.121094 -48.398438 C 6.960938 -48.238281 6.960938 -47.917969 6.71875 -47.835938 C 6.640625 -47.835938 6.640625 -47.757812 6.71875 -47.675781 C 6.71875 -47.675781 6.800781 -47.675781 6.800781 -47.597656 C 6.960938 -47.835938 7.28125 -47.835938 7.28125 -47.917969 C 7.199219 -48.316406 7.519531 -48.078125 7.597656 -48.078125 C 7.679688 -48.238281 7.839844 -48.316406 7.917969 -48.078125 C 8 -47.996094 8.078125 -47.996094 8.078125 -48.15625 C 8.160156 -48.15625 8.078125 -48.238281 8.160156 -48.238281 C 8.238281 -48.238281 8.320312 -48.238281 8.320312 -48.15625 C 8.320312 -47.996094 8.238281 -47.675781 8 -47.757812 C 7.597656 -47.917969 7.441406 -47.515625 7.199219 -47.4375 C 6.960938 -47.355469 7.28125 -47.195312 7.28125 -47.035156 C 7.28125 -47.035156 7.28125 -46.957031 7.359375 -46.957031 C 7.441406 -46.957031 7.441406 -47.035156 7.441406 -47.117188 C 7.359375 -47.515625 7.917969 -47.355469 8 -47.675781 C 8 -47.675781 8.078125 -47.675781 8.160156 -47.597656 C 8.238281 -47.597656 8.160156 -47.515625 8.160156 -47.4375 L 7.917969 -47.277344 C 7.757812 -47.195312 7.597656 -47.117188 7.917969 -47.035156 C 8 -47.035156 8 -46.957031 8 -46.957031 C 7.839844 -46.636719 7.917969 -46.238281 7.519531 -46.078125 C 7.441406 -45.996094 7.519531 -45.917969 7.597656 -45.917969 L 7.757812 -45.675781 C 7.757812 -45.355469 7.757812 -45.355469 7.519531 -45.4375 C 7.199219 -45.597656 7.039062 -45.277344 6.800781 -45.355469 C 6.960938 -45.597656 6.800781 -45.835938 6.558594 -45.835938 C 6.238281 -45.835938 6 -45.835938 6.078125 -46.238281 C 6.160156 -46.316406 6.078125 -46.316406 6 -46.398438 L 5.917969 -46.316406 C 6 -46.15625 5.679688 -45.996094 5.839844 -45.757812 Z M 24.238281 -11.839844 C 24.160156 -11.839844 24 -11.917969 23.917969 -11.839844 C 23.839844 -11.757812 24 -11.679688 24.078125 -11.597656 C 24.078125 -11.519531 24.238281 -11.4375 24.238281 -11.277344 L 23.839844 -10.960938 C 23.757812 -10.960938 23.757812 -11.039062 23.757812 -11.121094 C 23.597656 -10.960938 23.519531 -10.800781 23.597656 -10.558594 C 23.597656 -10.398438 23.4375 -10.320312 23.277344 -10.320312 C 23.117188 -10.238281 23.039062 -10.398438 22.957031 -10.558594 C 22.878906 -10.558594 22.878906 -10.558594 22.957031 -10.640625 C 23.277344 -10.878906 22.957031 -11.039062 22.796875 -11.199219 C 22.796875 -11.199219 22.71875 -11.277344 22.71875 -11.359375 C 22.957031 -11.597656 22.71875 -11.757812 22.636719 -12 C 22.558594 -12.078125 22.636719 -12.160156 22.796875 -12.160156 C 22.957031 -12.160156 23.117188 -12.238281 23.277344 -12.238281 C 23.199219 -12.398438 23.117188 -12.558594 23.4375 -12.640625 C 23.597656 -12.640625 23.679688 -12.800781 23.917969 -12.800781 C 24.078125 -12.800781 24.238281 -12.71875 24.238281 -12.480469 L 24.320312 -12.480469 C 24.238281 -12.238281 24.320312 -12 24.320312 -11.839844 Z M 25.359375 -3.441406 C 25.277344 -3.199219 25.359375 -2.878906 25.359375 -2.800781 C 25.519531 -2.398438 25.199219 -2.398438 25.039062 -2.320312 C 24.957031 -2.238281 24.878906 -2.320312 24.796875 -2.398438 C 24.71875 -2.480469 24.796875 -2.558594 24.796875 -2.640625 L 24.878906 -2.71875 C 25.117188 -2.640625 25.277344 -2.800781 25.199219 -2.960938 C 25.117188 -3.039062 25.039062 -3.28125 24.878906 -3.039062 C 24.796875 -2.878906 24.796875 -2.878906 24.636719 -2.960938 C 24.636719 -3.039062 24.636719 -3.121094 24.71875 -3.199219 L 24.796875 -3.199219 C 24.957031 -3.28125 25.277344 -3.359375 25.199219 -3.601562 C 25.199219 -3.917969 25.117188 -4.160156 24.878906 -4.398438 C 24.796875 -4.398438 24.71875 -4.480469 24.796875 -4.480469 C 24.796875 -4.558594 24.878906 -4.480469 24.957031 -4.480469 C 25.359375 -4.238281 25.4375 -3.839844 25.359375 -3.441406 Z M 8.878906 -46.796875 C 8.878906 -46.71875 8.800781 -46.71875 8.71875 -46.71875 C 8.480469 -46.71875 8.480469 -46.558594 8.480469 -46.398438 C 8.558594 -46.15625 8.398438 -45.917969 8.160156 -45.996094 C 8 -45.996094 7.839844 -46.078125 8.078125 -46.316406 L 8.320312 -46.71875 C 8.480469 -46.796875 8.558594 -46.957031 8.320312 -47.117188 C 8.238281 -47.195312 8.238281 -47.355469 8.320312 -47.355469 C 8.480469 -47.4375 8.558594 -47.355469 8.558594 -47.355469 C 8.71875 -47.195312 8.800781 -47.035156 8.878906 -46.796875 Z M 23.917969 -13.359375 C 23.839844 -13.359375 23.757812 -13.199219 23.679688 -13.277344 C 23.597656 -13.519531 23.917969 -13.597656 23.917969 -13.757812 C 23.917969 -13.839844 24 -13.839844 24.160156 -13.839844 L 24.320312 -13.679688 C 24.398438 -13.679688 24.476562 -13.679688 24.476562 -13.757812 C 24.476562 -13.839844 24.320312 -14 24.476562 -14 C 24.636719 -14 24.71875 -13.839844 24.878906 -13.757812 C 24.878906 -13.679688 24.796875 -13.679688 24.796875 -13.679688 C 24.558594 -13.4375 24.320312 -13.199219 23.917969 -13.359375 Z M 23.277344 -12.238281 C 23.277344 -12.160156 23.4375 -12.078125 23.4375 -11.917969 C 23.519531 -11.757812 23.4375 -11.597656 23.4375 -11.4375 C 23.4375 -11.359375 23.757812 -11.359375 23.757812 -11.121094 C 23.917969 -11.359375 23.839844 -11.519531 23.757812 -11.757812 C 23.679688 -12.078125 23.757812 -12.238281 24 -12.398438 C 24.078125 -12.398438 24.160156 -12.398438 24.238281 -12.480469 C 23.839844 -12.480469 23.839844 -12.480469 23.4375 -12.238281 Z M 25.039062 -8.640625 C 24.796875 -8.558594 24.558594 -8.800781 24.320312 -8.558594 C 24.320312 -8.558594 24.160156 -8.558594 24.160156 -8.640625 L 24.476562 -9.039062 C 24.476562 -9.121094 24.636719 -9.039062 24.71875 -8.960938 C 24.878906 -8.71875 24.957031 -8.800781 25.039062 -9.039062 L 25.277344 -9.28125 L 25.359375 -9.28125 C 25.4375 -9.199219 25.4375 -9.199219 25.359375 -9.121094 C 25.277344 -9.039062 25.277344 -8.878906 25.277344 -8.71875 C 25.277344 -8.320312 25.117188 -8.640625 25.039062 -8.640625 Z M 8.398438 -1.761719 L 8.238281 -1.761719 C 8.160156 -1.839844 8 -1.917969 8 -2.160156 C 7.917969 -2.238281 7.917969 -2.320312 7.917969 -2.398438 C 7.839844 -2.480469 7.679688 -2.558594 7.757812 -2.640625 C 7.917969 -2.800781 8 -2.878906 8.160156 -2.878906 C 8.238281 -2.878906 8.398438 -2.878906 8.398438 -2.800781 C 8.398438 -2.71875 8.320312 -2.71875 8.238281 -2.71875 C 8 -2.640625 8.078125 -2.558594 8.160156 -2.398438 L 8.398438 -1.839844 Z M 24.078125 -8.160156 C 24.078125 -8.238281 23.917969 -8.320312 24.078125 -8.398438 C 24.238281 -8.480469 24.238281 -8.238281 24.320312 -8.160156 C 24.320312 -8.078125 24.398438 -8 24.398438 -7.839844 C 24.398438 -7.679688 24.320312 -7.597656 24.160156 -7.679688 L 23.839844 -7.839844 C 23.757812 -7.839844 23.597656 -7.757812 23.597656 -7.917969 C 23.597656 -8.078125 23.757812 -8.160156 23.917969 -8.078125 L 24 -8.078125 C 24.078125 -8.078125 24.160156 -8.078125 24.078125 -8.160156 Z M 6.800781 -45.355469 C 6.878906 -45.277344 6.878906 -45.195312 6.960938 -45.195312 C 6.960938 -45.117188 7.039062 -45.117188 6.960938 -45.039062 C 6.71875 -44.957031 6.398438 -45.117188 6.320312 -45.355469 C 6.160156 -45.515625 6 -45.515625 5.917969 -45.675781 C 6.078125 -45.597656 6.238281 -45.675781 6.480469 -45.675781 C 6.558594 -45.597656 6.640625 -45.597656 6.640625 -45.4375 C 6.558594 -45.195312 6.71875 -45.355469 6.800781 -45.355469 Z M 23.359375 -3.679688 C 23.199219 -3.839844 23.679688 -4.078125 23.277344 -4.238281 L 23.277344 -4.320312 C 23.277344 -4.398438 23.359375 -4.398438 23.4375 -4.398438 C 23.519531 -4.238281 23.679688 -4.160156 23.679688 -4 C 23.679688 -3.757812 23.519531 -3.519531 23.597656 -3.28125 C 23.679688 -3.199219 23.597656 -3.199219 23.519531 -3.199219 C 23.4375 -3.199219 23.359375 -3.199219 23.359375 -3.359375 Z M 22.160156 -1.839844 C 22 -1.839844 21.839844 -1.761719 21.839844 -1.917969 C 21.839844 -2.078125 22 -2.078125 22.160156 -2 C 22.238281 -2 22.320312 -1.917969 22.320312 -2.078125 C 22.320312 -2.160156 22.320312 -2.398438 22.398438 -2.320312 C 22.558594 -2.320312 22.636719 -2.160156 22.71875 -2 C 22.796875 -1.917969 22.71875 -1.839844 22.636719 -1.839844 C 22.480469 -1.917969 22.320312 -1.761719 22.160156 -1.839844 Z M 24.320312 -9.597656 C 24.320312 -9.839844 24.398438 -9.679688 24.476562 -9.597656 C 24.636719 -9.597656 24.796875 -9.679688 24.878906 -9.839844 C 25.039062 -10.160156 25.199219 -9.917969 25.277344 -9.757812 C 25.359375 -9.757812 25.359375 -9.597656 25.277344 -9.597656 C 24.957031 -9.757812 24.796875 -9.4375 24.558594 -9.4375 C 24.320312 -9.359375 24.320312 -9.359375 24.320312 -9.597656 Z M 23.359375 -9.28125 C 23.359375 -9.199219 23.359375 -9.039062 23.199219 -9.039062 C 23.039062 -8.960938 22.957031 -9.199219 22.957031 -9.28125 C 22.957031 -9.4375 23.039062 -9.519531 22.796875 -9.519531 C 22.636719 -9.519531 22.796875 -9.597656 22.796875 -9.597656 C 23.117188 -9.757812 23.359375 -9.597656 23.359375 -9.28125 Z M 6.078125 -46.558594 C 6.238281 -46.636719 6.480469 -46.636719 6.558594 -46.796875 C 6.640625 -46.878906 6.480469 -47.195312 6.320312 -47.117188 C 6.238281 -47.117188 6.078125 -46.957031 6 -46.796875 C 6 -46.796875 5.917969 -46.558594 6.078125 -46.558594 Z M 9.917969 -7.917969 C 9.597656 -8 9.679688 -7.519531 9.4375 -7.441406 C 9.28125 -7.441406 9.28125 -7.441406 9.199219 -7.519531 C 9.121094 -7.597656 9.199219 -7.679688 9.199219 -7.757812 C 9.359375 -8 9.597656 -8 9.839844 -8 C 9.917969 -8 9.917969 -8 9.917969 -7.917969 Z M 9.597656 -2.398438 C 9.519531 -2.238281 9.757812 -2.078125 9.679688 -1.917969 C 9.597656 -1.839844 9.679688 -1.761719 9.597656 -1.761719 C 9.519531 -1.761719 9.519531 -1.839844 9.519531 -1.839844 C 9.4375 -2.078125 9.4375 -2.398438 9.28125 -2.558594 C 9.199219 -2.640625 9.199219 -2.71875 9.28125 -2.800781 C 9.359375 -2.800781 9.359375 -2.71875 9.4375 -2.71875 C 9.519531 -2.640625 9.757812 -2.640625 9.597656 -2.398438 Z M 8.558594 -7.121094 C 8.558594 -7.199219 8.558594 -7.28125 8.640625 -7.359375 C 8.800781 -7.359375 8.71875 -7.28125 8.71875 -7.199219 C 8.800781 -7.039062 8.878906 -7.121094 8.960938 -7.121094 C 9.199219 -7.121094 9.28125 -6.878906 9.4375 -6.71875 L 9.4375 -6.640625 C 9.359375 -6.558594 9.359375 -6.640625 9.28125 -6.640625 C 9.121094 -6.800781 9.039062 -7.121094 8.71875 -6.878906 C 8.558594 -6.800781 8.558594 -7.039062 8.558594 -7.121094 Z M 25.039062 -8.640625 C 25.199219 -8.320312 25.199219 -8.078125 24.878906 -7.917969 C 24.878906 -7.839844 24.796875 -7.757812 24.71875 -7.839844 C 24.71875 -7.839844 24.636719 -7.839844 24.558594 -7.917969 C 24.558594 -8 24.636719 -8 24.71875 -8 C 24.957031 -8 24.957031 -8.078125 24.71875 -8.238281 C 24.558594 -8.320312 24.636719 -8.320312 24.796875 -8.398438 C 24.957031 -8.398438 24.957031 -8.558594 25.039062 -8.640625 Z M 24.398438 -10.078125 C 24.238281 -10.238281 24.078125 -10.160156 23.917969 -10.160156 C 23.839844 -10.160156 23.839844 -10 23.757812 -10.078125 L 23.757812 -10.238281 C 23.839844 -10.480469 24 -10.480469 24.160156 -10.480469 C 24.320312 -10.480469 24.476562 -10.320312 24.558594 -10.238281 C 24.558594 -10.160156 24.476562 -10.078125 24.398438 -10.078125 Z M 24.398438 -4.480469 C 24.398438 -4.398438 24.398438 -4.320312 24.320312 -4.320312 C 24.160156 -4.160156 24.078125 -4.078125 24.078125 -3.917969 C 24.078125 -3.917969 24.078125 -3.839844 24 -3.839844 L 23.917969 -3.839844 C 24 -4.078125 23.757812 -4.160156 23.757812 -4.398438 C 23.839844 -4.480469 23.839844 -4.558594 23.839844 -4.558594 C 23.917969 -4.558594 23.917969 -4.480469 23.917969 -4.398438 C 24.160156 -4.238281 24.160156 -4.398438 24.238281 -4.558594 L 24.398438 -4.558594 Z M 23.839844 -15.597656 C 23.839844 -15.519531 23.757812 -15.519531 23.757812 -15.4375 C 23.679688 -15.277344 23.519531 -15.199219 23.4375 -15.277344 C 23.117188 -15.359375 23.117188 -15.359375 23.4375 -15.4375 C 23.519531 -15.4375 23.519531 -15.597656 23.519531 -15.679688 C 23.519531 -15.757812 23.4375 -15.839844 23.519531 -15.917969 C 23.597656 -16 23.839844 -15.679688 23.839844 -15.597656 Z M 23.839844 -15.597656 "/></g></g></g><g fill="#ffffff" fill-opacity="1"><g transform="translate(63.1555, 106.124996)"><g><path d="M 35.519531 -0.640625 C 35.597656 -0.71875 35.757812 -0.800781 35.835938 -0.71875 C 35.917969 -0.640625 35.835938 -0.480469 35.757812 -0.398438 C 35.757812 -0.320312 35.757812 -0.238281 35.835938 -0.238281 C 35.996094 0 35.835938 0.160156 35.757812 0.320312 C 35.835938 0.320312 35.917969 0.320312 36.078125 0.238281 C 37.117188 0 38.15625 -0.558594 39.199219 -0.878906 C 39.277344 -0.878906 39.277344 -0.878906 39.359375 -0.960938 C 39.4375 -1.199219 39.597656 -0.960938 39.757812 -1.039062 C 39.996094 -1.121094 39.917969 -1.359375 40.078125 -1.359375 L 40.238281 -1.359375 C 40.476562 -1.359375 40.71875 -1.519531 40.796875 -1.761719 C 40.878906 -1.839844 40.957031 -1.917969 41.039062 -1.917969 C 41.355469 -1.761719 41.515625 -2 41.757812 -2.160156 C 42.476562 -2.558594 43.117188 -3.121094 43.757812 -3.679688 C 44.558594 -4.398438 45.277344 -5.121094 46.15625 -5.757812 C 46.636719 -6.078125 47.035156 -6.480469 47.355469 -6.960938 L 47.835938 -7.839844 C 48.636719 -8.800781 49.355469 -9.839844 49.996094 -10.960938 C 50.078125 -11.199219 50.238281 -11.359375 50.398438 -11.597656 C 50.476562 -11.839844 50.636719 -12 50.796875 -12.238281 L 51.117188 -12.960938 L 51.4375 -13.597656 C 51.917969 -14.71875 52.398438 -15.839844 52.796875 -16.957031 C 52.957031 -17.757812 53.195312 -18.480469 53.4375 -19.199219 C 53.757812 -20.480469 54.078125 -21.839844 54.238281 -23.199219 L 54.476562 -25.679688 C 54.636719 -26.878906 54.714844 -28 54.636719 -29.199219 C 54.476562 -30.398438 54.398438 -31.679688 54.316406 -32.878906 L 54.15625 -33.757812 L 52.957031 -38.15625 C 52.714844 -39.117188 52.316406 -39.996094 52.078125 -40.957031 C 51.917969 -41.515625 51.675781 -42.078125 51.4375 -42.558594 C 50.398438 -44.558594 49.195312 -46.476562 47.757812 -48.238281 C 46.878906 -49.277344 45.996094 -50.238281 45.039062 -51.117188 C 44.558594 -51.515625 43.996094 -51.917969 43.515625 -52.398438 C 42.957031 -53.035156 42.316406 -53.515625 41.515625 -53.835938 C 41.277344 -53.996094 40.957031 -54.078125 40.71875 -54.15625 C 38.316406 -55.597656 35.679688 -56.476562 32.878906 -56.957031 C 31.839844 -57.117188 30.71875 -57.117188 29.597656 -57.277344 C 29.199219 -57.355469 28.796875 -57.355469 28.398438 -57.355469 C 26.878906 -57.277344 25.359375 -57.117188 23.839844 -56.796875 C 22.957031 -56.636719 22 -56.476562 21.117188 -56.238281 C 20.558594 -56.078125 19.917969 -55.996094 19.4375 -55.675781 C 18.558594 -55.117188 17.597656 -54.796875 16.640625 -54.316406 C 15.597656 -53.675781 14.558594 -53.117188 13.597656 -52.316406 C 12.480469 -51.355469 11.277344 -50.476562 10.320312 -49.277344 L 8.71875 -47.597656 C 6.960938 -45.4375 5.679688 -42.957031 4.71875 -40.316406 C 4.398438 -39.359375 4.160156 -38.398438 3.917969 -37.519531 C 3.28125 -35.199219 2.800781 -32.957031 2.640625 -30.636719 C 2.558594 -28.957031 2.640625 -27.277344 2.640625 -25.597656 C 2.558594 -24.796875 2.878906 -24.078125 2.960938 -23.277344 C 3.199219 -21.277344 3.757812 -19.277344 4.320312 -17.277344 C 4.320312 -17.277344 4.320312 -17.199219 4.398438 -17.117188 C 4.558594 -16.878906 4.480469 -16.480469 4.800781 -16.320312 C 4.800781 -16.320312 4.878906 -16.238281 4.800781 -16.238281 C 4.640625 -16 4.800781 -15.839844 4.878906 -15.679688 C 5.917969 -12.878906 7.359375 -10.320312 9.121094 -7.917969 L 10.558594 -6.320312 C 10.640625 -6.320312 10.800781 -6.078125 10.800781 -6.398438 C 10.800781 -6.480469 10.878906 -6.558594 10.878906 -6.558594 C 11.039062 -6.558594 10.960938 -6.398438 10.960938 -6.398438 C 10.878906 -6.078125 10.960938 -5.917969 11.121094 -5.757812 C 12.160156 -4.640625 13.277344 -3.679688 14.480469 -2.800781 C 14.71875 -2.71875 14.800781 -2.71875 14.878906 -2.960938 C 14.878906 -3.039062 15.039062 -3.039062 15.117188 -2.960938 C 15.277344 -2.878906 15.199219 -2.800781 15.117188 -2.71875 C 14.960938 -2.558594 14.960938 -2.480469 15.199219 -2.398438 L 15.597656 -2.160156 C 15.757812 -2 16 -2 16.160156 -2.160156 C 16.238281 -2.238281 16.238281 -2.238281 16.320312 -2.238281 C 16.320312 -2.238281 16.320312 -2.160156 16.238281 -2.078125 C 16.078125 -1.917969 16.160156 -1.917969 16.398438 -1.761719 C 17.199219 -1.28125 18.078125 -0.878906 18.957031 -0.480469 C 19.519531 -0.238281 20.078125 0 20.640625 0.078125 C 21.117188 0.238281 21.597656 0.480469 22.160156 0.320312 C 22.238281 0.320312 22.320312 0.320312 22.320312 0.398438 C 22.320312 0.480469 22.238281 0.480469 22.160156 0.480469 C 22.078125 0.398438 22 0.398438 21.917969 0.480469 C 21.917969 0.640625 22 0.640625 22.078125 0.640625 L 22.398438 0.800781 C 23.277344 1.039062 24.160156 1.039062 25.039062 1.121094 C 25.199219 1.121094 25.4375 1.199219 25.597656 1.039062 C 25.597656 1.039062 25.679688 1.039062 25.679688 1.121094 C 26 1.359375 26.558594 1.359375 26.878906 1.121094 C 26.878906 1.039062 26.957031 0.960938 26.957031 0.960938 C 27.039062 1.039062 26.957031 1.121094 26.957031 1.199219 C 26.878906 1.28125 26.878906 1.28125 26.957031 1.28125 C 27.519531 1.441406 28.160156 1.601562 28.71875 1.359375 C 28.878906 1.28125 29.117188 1.28125 29.277344 1.359375 C 29.4375 1.441406 29.679688 1.601562 29.679688 1.199219 C 29.679688 1.121094 29.757812 1.199219 29.839844 1.199219 C 29.917969 1.28125 29.839844 1.441406 30 1.441406 C 30.316406 1.441406 30.71875 1.359375 31.117188 1.28125 C 31.359375 1.28125 31.199219 1.039062 31.277344 0.878906 L 31.359375 0.878906 C 31.4375 0.800781 31.519531 0.71875 31.597656 0.878906 C 31.679688 0.960938 31.679688 1.039062 31.519531 1.039062 C 31.519531 1.121094 31.359375 1.039062 31.4375 1.199219 C 31.4375 1.28125 31.519531 1.28125 31.597656 1.28125 C 31.839844 1.199219 32.078125 1.28125 32.238281 1.039062 C 32.15625 1.039062 32.078125 1.039062 31.996094 0.960938 C 31.917969 0.878906 31.757812 0.800781 31.996094 0.71875 C 32.078125 0.71875 32.15625 0.480469 32.316406 0.480469 C 32.15625 0.480469 32.078125 0.480469 32.078125 0.398438 C 32.078125 0.238281 32.15625 0.078125 32.316406 0.078125 C 32.398438 0.078125 32.476562 0.160156 32.476562 0 C 32.476562 0 32.398438 -0.078125 32.316406 -0.078125 C 32.078125 -0.078125 31.917969 0 31.839844 0.160156 C 31.757812 0.238281 31.679688 0.238281 31.679688 0.238281 C 31.597656 0.160156 31.597656 0.160156 31.597656 0.078125 C 31.597656 -0.078125 31.679688 -0.238281 31.679688 -0.398438 C 31.597656 -0.480469 31.519531 -0.640625 31.679688 -0.640625 C 31.757812 -0.71875 31.839844 -0.558594 31.917969 -0.480469 C 31.917969 -0.320312 31.917969 -0.160156 32.15625 -0.238281 C 32.238281 -0.320312 32.316406 -0.398438 32.316406 -0.480469 C 32.398438 -0.558594 32.238281 -0.558594 32.15625 -0.640625 L 31.917969 -0.800781 C 31.839844 -0.878906 31.839844 -0.960938 31.996094 -0.960938 C 32.078125 -1.039062 32.238281 -1.039062 32.15625 -1.28125 C 32.15625 -1.28125 32.15625 -1.359375 32.238281 -1.359375 C 32.316406 -1.359375 32.316406 -1.28125 32.316406 -1.199219 L 32.316406 -0.878906 C 32.398438 -0.878906 32.476562 -0.960938 32.476562 -0.960938 C 32.558594 -1.039062 32.558594 -1.121094 32.636719 -1.121094 C 32.636719 -1.121094 32.71875 -1.199219 32.71875 -1.039062 C 32.71875 -0.960938 32.636719 -0.878906 32.71875 -0.878906 C 32.796875 -0.878906 32.957031 -0.960938 32.957031 -1.039062 C 32.957031 -1.121094 32.957031 -1.199219 33.039062 -1.28125 C 33.039062 -1.359375 33.117188 -1.441406 33.117188 -1.28125 C 33.199219 -1.199219 33.199219 -1.199219 33.277344 -1.199219 C 33.359375 -1.121094 33.597656 -1.121094 33.519531 -0.878906 C 33.519531 -0.71875 33.277344 -0.800781 33.199219 -0.71875 C 33.039062 -0.71875 32.878906 -0.640625 32.796875 -0.558594 C 32.71875 -0.398438 32.636719 -0.320312 32.71875 -0.160156 C 32.796875 0 32.957031 0.238281 32.878906 0.480469 C 33.039062 0.398438 33.039062 0.078125 33.199219 0 C 33.277344 -0.160156 33.359375 -0.160156 33.277344 -0.238281 C 33.117188 -0.320312 33.117188 -0.238281 33.039062 -0.160156 C 33.039062 -0.078125 32.957031 -0.078125 32.957031 -0.160156 C 32.878906 -0.160156 32.878906 -0.160156 32.878906 -0.238281 L 33.359375 -0.640625 C 33.4375 -0.71875 33.519531 -0.640625 33.679688 -0.558594 C 33.679688 -0.480469 33.757812 -0.398438 33.835938 -0.558594 C 33.917969 -0.640625 33.917969 -0.640625 33.835938 -0.71875 C 33.679688 -0.878906 33.757812 -0.960938 33.996094 -0.878906 C 34.078125 -0.878906 34.238281 -0.800781 34.398438 -0.960938 C 34.558594 -1.121094 34.71875 -1.28125 34.957031 -1.28125 C 35.039062 -1.28125 35.117188 -1.28125 35.117188 -1.359375 C 35.039062 -1.441406 34.957031 -1.441406 34.957031 -1.359375 C 34.878906 -1.359375 34.796875 -1.28125 34.796875 -1.441406 C 34.796875 -1.519531 34.878906 -1.679688 34.957031 -1.761719 C 34.957031 -1.839844 35.117188 -1.761719 35.199219 -1.679688 C 35.277344 -1.441406 35.277344 -1.121094 35.597656 -0.878906 C 35.597656 -0.878906 35.519531 -0.71875 35.519531 -0.640625 Z M 35.996094 -1.039062 C 35.835938 -1.441406 35.597656 -1.679688 35.199219 -1.761719 C 35.199219 -1.917969 35.199219 -2.160156 35.039062 -2.238281 C 34.71875 -2.558594 34.957031 -2.558594 35.199219 -2.558594 C 34.957031 -2.71875 34.796875 -2.71875 34.636719 -2.558594 C 34.558594 -2.480469 34.476562 -2.398438 34.398438 -2.480469 C 34.238281 -2.640625 33.996094 -2.558594 33.835938 -2.480469 C 33.519531 -2.398438 33.277344 -2.160156 32.878906 -2.238281 C 32.636719 -1.917969 32.238281 -2.078125 31.917969 -2 C 31.597656 -1.917969 31.277344 -1.917969 30.878906 -1.917969 C 30.796875 -1.917969 30.636719 -1.917969 30.636719 -1.761719 C 30.71875 -1.601562 30.636719 -1.519531 30.558594 -1.519531 C 30.238281 -1.28125 30.476562 -1.121094 30.476562 -0.960938 C 30.558594 -0.878906 30.558594 -0.71875 30.71875 -0.800781 C 30.796875 -0.878906 30.878906 -0.960938 30.796875 -1.039062 C 30.71875 -1.121094 30.636719 -1.28125 30.796875 -1.28125 C 30.957031 -1.359375 31.039062 -1.28125 31.039062 -1.121094 C 31.039062 -0.960938 31.117188 -0.960938 31.199219 -1.039062 C 31.359375 -1.199219 31.4375 -1.039062 31.597656 -1.039062 C 31.679688 -1.039062 31.679688 -0.878906 31.597656 -0.878906 C 31.277344 -0.800781 31.4375 -0.640625 31.4375 -0.480469 C 31.4375 -0.398438 31.519531 -0.320312 31.519531 -0.238281 C 31.519531 -0.160156 31.4375 0 31.359375 0 C 31.199219 0 31.199219 -0.078125 31.117188 -0.160156 C 30.957031 -0.320312 31.117188 -0.320312 31.117188 -0.320312 C 31.199219 -0.398438 31.359375 -0.480469 31.199219 -0.558594 C 31.117188 -0.640625 31.117188 -0.878906 30.878906 -0.71875 L 30.558594 -0.558594 C 30.398438 -0.480469 30.398438 -0.480469 30.398438 -0.71875 C 30.316406 -0.800781 30.15625 -0.71875 30.15625 -0.878906 C 30.078125 -1.121094 30.078125 -1.359375 29.757812 -1.601562 C 29.519531 -1.761719 29.359375 -1.839844 29.199219 -1.601562 C 28.957031 -1.359375 28.878906 -1.359375 28.71875 -1.601562 C 28.558594 -1.761719 28.476562 -1.761719 28.238281 -1.679688 C 28 -1.679688 27.679688 -1.679688 27.4375 -1.761719 C 26.476562 -2 25.519531 -2.078125 24.476562 -2.160156 C 23.917969 -2.238281 23.359375 -2.398438 22.71875 -2.558594 C 21.359375 -2.878906 20.160156 -3.519531 18.878906 -4.078125 C 18.078125 -4.398438 17.359375 -4.960938 16.558594 -5.28125 C 16.398438 -5.601562 16.078125 -5.757812 15.757812 -6 C 15.117188 -6.480469 14.558594 -7.039062 14 -7.441406 C 13.757812 -7.679688 13.679688 -8 13.359375 -8 C 13.359375 -8.480469 12.960938 -8.640625 12.71875 -8.878906 C 12.398438 -9.359375 12 -9.839844 11.597656 -10.320312 C 10.800781 -11.277344 10.160156 -12.320312 9.597656 -13.359375 C 8.71875 -14.71875 8 -16.320312 7.441406 -17.839844 C 6.878906 -19.039062 6.558594 -20.320312 6.398438 -21.679688 C 6.160156 -22.957031 6 -24.238281 5.839844 -25.597656 C 5.757812 -26.398438 5.679688 -27.277344 5.679688 -28.078125 C 5.679688 -29.519531 5.757812 -30.878906 6 -32.316406 C 6.398438 -34.558594 6.878906 -36.71875 7.597656 -38.878906 C 8.160156 -40.558594 8.878906 -42.15625 9.917969 -43.597656 C 10.640625 -44.636719 11.359375 -45.675781 12.160156 -46.636719 C 12.480469 -47.117188 12.800781 -47.515625 13.199219 -47.835938 C 13.917969 -48.476562 14.640625 -48.957031 15.277344 -49.597656 C 16.800781 -50.796875 18.480469 -51.675781 20.160156 -52.476562 C 21.359375 -53.117188 22.636719 -53.355469 23.839844 -53.675781 C 24.238281 -53.757812 24.636719 -53.835938 25.039062 -53.835938 C 26 -53.835938 27.039062 -54.078125 28.078125 -53.996094 C 29.519531 -53.996094 30.957031 -54.15625 32.398438 -53.835938 C 32.957031 -53.757812 33.4375 -53.515625 33.917969 -53.355469 C 34.636719 -53.117188 35.277344 -52.957031 35.996094 -52.875 C 36.558594 -52.796875 37.117188 -52.476562 37.675781 -52.15625 C 39.277344 -51.515625 40.636719 -50.558594 41.996094 -49.515625 C 43.355469 -48.398438 44.558594 -47.195312 45.597656 -45.835938 C 46.476562 -44.796875 47.195312 -43.597656 47.835938 -42.398438 C 48.558594 -41.039062 49.277344 -39.675781 49.675781 -38.15625 C 50.078125 -36.558594 50.636719 -35.039062 50.875 -33.359375 C 51.035156 -32.476562 51.117188 -31.597656 51.195312 -30.636719 L 51.515625 -28.878906 L 51.515625 -28.078125 C 51.515625 -26.878906 51.4375 -25.757812 51.277344 -24.636719 C 51.195312 -23.839844 50.957031 -23.039062 50.875 -22.238281 C 50.636719 -20.957031 50.316406 -19.597656 49.996094 -18.320312 C 49.917969 -18.078125 49.996094 -17.917969 49.757812 -17.679688 C 49.597656 -17.519531 49.597656 -17.199219 49.515625 -16.957031 L 49.277344 -16.238281 C 49.117188 -16 49.035156 -15.757812 48.957031 -15.519531 C 48.796875 -15.277344 48.71875 -15.039062 48.636719 -14.800781 C 48.078125 -13.679688 47.4375 -12.558594 46.71875 -11.4375 C 46.476562 -11.121094 46.238281 -10.800781 45.917969 -10.480469 C 45.515625 -10.238281 45.277344 -9.839844 45.039062 -9.4375 C 44.558594 -8.640625 43.917969 -8 43.199219 -7.359375 C 42.078125 -6.238281 40.796875 -5.359375 39.4375 -4.558594 C 38.476562 -4 37.4375 -3.519531 36.398438 -3.121094 C 36.15625 -3.039062 35.917969 -2.960938 36.15625 -2.640625 C 36.15625 -2.558594 36.15625 -2.480469 36.078125 -2.480469 C 35.996094 -2.480469 35.917969 -2.480469 35.917969 -2.558594 C 35.835938 -2.960938 35.597656 -2.800781 35.4375 -2.640625 C 35.359375 -2.640625 35.277344 -2.640625 35.199219 -2.558594 C 35.199219 -2.480469 35.277344 -2.480469 35.359375 -2.480469 C 35.359375 -2.480469 35.4375 -2.558594 35.4375 -2.398438 C 35.359375 -2.078125 35.597656 -1.839844 35.917969 -1.839844 C 35.996094 -1.839844 36.078125 -1.839844 36.078125 -1.761719 C 36.238281 -1.601562 36.238281 -1.359375 36.316406 -1.199219 C 36.398438 -1.039062 36.398438 -0.960938 36.238281 -0.960938 C 35.996094 -0.800781 36.078125 -0.960938 35.996094 -1.039062 Z M 38.558594 -35.835938 C 38.558594 -36.078125 38.558594 -36.316406 38.476562 -36.558594 C 38.15625 -37.996094 37.835938 -39.4375 37.359375 -40.878906 C 37.039062 -41.675781 36.796875 -42.476562 36.476562 -43.199219 C 36.238281 -43.835938 36.078125 -44.558594 35.679688 -45.117188 L 34.71875 -46.398438 C 34.238281 -46.957031 33.835938 -47.597656 33.277344 -47.996094 C 32.636719 -48.476562 32.078125 -48.957031 31.359375 -49.277344 C 30.238281 -49.757812 29.199219 -49.835938 28 -49.757812 C 27.839844 -49.757812 27.679688 -49.757812 27.597656 -49.515625 C 27.597656 -49.4375 27.4375 -49.355469 27.4375 -49.4375 C 27.4375 -49.917969 27.199219 -49.597656 27.039062 -49.597656 C 26.160156 -49.4375 25.4375 -48.957031 24.71875 -48.558594 C 23.757812 -48.078125 23.039062 -47.355469 22.480469 -46.476562 C 21.039062 -44.476562 20.160156 -42.238281 19.597656 -39.917969 C 19.359375 -39.117188 19.277344 -38.398438 19.117188 -37.597656 C 18.957031 -36.71875 18.878906 -35.835938 18.640625 -34.957031 C 18.398438 -33.679688 18.320312 -32.476562 18.238281 -31.199219 C 18.160156 -30.15625 18.160156 -29.117188 18.160156 -28.160156 C 18.160156 -27.4375 18.238281 -26.71875 18.160156 -26 C 18.160156 -25.519531 18.238281 -25.039062 18.320312 -24.636719 C 18.320312 -24.476562 18.238281 -24.238281 18.480469 -24.160156 C 18.558594 -24.160156 18.480469 -24.078125 18.480469 -24 C 18.320312 -23.679688 18.320312 -23.359375 18.640625 -23.117188 C 18.640625 -23.117188 18.71875 -23.039062 18.640625 -23.039062 C 18.320312 -23.039062 18.480469 -22.796875 18.480469 -22.636719 L 18.796875 -20.238281 C 18.878906 -20.078125 18.878906 -19.917969 18.957031 -20.238281 L 19.117188 -20.238281 C 19.039062 -20.160156 19.199219 -19.917969 19.039062 -19.917969 C 18.796875 -19.757812 18.796875 -19.757812 19.039062 -19.597656 C 19.199219 -19.519531 19.277344 -19.199219 19.199219 -19.199219 C 18.878906 -19.199219 19.039062 -19.039062 19.039062 -18.878906 C 19.199219 -17.917969 19.359375 -16.957031 19.679688 -15.917969 L 19.917969 -15.117188 C 20 -14.878906 20.160156 -14.640625 20.160156 -14.320312 L 20.480469 -13.679688 C 20.558594 -13.4375 20.71875 -13.199219 20.71875 -12.960938 L 20.71875 -12.878906 C 20.796875 -12.71875 20.957031 -12.878906 21.039062 -12.800781 C 21.117188 -12.640625 20.796875 -12.640625 20.878906 -12.480469 L 21.199219 -11.679688 C 21.839844 -10.238281 22.71875 -9.039062 23.917969 -8 C 24.078125 -7.757812 24.398438 -7.679688 24.558594 -7.519531 C 25.039062 -6.960938 25.597656 -6.71875 26.238281 -6.480469 C 26.476562 -6.398438 26.71875 -6.480469 26.957031 -6.398438 C 27.917969 -6.160156 28.878906 -6.160156 29.839844 -6.320312 C 31.117188 -6.480469 32.15625 -7.121094 33.199219 -7.839844 C 33.597656 -8.078125 33.835938 -8.320312 34.15625 -8.640625 C 35.117188 -9.917969 35.835938 -11.199219 36.398438 -12.640625 C 37.117188 -14.398438 37.675781 -16.238281 38.078125 -18.078125 C 38.316406 -19.117188 38.398438 -20.078125 38.71875 -21.039062 C 38.957031 -21.679688 39.039062 -22.398438 39.039062 -23.117188 C 39.039062 -23.597656 38.957031 -24.078125 39.039062 -24.558594 C 39.199219 -26 39.117188 -27.4375 39.117188 -28.878906 C 39.199219 -30.238281 39.039062 -31.519531 38.878906 -32.878906 C 38.796875 -33.835938 38.558594 -34.796875 38.558594 -35.835938 Z M 35.996094 -28 C 36.078125 -27.359375 35.996094 -26.636719 35.835938 -25.917969 C 35.757812 -25.359375 35.757812 -24.71875 35.757812 -24.078125 C 35.597656 -22.078125 35.4375 -20 34.796875 -18.078125 C 34.636719 -17.597656 34.558594 -17.117188 34.476562 -16.558594 C 34.398438 -15.679688 33.996094 -14.800781 33.679688 -13.917969 C 33.359375 -13.121094 32.878906 -12.398438 32.476562 -11.679688 C 31.996094 -10.878906 31.359375 -10.160156 30.476562 -9.679688 C 29.4375 -9.121094 28.316406 -9.039062 27.277344 -9.519531 C 27.039062 -9.597656 26.957031 -9.679688 26.796875 -9.839844 C 26.71875 -10 26.398438 -9.839844 26.398438 -9.917969 C 26.398438 -10.078125 26.316406 -10.160156 26.160156 -10.320312 C 25.597656 -10.800781 25.117188 -11.359375 24.71875 -12.078125 C 24.078125 -13.039062 23.679688 -14.160156 23.277344 -15.277344 C 22.796875 -16.558594 22.480469 -17.917969 22.160156 -19.199219 C 22.078125 -19.277344 22.160156 -19.4375 21.917969 -19.4375 C 21.839844 -19.4375 21.839844 -19.519531 21.839844 -19.519531 C 22.238281 -19.917969 21.917969 -20.238281 21.839844 -20.640625 C 21.839844 -21.039062 21.679688 -21.4375 21.757812 -21.757812 C 21.757812 -21.839844 21.679688 -21.839844 21.757812 -21.917969 C 21.757812 -22.160156 21.519531 -22.160156 21.4375 -22.320312 C 21.679688 -22.398438 21.597656 -22.558594 21.597656 -22.796875 C 21.679688 -22.957031 21.519531 -23.117188 21.519531 -23.277344 L 21.519531 -23.839844 C 21.519531 -24 21.4375 -24.238281 21.4375 -24.398438 C 21.4375 -25.039062 21.359375 -25.597656 21.359375 -26.238281 L 21.359375 -26.398438 C 20.957031 -26.636719 21.277344 -27.039062 21.277344 -27.277344 C 21.199219 -28.398438 21.277344 -29.519531 21.359375 -30.636719 L 21.597656 -32.71875 C 21.757812 -33.4375 21.839844 -34.078125 21.917969 -34.796875 C 22 -35.757812 22.160156 -36.636719 22.398438 -37.597656 C 22.636719 -38.476562 22.796875 -39.359375 22.957031 -40.316406 C 23.039062 -40.796875 23.199219 -41.277344 23.4375 -41.675781 C 23.519531 -41.835938 23.4375 -42.078125 23.597656 -42.238281 C 23.757812 -42.398438 23.839844 -42.71875 24 -42.957031 L 24.320312 -43.597656 C 24.476562 -43.835938 24.398438 -43.917969 24.160156 -43.917969 C 24.078125 -43.917969 24.078125 -43.917969 24.078125 -43.996094 C 24 -44.078125 24.078125 -44.078125 24.160156 -44.078125 C 24.238281 -44.15625 24.320312 -44.238281 24.476562 -44.238281 C 24.71875 -44.316406 25.039062 -44.398438 24.636719 -44.71875 C 24.558594 -44.796875 24.636719 -44.878906 24.71875 -44.878906 C 24.796875 -44.957031 24.878906 -44.957031 24.878906 -44.878906 C 24.878906 -44.558594 25.039062 -44.71875 25.117188 -44.796875 C 25.519531 -45.195312 26 -45.515625 26.476562 -45.917969 C 26.878906 -46.238281 27.359375 -46.398438 27.757812 -46.71875 C 27.839844 -46.796875 27.917969 -46.71875 28.078125 -46.71875 C 28.636719 -46.796875 29.199219 -46.71875 29.757812 -46.71875 C 30.078125 -46.636719 30.476562 -46.316406 30.796875 -46.15625 C 31.4375 -45.757812 31.996094 -45.195312 32.398438 -44.558594 C 32.476562 -44.398438 32.558594 -44.15625 32.796875 -44.15625 C 32.957031 -44.078125 32.796875 -43.835938 32.878906 -43.675781 C 33.359375 -42.878906 33.679688 -42.078125 33.996094 -41.199219 C 34.238281 -40.636719 34.316406 -40.078125 34.398438 -39.515625 C 34.476562 -38.878906 34.636719 -38.238281 34.878906 -37.597656 C 35.277344 -36.71875 35.277344 -35.757812 35.519531 -34.796875 C 35.757812 -33.277344 35.835938 -31.679688 35.917969 -30.15625 C 35.996094 -29.4375 36.078125 -28.71875 35.996094 -28 Z M 29.039062 -0.640625 C 29.117188 -0.640625 29.199219 -0.640625 29.199219 -0.480469 C 29.277344 -0.160156 29.199219 0.078125 28.957031 0.320312 C 29.039062 0.398438 29.117188 0.398438 29.117188 0.398438 C 29.359375 0.078125 29.519531 0.320312 29.597656 0.480469 L 29.597656 0.640625 L 29.519531 0.640625 C 29.359375 0.558594 29.277344 0.558594 29.199219 0.640625 C 29.039062 0.71875 28.878906 0.640625 28.796875 0.558594 C 28.558594 0.320312 28.558594 0.558594 28.476562 0.640625 C 28.398438 0.71875 28.476562 0.71875 28.476562 0.71875 C 28.71875 0.71875 28.636719 0.878906 28.636719 0.960938 C 28.636719 1.039062 28.558594 1.121094 28.476562 1.039062 C 28.398438 0.960938 28.238281 0.960938 28.238281 0.800781 L 28.238281 0.640625 C 28.238281 0.558594 28.316406 0.480469 28.160156 0.398438 C 28.078125 0.398438 27.917969 0.398438 27.917969 0.558594 C 27.917969 0.640625 27.917969 0.71875 27.839844 0.71875 C 27.679688 0.71875 27.679688 0.640625 27.679688 0.558594 C 27.757812 0.320312 27.757812 0.160156 27.757812 -0.078125 C 27.757812 -0.238281 27.917969 -0.238281 28.078125 -0.238281 C 28.238281 -0.160156 28.160156 -0.078125 28.078125 0 C 28 0.078125 28 0.160156 28.078125 0.160156 C 28.160156 0.238281 28.238281 0.160156 28.238281 0.160156 C 28.316406 0.078125 28.316406 0 28.398438 0 C 28.476562 0 28.558594 0 28.558594 0.078125 C 28.238281 0.480469 28.636719 0.238281 28.71875 0.238281 C 28.796875 0.320312 28.878906 0.320312 28.957031 0.320312 C 28.878906 0.078125 28.796875 -0.238281 28.796875 -0.480469 Z M 33.4375 0.558594 C 33.277344 0.320312 33.277344 0.398438 33.199219 0.558594 C 33.359375 0.71875 33.4375 1.039062 33.757812 0.960938 C 33.917969 0.878906 34.078125 0.878906 34.238281 0.878906 C 34.316406 0.800781 34.476562 0.71875 34.558594 0.71875 L 34.316406 0.480469 C 34.15625 0.480469 34.238281 0.398438 34.15625 0.320312 C 34.15625 0.078125 33.757812 -0.160156 33.597656 -0.078125 C 33.4375 0 33.679688 0.160156 33.679688 0.320312 L 33.597656 0.398438 C 33.597656 0.480469 33.757812 0.558594 33.679688 0.640625 C 33.519531 0.71875 33.519531 0.640625 33.4375 0.558594 Z M 19.917969 -1.917969 C 20 -1.917969 20.160156 -1.917969 20.238281 -1.839844 C 20.320312 -1.839844 20.398438 -1.839844 20.320312 -1.761719 C 20.238281 -1.601562 20.238281 -1.441406 20.398438 -1.359375 C 20.480469 -1.28125 20.558594 -1.359375 20.640625 -1.441406 C 20.71875 -1.601562 20.71875 -1.679688 20.640625 -1.839844 C 20.957031 -1.761719 21.039062 -1.679688 20.878906 -1.441406 L 20.558594 -1.121094 C 20.480469 -0.960938 20.238281 -1.199219 20.320312 -0.878906 C 20.160156 -0.960938 19.917969 -0.960938 19.757812 -0.960938 C 19.597656 -1.039062 19.679688 -1.28125 19.679688 -1.359375 C 19.679688 -1.519531 19.757812 -1.441406 19.839844 -1.519531 C 20.078125 -1.601562 20.078125 -1.761719 19.917969 -1.917969 Z M 30.476562 0.960938 C 30.476562 1.039062 30.476562 1.039062 30.636719 1.039062 C 30.636719 1.039062 30.71875 0.960938 30.71875 0.878906 C 30.796875 0.800781 30.878906 0.71875 30.957031 0.800781 C 31.039062 0.878906 30.957031 1.039062 30.878906 1.121094 C 30.71875 1.199219 30.558594 1.28125 30.316406 1.199219 C 30.238281 1.121094 30.15625 0.960938 29.917969 1.039062 C 29.839844 1.039062 29.757812 0.878906 29.839844 0.878906 C 30.078125 0.640625 29.757812 0.398438 29.839844 0.160156 L 30 0.160156 C 30.078125 0.320312 30.238281 0.398438 30.238281 0.480469 C 30.316406 0.640625 30.238281 0.800781 30.558594 0.800781 C 30.636719 0.800781 30.558594 0.878906 30.476562 0.960938 Z M 25.679688 0.320312 C 25.4375 0.320312 25.519531 0.078125 25.519531 0.078125 C 25.117188 0 25.359375 -0.398438 25.199219 -0.558594 C 25.117188 -0.640625 25.117188 -0.71875 25.199219 -0.800781 C 25.277344 -0.878906 25.359375 -0.878906 25.519531 -0.878906 L 25.519531 -0.800781 C 25.117188 -0.480469 25.597656 -0.558594 25.679688 -0.480469 C 25.757812 -0.398438 25.757812 -0.320312 25.757812 -0.238281 C 25.679688 -0.078125 25.757812 0.078125 26 0.078125 C 26.078125 0.078125 26.078125 0.238281 26 0.238281 C 25.917969 0.320312 25.757812 0.320312 25.679688 0.320312 Z M 19.917969 -1.917969 C 19.757812 -1.917969 19.519531 -1.917969 19.4375 -2 C 19.199219 -2.160156 18.957031 -2.320312 18.796875 -2 C 18.71875 -1.917969 18.640625 -1.917969 18.640625 -2 L 18.238281 -2.398438 C 18.238281 -2.480469 18.238281 -2.558594 18.320312 -2.640625 C 18.398438 -2.640625 18.320312 -2.558594 18.398438 -2.480469 C 18.480469 -2.320312 18.640625 -2.238281 18.796875 -2.398438 C 19.039062 -2.558594 19.199219 -2.558594 19.359375 -2.238281 C 19.359375 -2.160156 19.597656 -2.078125 19.679688 -2.078125 C 19.839844 -2.160156 19.917969 -2.078125 19.917969 -1.917969 Z M 23.757812 -1.121094 C 23.917969 -1.199219 23.917969 -1.121094 24 -1.039062 C 24 -0.878906 24.078125 -0.71875 24.320312 -0.960938 C 24.398438 -1.121094 24.636719 -1.039062 24.878906 -0.71875 C 24.957031 -0.558594 24.957031 -0.480469 24.796875 -0.320312 L 24.71875 -0.320312 C 24.636719 -0.320312 24.71875 -0.398438 24.71875 -0.398438 C 24.71875 -0.640625 24.476562 -0.878906 24.398438 -0.71875 C 24.078125 -0.320312 24 -0.71875 23.839844 -0.800781 C 23.839844 -0.800781 23.839844 -0.960938 23.757812 -0.960938 C 23.679688 -1.039062 23.519531 -0.800781 23.519531 -1.039062 C 23.519531 -1.199219 23.679688 -1.121094 23.757812 -1.121094 Z M 21.839844 -0.640625 C 21.839844 -0.480469 21.917969 -0.398438 22.078125 -0.320312 C 22.160156 -0.238281 22.320312 -0.078125 22.160156 0.078125 C 22 0.238281 21.917969 0.160156 21.839844 0 L 21.757812 -0.078125 C 21.679688 -0.160156 21.4375 0 21.519531 -0.238281 C 21.519531 -0.320312 21.4375 -0.558594 21.679688 -0.640625 C 21.679688 -0.640625 21.757812 -0.71875 21.757812 -0.800781 L 21.917969 -0.800781 C 21.917969 -0.71875 21.917969 -0.71875 21.839844 -0.640625 Z M 11.359375 -7.519531 C 11.199219 -7.597656 10.960938 -7.597656 10.800781 -7.757812 C 10.640625 -7.839844 10.640625 -8 10.71875 -8.078125 C 10.71875 -8.160156 10.800781 -8.238281 10.878906 -8.238281 C 10.960938 -8.238281 10.960938 -8.160156 10.960938 -8.078125 C 11.039062 -7.679688 11.039062 -7.679688 11.4375 -7.839844 C 11.519531 -7.839844 11.597656 -7.917969 11.757812 -7.917969 C 11.839844 -7.917969 11.839844 -7.839844 11.839844 -7.757812 C 11.917969 -7.679688 11.839844 -7.597656 11.757812 -7.597656 C 11.679688 -7.597656 11.519531 -7.519531 11.359375 -7.519531 Z M 20.878906 -2.238281 C 20.957031 -2 20.558594 -2.078125 20.558594 -1.917969 C 20.320312 -1.917969 20.398438 -2.160156 20.398438 -2.238281 C 20.320312 -2.480469 20.320312 -2.640625 20.078125 -2.640625 C 20 -2.640625 19.917969 -2.640625 19.917969 -2.71875 C 20 -2.71875 20 -2.800781 20.078125 -2.800781 C 20.238281 -2.878906 20.796875 -2.480469 20.878906 -2.238281 Z M 35.199219 -0.238281 C 35.117188 0.160156 35.359375 0.320312 35.757812 0.320312 C 35.679688 -0.078125 35.4375 -0.238281 35.199219 -0.558594 Z M 32.238281 1.039062 C 32.796875 1.28125 33.039062 1.121094 33.199219 0.640625 L 32.878906 0.480469 C 32.796875 0.878906 32.558594 0.960938 32.238281 1.039062 Z M 28.796875 -0.480469 C 28.316406 -0.238281 28.316406 -0.320312 28.238281 -0.800781 C 28.238281 -0.878906 28.160156 -0.960938 28.160156 -1.039062 L 28.238281 -1.039062 C 28.398438 -1.039062 28.636719 -0.960938 28.636719 -0.800781 C 28.558594 -0.640625 28.71875 -0.558594 28.796875 -0.480469 Z M 35.199219 0.398438 C 35.039062 0.398438 34.878906 0.160156 34.71875 0.078125 C 34.636719 0 34.476562 0.160156 34.476562 0.320312 C 34.398438 0.320312 34.476562 0.480469 34.558594 0.480469 C 34.71875 0.480469 34.796875 0.558594 34.878906 0.640625 C 34.957031 0.71875 35.117188 0.558594 35.199219 0.558594 Z M 26 -1.121094 C 26.160156 -1.121094 26.238281 -1.121094 26.316406 -1.28125 C 26.398438 -1.441406 26.476562 -1.441406 26.636719 -1.28125 C 26.957031 -1.039062 26.636719 -1.199219 26.558594 -1.121094 C 26.558594 -1.039062 26.558594 -0.800781 26.398438 -0.878906 C 26.160156 -0.878906 26 -0.960938 25.839844 -1.039062 C 25.757812 -1.039062 25.757812 -1.121094 25.757812 -1.121094 C 25.839844 -1.199219 25.917969 -1.199219 26 -1.121094 Z M 9.917969 -8.640625 C 9.839844 -8.640625 9.757812 -8.71875 9.757812 -8.800781 C 9.679688 -8.960938 9.679688 -9.039062 9.839844 -9.121094 C 10 -9.28125 10.238281 -9.199219 10.398438 -9.359375 C 10.480469 -9.4375 10.480469 -9.359375 10.480469 -9.28125 C 10.320312 -8.960938 10 -8.960938 9.917969 -8.640625 Z M 12.480469 -7.679688 C 12.480469 -7.679688 12.398438 -7.679688 12.398438 -7.757812 C 12.480469 -7.917969 12.480469 -8.078125 12.640625 -8.160156 C 12.71875 -8.238281 12.960938 -8.238281 12.960938 -8.160156 C 13.039062 -8 12.960938 -7.839844 13.039062 -7.757812 C 12.960938 -7.679688 12.878906 -7.679688 12.878906 -7.679688 C 12.71875 -7.757812 12.640625 -8 12.558594 -7.679688 Z M 16 -3.757812 C 16 -3.757812 15.917969 -3.757812 15.917969 -3.839844 C 16 -4 16 -4.238281 16.160156 -4.238281 C 16.480469 -4.238281 16.480469 -4.480469 16.640625 -4.640625 C 16.640625 -4.71875 16.640625 -4.800781 16.71875 -4.71875 C 16.71875 -4.71875 16.800781 -4.640625 16.71875 -4.558594 C 16.640625 -4.480469 16.640625 -4.160156 16.398438 -4.160156 C 16.238281 -4.078125 16.160156 -4 16.160156 -3.839844 C 16.160156 -3.757812 16.078125 -3.757812 16 -3.757812 Z M 20.957031 -16 C 20.878906 -16.078125 20.796875 -16.160156 20.878906 -16.238281 C 20.878906 -16.320312 20.957031 -16.480469 21.039062 -16.558594 C 21.039062 -16.640625 21.117188 -16.640625 21.117188 -16.640625 C 21.199219 -16.640625 21.199219 -16.558594 21.199219 -16.558594 C 21.117188 -16.238281 21.199219 -16.320312 21.359375 -16.398438 C 21.4375 -16.480469 21.519531 -16.480469 21.597656 -16.398438 C 21.597656 -16.320312 21.519531 -16.320312 21.519531 -16.238281 C 21.359375 -16.160156 21.277344 -16.238281 21.199219 -16.238281 C 21.039062 -16.160156 21.117188 -16.078125 20.957031 -16 Z M 20.238281 -19.839844 C 20.320312 -19.839844 20.320312 -19.839844 20.320312 -19.757812 C 20.480469 -19.519531 20.640625 -19.277344 20.957031 -19.519531 C 21.039062 -19.597656 21.117188 -19.597656 21.117188 -19.519531 C 21.117188 -19.519531 21.117188 -19.4375 21.039062 -19.4375 C 20.878906 -19.359375 20.71875 -19.277344 20.480469 -19.277344 C 20.398438 -19.199219 20.320312 -19.199219 20.398438 -19.359375 C 20.480469 -19.597656 20.160156 -19.519531 20.160156 -19.679688 C 20.160156 -19.757812 20.160156 -19.839844 20.238281 -19.839844 Z M 17.359375 -2.878906 C 17.359375 -2.800781 17.277344 -2.800781 17.277344 -2.878906 C 17.199219 -2.878906 17.117188 -2.960938 17.117188 -3.121094 C 17.039062 -3.28125 17.199219 -3.519531 17.039062 -3.679688 C 16.957031 -3.679688 17.039062 -3.757812 17.117188 -3.839844 L 17.199219 -3.757812 C 17.277344 -3.519531 17.199219 -3.199219 17.359375 -2.878906 Z M 33.199219 0.640625 L 33.199219 0.558594 Z M 33.199219 0.640625 "/></g></g></g></svg>