<svg xmlns="http://www.w3.org/2000/svg" xmlns:xlink="http://www.w3.org/1999/xlink" width="200" zoomAndPan="magnify" viewBox="0 0 150 149.999998" height="200" preserveAspectRatio="xMidYMid meet" version="1.0"><defs><g/></defs><rect x="-15" width="180" fill="#ffffff" y="-15" height="179.999997" fill-opacity="1"/><rect x="-15" width="180" fill="#1f2937" y="-15" height="179.999997" fill-opacity="1"/><g fill="#ffffff" fill-opacity="1"><g transform="translate(51.037503, 106.124996)"><g><path d="M 44.796875 -14.398438 C 45.039062 -14.398438 45.117188 -14.640625 45.195312 -14.800781 C 45.195312 -14.878906 45.277344 -14.960938 45.195312 -15.039062 C 45.117188 -15.117188 45.039062 -14.960938 44.957031 -14.878906 C 44.957031 -14.878906 44.878906 -14.800781 44.796875 -14.878906 C 44.796875 -14.960938 44.878906 -15.039062 44.957031 -15.039062 C 45.195312 -15.199219 45.355469 -15.4375 45.4375 -15.757812 C 45.515625 -16.71875 45.597656 -17.757812 45.597656 -18.71875 C 45.597656 -19.519531 45.515625 -20.238281 45.515625 -21.039062 C 45.515625 -21.359375 45.4375 -21.757812 45.355469 -22.160156 C 45.039062 -23.4375 44.558594 -24.71875 44.238281 -26 C 43.917969 -26.957031 43.515625 -27.757812 42.796875 -28.558594 C 42.71875 -28.636719 42.636719 -28.796875 42.476562 -28.878906 C 41.757812 -30 40.878906 -30.957031 39.835938 -31.839844 C 37.996094 -33.4375 35.917969 -34.636719 33.679688 -35.519531 C 32.878906 -35.835938 32.078125 -36.078125 31.199219 -36.316406 C 30.476562 -36.476562 29.839844 -36.71875 29.039062 -36.878906 C 28.71875 -36.878906 28.316406 -36.796875 27.917969 -36.878906 C 26.71875 -37.117188 25.359375 -37.199219 24.078125 -37.199219 C 23.117188 -37.277344 22.160156 -37.199219 21.199219 -37.117188 C 19.917969 -37.039062 18.640625 -36.878906 17.359375 -36.636719 C 16.640625 -36.476562 15.917969 -36.398438 15.117188 -36.398438 C 14.640625 -36.476562 14.558594 -36.558594 14.558594 -37.039062 L 14.558594 -37.835938 C 14.558594 -38.636719 14.71875 -38.878906 15.519531 -39.039062 C 16.71875 -39.277344 18 -39.359375 19.199219 -39.359375 C 21.039062 -39.359375 22.796875 -39.4375 24.636719 -39.359375 C 26.160156 -39.277344 27.757812 -39.359375 29.277344 -39.359375 C 30.636719 -39.277344 31.917969 -39.515625 33.199219 -39.515625 C 34.558594 -39.515625 35.917969 -39.597656 37.277344 -39.996094 C 38.558594 -40.316406 39.597656 -41.039062 40.078125 -42.398438 C 40.398438 -43.199219 40.476562 -43.917969 40.636719 -44.71875 L 40.878906 -47.355469 C 41.039062 -48.398438 41.117188 -49.4375 41.117188 -50.476562 C 41.117188 -51.195312 41.117188 -51.917969 41.199219 -52.636719 C 41.4375 -54.476562 41.597656 -56.316406 41.355469 -58.15625 C 41.277344 -59.117188 40.078125 -59.757812 39.277344 -59.117188 C 38.558594 -58.554688 37.835938 -58.15625 37.039062 -57.757812 C 35.917969 -57.195312 34.71875 -56.796875 33.519531 -56.554688 C 32.957031 -56.476562 32.476562 -56.394531 31.917969 -56.394531 C 30.636719 -56.238281 29.4375 -56.078125 28.160156 -55.996094 C 27.679688 -55.996094 27.277344 -56.078125 26.796875 -56.078125 C 26.078125 -56.078125 25.359375 -56.15625 24.558594 -55.996094 C 23.679688 -55.917969 22.71875 -56.078125 21.757812 -55.996094 C 21.199219 -55.996094 20.558594 -55.996094 20 -56.15625 C 19.839844 -56.15625 19.679688 -56.238281 19.519531 -56.238281 C 18.480469 -56.15625 17.519531 -56.238281 16.480469 -56.15625 L 15.679688 -56.15625 C 14.800781 -55.996094 13.917969 -55.996094 12.960938 -56.078125 C 12.320312 -56.15625 11.679688 -56.238281 11.039062 -56.15625 C 10.558594 -55.996094 10 -55.835938 9.519531 -55.835938 C 8.71875 -55.835938 7.917969 -55.675781 7.121094 -55.355469 C 6 -54.875 5.199219 -54.15625 4.800781 -53.117188 C 4.320312 -51.917969 4.160156 -50.636719 4.078125 -49.355469 C 4.078125 -48.476562 4.078125 -47.597656 4 -46.71875 C 3.917969 -46.078125 3.917969 -45.4375 3.917969 -44.796875 C 3.839844 -43.515625 3.917969 -42.15625 3.917969 -40.878906 C 3.839844 -40.15625 3.757812 -39.359375 3.757812 -38.636719 C 3.839844 -37.675781 3.917969 -36.636719 3.917969 -35.597656 C 3.839844 -33.359375 4 -31.117188 4.320312 -28.878906 C 4.480469 -27.359375 5.28125 -26.078125 6.558594 -25.199219 C 7.039062 -24.796875 7.679688 -24.398438 8.238281 -24.078125 C 9.199219 -23.4375 10.238281 -23.359375 11.359375 -24 C 12.558594 -24.636719 13.757812 -25.359375 14.960938 -25.917969 C 17.199219 -26.878906 19.4375 -27.199219 21.757812 -26.160156 L 22.398438 -25.917969 C 22.957031 -25.679688 23.519531 -25.519531 24 -25.117188 C 25.199219 -24.160156 26.078125 -22.878906 26.558594 -21.359375 C 26.878906 -20.160156 27.039062 -18.957031 26.957031 -17.757812 C 26.796875 -16.320312 26.636719 -14.960938 25.839844 -13.757812 L 25.679688 -13.519531 C 25.117188 -12.238281 24.320312 -11.199219 23.199219 -10.398438 C 22.480469 -9.839844 21.679688 -9.519531 20.796875 -9.359375 C 20.078125 -9.28125 19.4375 -9.359375 18.71875 -9.359375 C 18.160156 -9.28125 17.597656 -9.359375 17.039062 -9.597656 C 15.917969 -10 14.800781 -10.480469 13.839844 -11.359375 C 13.359375 -11.839844 12.71875 -12.160156 12.160156 -12.640625 C 10.878906 -13.597656 9.757812 -14.71875 8.398438 -15.597656 C 8.078125 -15.757812 7.757812 -16 7.28125 -15.917969 C 6.71875 -15.757812 6.160156 -15.519531 5.601562 -15.199219 L 4.480469 -14.398438 C 3.839844 -14.078125 3.28125 -13.597656 2.71875 -13.039062 C 2.558594 -12.878906 2.558594 -12.640625 2.480469 -12.640625 C 2.078125 -12.558594 2 -12.238281 1.839844 -12 C 1.519531 -11.597656 1.359375 -11.199219 1.199219 -10.800781 C 1.039062 -10 1.121094 -9.28125 1.519531 -8.558594 C 2.078125 -7.597656 2.800781 -6.800781 3.601562 -6.078125 C 4.800781 -5.039062 6 -4.160156 7.28125 -3.359375 L 9.597656 -2.078125 C 10.71875 -1.519531 11.839844 -0.878906 13.121094 -0.398438 C 14.320312 0.078125 15.679688 0.320312 16.957031 0.640625 C 18.160156 0.960938 19.359375 1.121094 20.558594 1.28125 C 20.957031 1.28125 21.359375 1.199219 21.757812 1.28125 C 22.71875 1.441406 23.679688 1.359375 24.71875 1.28125 C 26.316406 1.199219 27.917969 0.878906 29.519531 0.558594 C 30.078125 0.398438 30.636719 0.238281 31.199219 0 C 31.757812 -0.160156 32.238281 -0.398438 32.796875 -0.640625 C 34.558594 -1.359375 36.238281 -2.238281 37.757812 -3.359375 C 37.917969 -3.441406 38.15625 -3.519531 38.15625 -3.839844 C 38.398438 -3.679688 38.476562 -3.917969 38.636719 -4 C 39.199219 -4.480469 39.757812 -5.121094 40.238281 -5.601562 C 40.316406 -5.757812 40.398438 -5.839844 40.398438 -6 C 40.316406 -6.078125 40.476562 -6.238281 40.558594 -6.160156 C 40.796875 -6.160156 40.796875 -6.320312 40.957031 -6.398438 C 41.277344 -6.640625 41.4375 -6.960938 41.675781 -7.28125 C 42.15625 -7.757812 42.636719 -8.320312 42.878906 -8.960938 C 43.039062 -9.4375 43.355469 -9.839844 43.515625 -10.398438 C 43.675781 -10.878906 43.917969 -11.277344 44.15625 -11.757812 C 44.238281 -11.917969 44.238281 -12.078125 44.078125 -12.238281 C 43.917969 -12.398438 43.917969 -12.558594 44.238281 -12.640625 C 44.636719 -12.800781 44.636719 -12.800781 44.476562 -13.121094 C 44.398438 -13.199219 44.398438 -13.199219 44.476562 -13.277344 C 44.71875 -13.4375 44.558594 -13.519531 44.476562 -13.597656 C 44.636719 -13.519531 44.796875 -13.519531 44.796875 -13.679688 C 44.878906 -13.917969 45.117188 -14.160156 44.796875 -14.398438 Z M 16.320312 -52.957031 C 18.160156 -52.957031 19.917969 -53.035156 21.757812 -52.957031 C 23.757812 -52.796875 25.757812 -52.796875 27.757812 -52.796875 C 29.917969 -52.714844 31.996094 -53.035156 34.078125 -53.4375 C 34.957031 -53.675781 35.835938 -53.757812 36.796875 -53.757812 C 37.835938 -53.757812 37.835938 -53.515625 37.917969 -52.558594 C 37.996094 -51.355469 37.996094 -50.15625 37.917969 -48.957031 C 37.835938 -47.597656 37.597656 -46.15625 37.199219 -44.878906 C 36.957031 -43.996094 36.316406 -43.515625 35.519531 -43.199219 C 34.71875 -42.957031 33.835938 -42.878906 33.039062 -42.71875 C 31.757812 -42.476562 30.558594 -42.71875 29.359375 -42.476562 C 28.71875 -42.398438 28.238281 -42.636719 27.679688 -42.636719 C 26 -42.636719 24.320312 -42.71875 22.558594 -42.476562 C 21.679688 -42.398438 20.71875 -42.398438 19.839844 -42.558594 C 18.878906 -42.71875 17.917969 -42.636719 16.957031 -42.476562 C 16.640625 -42.398438 16.398438 -42.398438 16.078125 -42.398438 C 15.117188 -42.316406 14.238281 -42.238281 13.359375 -41.917969 C 12.078125 -41.515625 11.4375 -40.636719 11.359375 -39.277344 C 11.277344 -37.757812 11.277344 -36.15625 11.277344 -34.636719 C 11.277344 -34.15625 11.359375 -33.679688 11.519531 -33.199219 C 11.597656 -32.71875 12 -32.476562 12.480469 -32.398438 C 13.039062 -32.316406 13.597656 -32.476562 14.238281 -32.636719 C 16.238281 -33.117188 18.320312 -33.4375 20.398438 -33.917969 C 20.640625 -33.996094 20.957031 -33.996094 21.199219 -33.996094 C 22.796875 -34.078125 24.476562 -34.238281 26.078125 -34.078125 C 27.917969 -33.996094 29.679688 -33.757812 31.359375 -33.039062 C 32.476562 -32.636719 33.597656 -32.238281 34.636719 -31.679688 C 35.679688 -31.117188 36.71875 -30.476562 37.675781 -29.757812 C 39.515625 -28.160156 40.796875 -26.160156 41.675781 -23.839844 L 41.835938 -22.796875 C 41.917969 -22 42.078125 -21.117188 42.316406 -20.320312 C 42.398438 -20.160156 42.316406 -19.839844 42.476562 -19.679688 C 42.636719 -19.597656 42.71875 -19.597656 42.558594 -19.4375 C 42.316406 -19.199219 42.398438 -18.878906 42.398438 -18.558594 C 42.398438 -18.320312 42.476562 -18.160156 42.398438 -17.917969 C 42.238281 -17.4375 42.476562 -17.117188 42.796875 -16.800781 C 42.796875 -16.71875 42.957031 -16.640625 42.878906 -16.558594 C 42.71875 -16.320312 42.878906 -16.238281 43.039062 -16.160156 C 43.117188 -16.078125 43.117188 -16 43.039062 -16 C 43.039062 -15.917969 42.957031 -15.917969 42.878906 -16 C 42.71875 -16.160156 42.476562 -16.320312 42.398438 -16.640625 C 42.398438 -16.640625 42.398438 -16.71875 42.316406 -16.71875 L 42.316406 -16.640625 C 41.996094 -14.480469 41.277344 -12.480469 40.238281 -10.640625 C 40.078125 -10.480469 39.996094 -10.238281 39.917969 -10 C 39.835938 -9.757812 39.597656 -9.597656 39.4375 -9.359375 L 38.957031 -8.960938 L 38.796875 -8.398438 L 38.71875 -8.320312 C 38.476562 -8.398438 38.316406 -8.238281 38.15625 -8.078125 C 37.519531 -7.28125 36.796875 -6.558594 35.996094 -5.917969 C 35.277344 -5.359375 34.476562 -4.800781 33.597656 -4.320312 L 32.238281 -3.757812 C 31.519531 -3.601562 30.957031 -3.199219 30.238281 -2.960938 C 28.878906 -2.480469 27.519531 -2.078125 26 -2 L 24.238281 -1.761719 C 22.558594 -1.601562 20.878906 -1.761719 19.199219 -2 L 16.160156 -2.800781 C 14.800781 -3.121094 13.597656 -3.679688 12.320312 -4.238281 C 11.199219 -4.640625 10.160156 -5.28125 9.039062 -5.757812 C 8.398438 -6 7.917969 -6.398438 7.441406 -6.800781 C 6.960938 -7.121094 6.480469 -7.441406 6 -7.839844 C 5.601562 -8.238281 5.359375 -8.640625 5.199219 -9.121094 C 5.121094 -9.199219 5.121094 -9.359375 4.960938 -9.359375 C 4.878906 -9.4375 4.71875 -9.359375 4.71875 -9.519531 C 4.71875 -9.679688 4.878906 -9.4375 4.960938 -9.519531 C 5.039062 -9.519531 4.960938 -9.597656 4.960938 -9.679688 C 4.878906 -10.238281 5.199219 -10.71875 5.519531 -11.121094 C 5.839844 -11.519531 6.320312 -11.679688 6.71875 -12 C 6.800781 -12.078125 6.878906 -12.160156 7.039062 -12.078125 C 7.359375 -12.078125 7.597656 -11.839844 7.839844 -11.679688 C 8.960938 -10.71875 10.160156 -9.917969 11.359375 -9.199219 C 12 -8.71875 12.558594 -8.320312 13.277344 -8 C 14.640625 -7.199219 16 -6.480469 17.597656 -6.320312 C 19.117188 -6.160156 20.640625 -6.160156 22.160156 -6.398438 C 22.480469 -6.480469 22.796875 -6.71875 23.117188 -6.800781 C 24.238281 -7.359375 25.277344 -8 26.078125 -8.878906 C 26.796875 -9.597656 27.359375 -10.320312 27.917969 -11.121094 C 28.878906 -12.320312 29.4375 -13.757812 29.757812 -15.277344 C 29.917969 -16.078125 30.078125 -16.878906 30.15625 -17.597656 C 30.238281 -18.558594 30.15625 -19.519531 29.917969 -20.398438 C 29.757812 -21.277344 29.597656 -22.160156 29.359375 -23.039062 C 29.117188 -24 28.71875 -24.71875 28.078125 -25.4375 C 27.359375 -26.316406 26.636719 -27.199219 25.679688 -27.839844 C 24.71875 -28.558594 23.679688 -29.039062 22.480469 -29.359375 C 21.359375 -29.679688 20.238281 -29.839844 19.117188 -29.839844 C 18.238281 -29.839844 17.359375 -29.839844 16.558594 -29.679688 C 16.078125 -29.519531 15.597656 -29.4375 15.039062 -29.359375 C 14.480469 -29.277344 14 -29.039062 13.519531 -28.796875 C 12.558594 -28.238281 11.4375 -27.757812 10.398438 -27.199219 C 9.839844 -26.957031 9.359375 -27.039062 8.878906 -27.4375 C 8.800781 -27.519531 8.71875 -27.597656 8.558594 -27.597656 C 7.679688 -28.160156 7.359375 -28.957031 7.28125 -30 C 7.121094 -31.117188 7.199219 -32.238281 7.199219 -33.359375 C 7.121094 -34.316406 7.359375 -35.199219 7.199219 -36.15625 C 7.121094 -36.796875 7.121094 -37.4375 7.121094 -37.996094 C 7.121094 -38.316406 7.121094 -38.636719 7.039062 -39.039062 L 7.039062 -40.796875 C 7.039062 -41.4375 6.960938 -42.078125 7.039062 -42.71875 C 7.039062 -43.597656 7.039062 -44.558594 7.121094 -45.4375 L 7.359375 -48.476562 C 7.519531 -49.757812 7.839844 -50.875 8.878906 -51.835938 C 9.28125 -52.238281 9.757812 -52.398438 10.320312 -52.558594 C 10.878906 -52.714844 11.519531 -52.796875 12.160156 -52.875 C 13.519531 -53.035156 14.960938 -52.957031 16.320312 -52.957031 Z M 37.835938 -55.515625 C 37.757812 -55.675781 37.996094 -55.917969 37.835938 -55.996094 C 37.597656 -56.078125 37.519531 -55.835938 37.4375 -55.757812 L 37.117188 -55.597656 C 37.117188 -55.597656 36.957031 -55.675781 37.039062 -55.675781 C 37.199219 -55.996094 36.878906 -56.15625 36.957031 -56.394531 C 36.957031 -56.554688 37.039062 -56.636719 37.117188 -56.714844 C 37.277344 -56.714844 37.277344 -56.554688 37.277344 -56.476562 C 37.277344 -56.394531 37.277344 -56.238281 37.359375 -56.238281 C 37.519531 -56.238281 37.519531 -56.316406 37.597656 -56.476562 C 37.675781 -56.554688 37.675781 -56.636719 37.757812 -56.636719 C 37.835938 -56.554688 37.835938 -56.554688 37.835938 -56.476562 C 37.917969 -56.394531 37.675781 -56.316406 37.835938 -56.238281 C 37.996094 -56.238281 38.078125 -56.316406 38.15625 -56.394531 C 38.15625 -56.476562 38.238281 -56.554688 38.15625 -56.636719 C 37.996094 -57.035156 38.476562 -57.035156 38.558594 -57.277344 C 38.558594 -57.277344 38.636719 -57.277344 38.636719 -57.195312 C 38.636719 -57.117188 38.71875 -57.035156 38.71875 -56.957031 C 38.71875 -56.796875 38.796875 -56.714844 38.878906 -56.714844 C 39.039062 -56.636719 38.957031 -56.796875 39.039062 -56.875 C 39.117188 -56.957031 39.117188 -56.957031 39.199219 -56.875 C 39.199219 -56.796875 39.199219 -56.714844 39.277344 -56.714844 C 39.597656 -56.714844 39.597656 -56.636719 39.359375 -56.476562 C 39.117188 -56.476562 39.117188 -56.316406 39.117188 -56.238281 C 39.117188 -55.996094 39.199219 -55.996094 39.359375 -56.078125 C 39.597656 -56.15625 39.757812 -56.316406 39.835938 -56.476562 C 39.917969 -56.554688 39.996094 -56.554688 40.078125 -56.476562 C 40.078125 -56.394531 40.238281 -56.316406 40.15625 -56.238281 C 39.996094 -55.996094 39.675781 -55.835938 40.078125 -55.597656 C 40.15625 -55.597656 40.078125 -55.4375 40.15625 -55.355469 C 40.15625 -55.277344 40.316406 -55.117188 40.15625 -55.035156 C 40.078125 -55.035156 39.996094 -55.035156 39.996094 -55.117188 C 39.917969 -55.117188 39.917969 -55.195312 39.835938 -55.195312 C 39.757812 -55.117188 39.835938 -55.035156 39.835938 -55.035156 C 39.917969 -54.875 40.15625 -54.796875 40.078125 -54.636719 C 39.996094 -54.476562 39.757812 -54.554688 39.597656 -54.554688 C 39.4375 -54.476562 39.4375 -54.636719 39.4375 -54.714844 C 39.4375 -54.796875 39.4375 -54.875 39.359375 -54.875 C 39.199219 -54.875 39.199219 -54.796875 39.199219 -54.714844 C 39.199219 -54.398438 39.4375 -54.238281 39.675781 -54.078125 C 39.757812 -54.078125 39.757812 -53.917969 39.835938 -53.835938 C 39.835938 -53.757812 39.835938 -53.757812 39.757812 -53.675781 C 39.675781 -53.675781 39.597656 -53.675781 39.597656 -53.757812 C 39.515625 -53.917969 39.117188 -53.835938 39.199219 -54.238281 C 39.199219 -54.316406 38.957031 -54.316406 38.796875 -54.316406 C 38.71875 -54.316406 38.636719 -54.238281 38.476562 -54.316406 C 38.398438 -54.316406 38.238281 -54.316406 38.316406 -54.476562 C 38.316406 -54.554688 38.398438 -54.636719 38.316406 -54.636719 C 37.757812 -54.714844 37.835938 -55.035156 37.835938 -55.4375 Z M 42.558594 -11.121094 C 42.476562 -11.039062 42.476562 -10.960938 42.476562 -10.960938 C 42.398438 -10.71875 42.476562 -10.480469 42.636719 -10.238281 C 42.636719 -10.238281 42.71875 -10.078125 42.636719 -10.078125 C 42.558594 -10 42.476562 -10.078125 42.476562 -10.160156 C 42.476562 -10.238281 42.476562 -10.320312 42.316406 -10.238281 C 41.996094 -10.078125 41.757812 -10.160156 41.4375 -10.398438 C 41.355469 -10.558594 41.277344 -10.640625 41.4375 -10.800781 C 41.4375 -10.878906 41.355469 -11.121094 41.355469 -11.359375 C 41.355469 -11.359375 41.277344 -11.359375 41.277344 -11.4375 C 41.4375 -11.679688 41.4375 -11.679688 41.355469 -11.917969 C 41.277344 -12 41.277344 -12.078125 41.355469 -12.078125 C 41.4375 -12.160156 41.515625 -12.160156 41.515625 -12.078125 C 41.675781 -11.679688 41.996094 -11.839844 42.316406 -11.917969 L 42.636719 -11.917969 L 42.316406 -12.160156 C 42.15625 -12.238281 42.078125 -12.320312 42.078125 -12.480469 C 41.996094 -12.71875 42.078125 -12.878906 41.835938 -12.960938 C 41.835938 -13.039062 41.835938 -13.121094 41.917969 -13.121094 C 41.917969 -13.199219 41.996094 -13.121094 42.078125 -13.121094 L 42.316406 -12.878906 C 42.558594 -12.878906 42.476562 -13.199219 42.71875 -13.121094 C 42.878906 -13.039062 42.957031 -12.878906 43.039062 -12.800781 C 43.199219 -12.800781 43.199219 -13.121094 43.355469 -12.878906 C 43.4375 -12.71875 43.675781 -12.640625 43.355469 -12.558594 C 43.199219 -12.480469 43.199219 -12.320312 43.199219 -12.160156 C 43.199219 -11.917969 43.117188 -11.757812 42.957031 -11.679688 C 42.796875 -11.597656 42.71875 -11.519531 42.636719 -11.597656 C 42.558594 -11.679688 42.71875 -11.839844 42.71875 -11.917969 C 42.316406 -11.679688 42.316406 -11.679688 42.476562 -11.359375 C 42.476562 -11.277344 42.476562 -11.199219 42.558594 -11.121094 Z M 40.71875 -9.679688 C 40.71875 -9.679688 40.636719 -9.757812 40.636719 -9.839844 C 40.558594 -9.917969 40.476562 -10.160156 40.636719 -10.160156 C 40.796875 -10.238281 40.878906 -10.078125 40.957031 -10 C 41.117188 -9.679688 41.515625 -9.839844 41.675781 -9.597656 C 41.675781 -9.519531 41.757812 -9.597656 41.757812 -9.679688 C 41.757812 -9.757812 41.757812 -9.839844 41.917969 -9.917969 C 41.996094 -9.917969 41.996094 -9.757812 42.078125 -9.679688 C 42.078125 -9.597656 41.917969 -8.960938 41.835938 -8.960938 C 41.757812 -8.878906 41.675781 -8.878906 41.597656 -8.960938 C 41.4375 -9.121094 41.199219 -9.039062 40.957031 -9.121094 C 41.117188 -8.960938 41.199219 -8.71875 41.277344 -8.480469 C 41.277344 -8.238281 41.199219 -8.160156 40.878906 -8.238281 C 40.636719 -8.320312 40.636719 -8.320312 40.636719 -8 L 40.636719 -7.757812 C 40.636719 -7.757812 40.636719 -7.679688 40.476562 -7.679688 C 40.476562 -7.679688 40.398438 -7.679688 40.398438 -7.757812 C 40.398438 -8.078125 40.238281 -8.238281 39.996094 -8.398438 C 39.757812 -8.480469 40.078125 -8.71875 39.917969 -8.878906 L 40.078125 -8.878906 C 40.316406 -8.480469 40.398438 -8.800781 40.476562 -8.960938 C 40.558594 -9.121094 40.558594 -9.199219 40.71875 -9.121094 C 40.558594 -9.199219 40.476562 -9.28125 40.476562 -9.4375 C 40.476562 -9.519531 40.398438 -9.597656 40.316406 -9.519531 C 40.238281 -9.519531 40.15625 -9.597656 40.078125 -9.597656 C 40.078125 -9.757812 40.238281 -9.757812 40.316406 -9.757812 C 40.476562 -9.839844 40.558594 -9.757812 40.71875 -9.679688 Z M 6.71875 -52.636719 C 6.558594 -52.875 6.878906 -52.796875 6.960938 -52.875 C 7.039062 -53.035156 7.039062 -52.875 7.121094 -52.796875 C 7.121094 -52.714844 7.121094 -52.636719 7.039062 -52.558594 C 6.878906 -52.398438 6.878906 -52.15625 7.039062 -51.917969 C 7.121094 -51.917969 7.121094 -51.835938 7.039062 -51.835938 L 6.960938 -51.835938 C 6.800781 -52.078125 6.558594 -52.15625 6.398438 -51.917969 C 6.320312 -51.835938 6.320312 -51.835938 6.238281 -51.917969 L 6.238281 -51.996094 C 6.398438 -52.316406 6.320312 -52.316406 6.078125 -52.238281 C 5.839844 -52.15625 5.839844 -52.238281 5.917969 -52.398438 L 5.917969 -52.636719 C 6 -52.796875 6.238281 -52.875 6.398438 -52.714844 C 6.398438 -52.636719 6.480469 -52.558594 6.480469 -52.476562 C 6.480469 -52.398438 6.480469 -52.316406 6.640625 -52.316406 C 6.71875 -52.398438 6.71875 -52.476562 6.71875 -52.558594 Z M 42.558594 -11.121094 C 42.476562 -11.039062 42.476562 -10.960938 42.476562 -10.960938 L 42.15625 -10.558594 C 42.15625 -10.480469 42.078125 -10.398438 41.917969 -10.398438 C 41.757812 -10.480469 41.675781 -10.558594 41.675781 -10.71875 C 41.675781 -10.960938 41.917969 -11.121094 41.757812 -11.359375 C 41.757812 -11.4375 41.835938 -11.4375 41.835938 -11.4375 C 41.996094 -11.121094 42.316406 -11.597656 42.476562 -11.359375 C 42.476562 -11.277344 42.476562 -11.199219 42.558594 -11.121094 Z M 43.199219 -14.558594 C 43.117188 -14.558594 43.039062 -14.398438 43.039062 -14.558594 C 42.957031 -14.640625 43.117188 -14.800781 43.199219 -14.71875 C 43.4375 -14.71875 43.515625 -14.71875 43.4375 -15.039062 C 43.4375 -15.117188 43.597656 -15.117188 43.757812 -15.117188 C 43.917969 -15.039062 43.917969 -14.960938 43.835938 -14.878906 C 43.675781 -14.71875 43.757812 -14.640625 43.917969 -14.640625 C 43.996094 -14.558594 44.078125 -14.558594 44.078125 -14.480469 C 44.078125 -14.398438 43.917969 -14.398438 43.835938 -14.398438 C 43.757812 -14.398438 43.597656 -14.398438 43.515625 -14.480469 C 43.355469 -14.558594 43.277344 -14.558594 43.199219 -14.558594 Z M 8 -54.078125 C 8.160156 -53.996094 8.320312 -53.835938 8.398438 -54.078125 C 8.398438 -54.15625 8.480469 -53.996094 8.558594 -53.996094 C 8.640625 -53.917969 8.640625 -53.835938 8.558594 -53.835938 C 8.398438 -53.757812 8.398438 -53.597656 8.398438 -53.4375 C 8.398438 -53.277344 8.398438 -53.195312 8.238281 -53.117188 C 8.160156 -53.035156 8.078125 -53.117188 8.078125 -53.195312 C 8.078125 -53.4375 8 -53.675781 7.917969 -53.917969 C 7.917969 -53.996094 7.917969 -54.078125 8 -54.078125 Z M 45.117188 -16.160156 C 44.796875 -16.078125 44.558594 -15.917969 44.316406 -16 C 44.398438 -16.078125 44.636719 -16.238281 44.398438 -16.398438 C 44.398438 -16.480469 44.398438 -16.640625 44.476562 -16.640625 C 44.71875 -16.558594 44.957031 -16.558594 45.117188 -16.398438 C 45.195312 -16.320312 45.195312 -16.238281 45.117188 -16.160156 Z M 35.277344 -3.917969 C 35.277344 -3.839844 35.199219 -3.757812 35.199219 -3.679688 C 35.117188 -3.601562 35.277344 -3.441406 35.039062 -3.441406 C 34.957031 -3.441406 34.796875 -3.757812 34.878906 -3.839844 C 34.957031 -4 35.117188 -4.078125 34.878906 -4.238281 L 34.878906 -4.320312 C 34.957031 -4.398438 34.957031 -4.398438 35.039062 -4.398438 C 35.117188 -4.320312 35.277344 -4.078125 35.277344 -3.917969 Z M 44.476562 -13.597656 C 44.398438 -13.597656 44.316406 -13.597656 44.316406 -13.519531 C 44.238281 -13.519531 44.238281 -13.4375 44.15625 -13.519531 L 44.15625 -13.679688 C 44.398438 -13.917969 44.558594 -14.078125 44.398438 -14.398438 C 44.398438 -14.480469 44.476562 -14.558594 44.558594 -14.558594 L 44.796875 -14.398438 C 44.636719 -14.160156 44.558594 -13.917969 44.476562 -13.679688 L 44.476562 -13.597656 L 44.476562 -13.679688 Z M 24.71875 -9.839844 C 24.796875 -9.839844 24.878906 -9.839844 24.957031 -9.757812 C 24.957031 -9.679688 24.878906 -9.597656 24.796875 -9.597656 C 24.636719 -9.597656 24.71875 -9.519531 24.796875 -9.4375 C 24.796875 -9.359375 24.796875 -9.28125 24.71875 -9.28125 C 24.636719 -9.199219 24.558594 -9.199219 24.476562 -9.199219 C 24.398438 -9.28125 24.476562 -9.28125 24.476562 -9.359375 C 24.558594 -9.4375 24.558594 -9.519531 24.476562 -9.597656 C 24.398438 -9.757812 24.476562 -9.839844 24.71875 -9.839844 Z M 21.839844 -34.957031 C 21.839844 -34.878906 21.839844 -34.796875 21.757812 -34.71875 C 21.679688 -34.71875 21.597656 -34.636719 21.597656 -34.636719 C 21.519531 -34.636719 21.519531 -34.71875 21.519531 -34.796875 C 21.597656 -34.957031 21.519531 -35.117188 21.277344 -35.039062 C 21.199219 -35.039062 21.199219 -35.117188 21.199219 -35.199219 C 21.199219 -35.277344 21.277344 -35.277344 21.359375 -35.199219 C 21.4375 -35.199219 21.519531 -35.117188 21.519531 -35.199219 C 21.839844 -35.277344 21.839844 -35.117188 21.839844 -34.957031 Z M 36.71875 -55.835938 C 36.796875 -55.757812 36.878906 -55.597656 36.796875 -55.4375 C 36.71875 -55.355469 36.636719 -55.035156 36.398438 -55.117188 C 36.316406 -55.117188 36.316406 -55.195312 36.238281 -55.195312 C 36.238281 -55.195312 36.238281 -55.277344 36.316406 -55.277344 C 36.636719 -55.277344 36.558594 -55.515625 36.558594 -55.757812 C 36.558594 -55.835938 36.558594 -55.835938 36.636719 -55.835938 Z M 43.757812 -16 C 43.996094 -16.078125 44.078125 -15.839844 44.238281 -15.917969 C 44.238281 -15.757812 44.316406 -15.679688 44.238281 -15.597656 C 44.15625 -15.4375 43.917969 -15.4375 43.835938 -15.597656 C 43.835938 -15.679688 43.996094 -15.917969 43.675781 -15.917969 Z M 39.757812 -6.960938 C 39.835938 -7.121094 39.675781 -7.199219 39.515625 -7.28125 C 39.4375 -7.28125 39.4375 -7.28125 39.4375 -7.359375 C 39.4375 -7.441406 39.515625 -7.441406 39.515625 -7.359375 C 39.757812 -7.359375 39.996094 -7.359375 39.835938 -7.039062 C 39.835938 -6.878906 39.917969 -6.800781 40.078125 -6.71875 C 40.15625 -6.71875 40.15625 -6.640625 40.078125 -6.558594 C 39.996094 -6.480469 39.917969 -6.480469 39.917969 -6.558594 C 39.835938 -6.71875 39.597656 -6.71875 39.757812 -6.960938 Z M 7.359375 -51.675781 C 7.441406 -51.835938 7.28125 -51.917969 7.199219 -52.078125 C 7.199219 -52.15625 7.121094 -52.238281 7.199219 -52.238281 C 7.359375 -52.316406 7.441406 -52.238281 7.441406 -52.15625 C 7.597656 -51.996094 7.597656 -51.835938 7.519531 -51.675781 C 7.519531 -51.597656 7.441406 -51.515625 7.359375 -51.515625 C 7.28125 -51.515625 7.359375 -51.597656 7.359375 -51.675781 Z M 29.519531 -1.28125 C 29.359375 -1.039062 29.359375 -0.71875 29.4375 -0.480469 C 29.359375 -0.398438 29.359375 -0.320312 29.277344 -0.320312 C 29.199219 -0.320312 29.277344 -0.480469 29.277344 -0.480469 C 29.199219 -0.640625 29.117188 -0.800781 29.277344 -0.960938 C 29.359375 -1.039062 29.4375 -1.121094 29.359375 -1.28125 C 29.277344 -1.359375 29.359375 -1.359375 29.4375 -1.359375 C 29.519531 -1.359375 29.519531 -1.359375 29.519531 -1.28125 Z M 42.71875 -11.917969 L 42.636719 -11.917969 Z M 42.71875 -11.917969 "/></g></g></g></svg>