<svg xmlns="http://www.w3.org/2000/svg" xmlns:xlink="http://www.w3.org/1999/xlink" width="200" zoomAndPan="magnify" viewBox="0 0 150 149.999998" height="200" preserveAspectRatio="xMidYMid meet" version="1.0"><defs><g/></defs><rect x="-15" width="180" fill="#ffffff" y="-15" height="179.999997" fill-opacity="1"/><rect x="-15" width="180" fill="#1f2937" y="-15" height="179.999997" fill-opacity="1"/><g fill="#ffffff" fill-opacity="1"><g transform="translate(58.28125, 106.125025)"><g><path d="M 24.320312 -11.839844 C 24.476562 -11.679688 24.636719 -11.839844 24.796875 -11.839844 C 24.878906 -11.917969 24.796875 -12.078125 24.796875 -12.238281 C 24.878906 -12.398438 24.957031 -12.558594 25.199219 -12.558594 C 25.277344 -12.558594 25.359375 -12.640625 25.359375 -12.800781 L 25.359375 -14.480469 C 25.359375 -14.71875 25.117188 -14.878906 24.957031 -14.878906 C 24.796875 -14.800781 24.476562 -14.800781 24.398438 -14.480469 C 24.320312 -14.398438 24.238281 -14.320312 24.238281 -14.160156 C 24.160156 -14.160156 24.160156 -14.078125 24.078125 -14.078125 C 24 -14.160156 24.078125 -14.238281 24.078125 -14.238281 C 24.078125 -14.480469 24.160156 -14.71875 24 -14.960938 C 23.917969 -15.039062 24 -15.199219 24.078125 -15.199219 C 24.238281 -15.277344 24.238281 -15.117188 24.238281 -15.039062 C 24.238281 -14.960938 24.320312 -15.039062 24.398438 -15.039062 C 24.636719 -15.117188 24.878906 -15.199219 25.117188 -15.039062 L 25.199219 -15.039062 C 25.199219 -15.199219 25.277344 -15.359375 25.199219 -15.4375 C 25.199219 -15.519531 25.117188 -15.519531 25.039062 -15.4375 C 24.957031 -15.4375 24.878906 -15.359375 24.796875 -15.519531 C 24.796875 -15.597656 24.878906 -15.597656 24.957031 -15.597656 C 25.117188 -15.679688 25.277344 -15.839844 25.199219 -16.078125 C 25.117188 -16.320312 25.359375 -16.558594 25.199219 -16.800781 C 24.957031 -17.117188 25.277344 -17.277344 25.277344 -17.519531 C 25.277344 -17.917969 25.359375 -18.320312 25.359375 -18.71875 L 25.359375 -23.117188 C 25.359375 -24 25.359375 -24.878906 25.277344 -25.757812 C 25.199219 -27.4375 25.117188 -29.039062 25.359375 -30.636719 L 25.359375 -33.039062 C 25.359375 -33.996094 25.4375 -34.957031 25.277344 -35.917969 C 25.117188 -36.878906 25.117188 -37.835938 25.277344 -38.71875 C 25.359375 -39.597656 25.4375 -40.398438 25.359375 -41.277344 C 25.277344 -41.597656 25.199219 -41.996094 25.199219 -42.398438 L 25.199219 -49.117188 L 24.957031 -52.636719 C 24.878906 -53.355469 24.796875 -54.078125 24.636719 -54.714844 C 24.398438 -55.675781 23.917969 -56.078125 22.957031 -56.15625 L 22.71875 -56.15625 C 21.597656 -56.15625 20.480469 -56.078125 19.4375 -55.757812 C 18.480469 -55.4375 17.4375 -55.117188 16.480469 -54.714844 C 15.757812 -54.398438 15.039062 -54.078125 14.320312 -53.675781 C 13.359375 -53.195312 12.238281 -52.875 11.277344 -52.316406 C 10.640625 -51.996094 10 -51.597656 9.28125 -51.277344 L 5.839844 -49.597656 C 5.121094 -49.195312 4.480469 -48.875 3.917969 -48.316406 C 3.199219 -47.675781 3.28125 -46.558594 4.078125 -46.078125 C 4.960938 -45.597656 5.601562 -44.957031 6.160156 -44.15625 C 6.71875 -43.515625 7.121094 -42.71875 7.441406 -41.835938 C 7.679688 -41.199219 7.757812 -40.476562 7.839844 -39.757812 C 7.917969 -39.597656 7.757812 -39.359375 8.078125 -39.359375 C 8.238281 -39.359375 8.160156 -39.277344 8.078125 -39.277344 C 7.917969 -39.277344 7.917969 -39.199219 7.917969 -39.039062 C 8 -38.878906 8 -38.71875 8 -38.476562 C 8.078125 -37.757812 8.160156 -37.039062 8.078125 -36.316406 C 8 -35.757812 7.917969 -35.199219 8 -34.636719 C 8 -33.996094 8.160156 -33.277344 8.160156 -32.558594 C 8.078125 -31.277344 8.160156 -30 8.160156 -28.71875 C 8.078125 -26.160156 8.160156 -23.519531 8 -20.957031 C 7.917969 -20.238281 8.078125 -19.597656 8.078125 -18.957031 L 8.078125 -17.4375 C 8.160156 -16.640625 8.160156 -15.757812 8.160156 -14.960938 C 8.078125 -14.078125 7.917969 -13.121094 8.078125 -12.238281 C 8.238281 -11.359375 8 -10.558594 7.917969 -9.757812 C 7.917969 -9.4375 8 -9.039062 7.917969 -8.800781 C 7.679688 -8.160156 7.519531 -7.519531 7.359375 -6.878906 C 7.039062 -5.359375 6.480469 -3.917969 5.359375 -2.71875 C 4.960938 -2.238281 4.878906 -1.761719 4.960938 -1.199219 C 5.039062 -0.878906 5.121094 -0.640625 5.441406 -0.398438 C 5.917969 0 6.558594 0.078125 7.121094 0.078125 C 8.238281 0.078125 9.359375 0.238281 10.398438 0.160156 C 10.640625 0.160156 10.878906 0 11.039062 0.078125 C 11.519531 0.238281 11.917969 0.160156 12.320312 0.160156 C 13.4375 0.160156 14.640625 0.238281 15.757812 0.160156 C 16.71875 0.078125 17.679688 0.160156 18.640625 0 C 18.957031 0 19.277344 0.078125 19.597656 0 C 19.917969 0 20.238281 0.160156 20.558594 0 C 20.796875 -0.160156 21.117188 0.160156 21.4375 0 C 21.597656 0 21.839844 0.160156 21.839844 -0.160156 C 21.839844 -0.238281 22 -0.160156 22 -0.160156 C 22.078125 0.160156 22.320312 0.078125 22.558594 0.078125 C 23.597656 0.078125 24.558594 0.078125 25.597656 0 C 26.238281 0 26.957031 0 27.597656 -0.160156 C 28 -0.238281 28.398438 -0.480469 28.476562 -0.960938 C 28.636719 -1.441406 28.71875 -2 28.316406 -2.480469 C 28.160156 -2.640625 28.078125 -2.800781 28 -2.960938 C 27.597656 -3.441406 27.277344 -3.839844 27.117188 -4.320312 C 26.878906 -4.800781 26.558594 -5.199219 26.398438 -5.757812 C 26.316406 -6.078125 26.160156 -6.398438 26.078125 -6.800781 C 25.757812 -8.160156 25.4375 -9.519531 25.359375 -10.878906 C 25.359375 -11.121094 25.277344 -11.277344 24.957031 -11.277344 C 24.636719 -11.277344 24.476562 -11.519531 24.320312 -11.839844 Z M 22.078125 -47.996094 C 22.238281 -45.597656 22.078125 -43.117188 22.160156 -40.71875 L 22.160156 -40.316406 C 22 -39.4375 22 -38.476562 22.078125 -37.519531 C 22.160156 -36.636719 22.160156 -35.835938 22.078125 -35.039062 C 22.078125 -34.476562 22.238281 -33.996094 22.238281 -33.4375 C 22.238281 -32.71875 22.160156 -31.917969 22.078125 -31.199219 C 22 -30.636719 22 -30 22.078125 -29.4375 C 22.160156 -28.878906 22.160156 -28.316406 22.160156 -27.757812 C 22.160156 -26.316406 22.078125 -24.878906 22.160156 -23.4375 C 22.238281 -21.839844 22.078125 -20.238281 22.160156 -18.71875 C 22.160156 -17.917969 22.078125 -17.199219 22 -16.480469 C 21.917969 -15.4375 22 -14.398438 22 -13.359375 C 22 -12.480469 22.078125 -11.597656 22.160156 -10.71875 C 22.160156 -10.558594 22.160156 -10.398438 22.238281 -10.480469 C 22.796875 -10.480469 22.398438 -10.238281 22.398438 -10.160156 C 22.160156 -9.839844 22.320312 -9.519531 22.320312 -9.28125 C 22.320312 -9.039062 22.398438 -9.28125 22.480469 -9.28125 C 22.558594 -9.28125 22.636719 -9.359375 22.636719 -9.28125 C 22.71875 -9.28125 22.636719 -9.199219 22.558594 -9.199219 C 22.480469 -9.039062 22.398438 -8.800781 22.398438 -8.640625 L 22.398438 -8.558594 C 22.480469 -8.398438 22.636719 -8.640625 22.71875 -8.480469 C 22.71875 -8.398438 22.480469 -8.320312 22.480469 -8.160156 L 22.480469 -8 C 22.796875 -7.839844 22.71875 -7.519531 22.71875 -7.28125 C 22.71875 -6.480469 23.039062 -5.679688 23.117188 -4.878906 C 23.199219 -4.320312 22.957031 -3.839844 22.636719 -3.441406 C 22.398438 -3.199219 22.078125 -3.28125 21.839844 -3.121094 C 21.039062 -3.199219 20.238281 -3.039062 19.359375 -3.039062 C 18.558594 -3.121094 17.757812 -3.121094 16.878906 -3.039062 C 15.839844 -2.960938 14.800781 -2.960938 13.757812 -3.039062 L 11.199219 -3.359375 C 10.960938 -3.359375 10.71875 -3.679688 10.398438 -3.601562 C 10.398438 -3.601562 10.320312 -3.601562 10.320312 -3.679688 C 10.480469 -4.160156 10.320312 -4.640625 10.398438 -5.121094 C 10.558594 -5.601562 10.558594 -6.160156 10.558594 -6.640625 L 10.558594 -6.71875 C 10.800781 -6.878906 10.480469 -7.121094 10.71875 -7.28125 C 10.878906 -7.359375 10.800781 -7.679688 10.800781 -7.917969 C 10.878906 -8.078125 10.960938 -8.320312 10.800781 -8.480469 L 10.800781 -8.558594 C 11.359375 -9.519531 11.359375 -10.558594 11.277344 -11.679688 C 11.199219 -12.480469 11.199219 -13.359375 11.199219 -14.238281 C 11.199219 -15.757812 11.277344 -17.277344 11.277344 -18.796875 C 11.199219 -20.957031 11.199219 -23.039062 11.277344 -25.199219 C 11.277344 -26.160156 11.359375 -27.117188 11.277344 -28.078125 C 11.277344 -28.476562 11.199219 -28.957031 11.277344 -29.4375 C 11.277344 -30.398438 11.277344 -31.277344 11.4375 -32.238281 C 11.4375 -32.636719 11.359375 -33.117188 11.359375 -33.519531 C 11.277344 -34.796875 11.359375 -36.078125 11.359375 -37.359375 C 11.359375 -38.238281 11.277344 -39.117188 11.039062 -39.996094 C 10.800781 -41.039062 10.640625 -42.15625 10.398438 -43.117188 L 9.597656 -45.675781 C 9.519531 -46.078125 9.519531 -46.476562 9.597656 -46.796875 C 9.679688 -47.355469 9.917969 -47.757812 10.398438 -48.078125 C 11.277344 -48.71875 12.320312 -49.195312 13.277344 -49.675781 C 15.519531 -50.796875 17.839844 -51.757812 20.078125 -52.796875 C 20.398438 -52.875 20.640625 -52.875 20.878906 -52.796875 L 21.277344 -52.796875 C 21.757812 -52.875 21.839844 -52.558594 21.917969 -52.15625 C 22.078125 -50.796875 22.078125 -49.355469 22.078125 -47.996094 Z M 5.839844 -45.757812 C 5.679688 -45.996094 5.519531 -46.15625 5.757812 -46.398438 C 5.839844 -46.476562 5.839844 -46.71875 5.757812 -46.796875 C 5.601562 -47.035156 5.757812 -47.195312 5.839844 -47.355469 C 6 -47.4375 6 -47.597656 6.238281 -47.4375 C 6.398438 -47.355469 6.480469 -47.355469 6.398438 -47.675781 C 6.398438 -47.835938 6.558594 -47.996094 6.398438 -48.238281 C 6.398438 -48.238281 6.398438 -48.316406 6.480469 -48.316406 C 6.558594 -48.398438 6.558594 -48.316406 6.640625 -48.316406 C 6.71875 -47.996094 6.800781 -48.15625 6.878906 -48.316406 C 6.960938 -48.316406 7.039062 -48.398438 7.039062 -48.476562 C 7.121094 -48.476562 7.199219 -48.558594 7.199219 -48.476562 C 7.28125 -48.476562 7.199219 -48.398438 7.121094 -48.398438 C 6.960938 -48.238281 6.960938 -47.917969 6.71875 -47.835938 C 6.640625 -47.835938 6.640625 -47.757812 6.71875 -47.675781 C 6.71875 -47.675781 6.800781 -47.675781 6.800781 -47.597656 C 6.960938 -47.835938 7.28125 -47.835938 7.28125 -47.917969 C 7.199219 -48.316406 7.519531 -48.078125 7.597656 -48.078125 C 7.679688 -48.238281 7.839844 -48.316406 7.917969 -48.078125 C 8 -47.996094 8.078125 -47.996094 8.078125 -48.15625 C 8.160156 -48.15625 8.078125 -48.238281 8.160156 -48.238281 C 8.238281 -48.238281 8.320312 -48.238281 8.320312 -48.15625 C 8.320312 -47.996094 8.238281 -47.675781 8 -47.757812 C 7.597656 -47.917969 7.441406 -47.515625 7.199219 -47.4375 C 6.960938 -47.355469 7.28125 -47.195312 7.28125 -47.035156 C 7.28125 -47.035156 7.28125 -46.957031 7.359375 -46.957031 C 7.441406 -46.957031 7.441406 -47.035156 7.441406 -47.117188 C 7.359375 -47.515625 7.917969 -47.355469 8 -47.675781 C 8 -47.675781 8.078125 -47.675781 8.160156 -47.597656 C 8.238281 -47.597656 8.160156 -47.515625 8.160156 -47.4375 L 7.917969 -47.277344 C 7.757812 -47.195312 7.597656 -47.117188 7.917969 -47.035156 C 8 -47.035156 8 -46.957031 8 -46.957031 C 7.839844 -46.636719 7.917969 -46.238281 7.519531 -46.078125 C 7.441406 -45.996094 7.519531 -45.917969 7.597656 -45.917969 L 7.757812 -45.675781 C 7.757812 -45.355469 7.757812 -45.355469 7.519531 -45.4375 C 7.199219 -45.597656 7.039062 -45.277344 6.800781 -45.355469 C 6.960938 -45.597656 6.800781 -45.835938 6.558594 -45.835938 C 6.238281 -45.835938 6 -45.835938 6.078125 -46.238281 C 6.160156 -46.316406 6.078125 -46.316406 6 -46.398438 L 5.917969 -46.316406 C 6 -46.15625 5.679688 -45.996094 5.839844 -45.757812 Z M 24.238281 -11.839844 C 24.160156 -11.839844 24 -11.917969 23.917969 -11.839844 C 23.839844 -11.757812 24 -11.679688 24.078125 -11.597656 C 24.078125 -11.519531 24.238281 -11.4375 24.238281 -11.277344 L 23.839844 -10.960938 C 23.757812 -10.960938 23.757812 -11.039062 23.757812 -11.121094 C 23.597656 -10.960938 23.519531 -10.800781 23.597656 -10.558594 C 23.597656 -10.398438 23.4375 -10.320312 23.277344 -10.320312 C 23.117188 -10.238281 23.039062 -10.398438 22.957031 -10.558594 C 22.878906 -10.558594 22.878906 -10.558594 22.957031 -10.640625 C 23.277344 -10.878906 22.957031 -11.039062 22.796875 -11.199219 C 22.796875 -11.199219 22.71875 -11.277344 22.71875 -11.359375 C 22.957031 -11.597656 22.71875 -11.757812 22.636719 -12 C 22.558594 -12.078125 22.636719 -12.160156 22.796875 -12.160156 C 22.957031 -12.160156 23.117188 -12.238281 23.277344 -12.238281 C 23.199219 -12.398438 23.117188 -12.558594 23.4375 -12.640625 C 23.597656 -12.640625 23.679688 -12.800781 23.917969 -12.800781 C 24.078125 -12.800781 24.238281 -12.71875 24.238281 -12.480469 L 24.320312 -12.480469 C 24.238281 -12.238281 24.320312 -12 24.320312 -11.839844 Z M 25.359375 -3.441406 C 25.277344 -3.199219 25.359375 -2.878906 25.359375 -2.800781 C 25.519531 -2.398438 25.199219 -2.398438 25.039062 -2.320312 C 24.957031 -2.238281 24.878906 -2.320312 24.796875 -2.398438 C 24.71875 -2.480469 24.796875 -2.558594 24.796875 -2.640625 L 24.878906 -2.71875 C 25.117188 -2.640625 25.277344 -2.800781 25.199219 -2.960938 C 25.117188 -3.039062 25.039062 -3.28125 24.878906 -3.039062 C 24.796875 -2.878906 24.796875 -2.878906 24.636719 -2.960938 C 24.636719 -3.039062 24.636719 -3.121094 24.71875 -3.199219 L 24.796875 -3.199219 C 24.957031 -3.28125 25.277344 -3.359375 25.199219 -3.601562 C 25.199219 -3.917969 25.117188 -4.160156 24.878906 -4.398438 C 24.796875 -4.398438 24.71875 -4.480469 24.796875 -4.480469 C 24.796875 -4.558594 24.878906 -4.480469 24.957031 -4.480469 C 25.359375 -4.238281 25.4375 -3.839844 25.359375 -3.441406 Z M 8.878906 -46.796875 C 8.878906 -46.71875 8.800781 -46.71875 8.71875 -46.71875 C 8.480469 -46.71875 8.480469 -46.558594 8.480469 -46.398438 C 8.558594 -46.15625 8.398438 -45.917969 8.160156 -45.996094 C 8 -45.996094 7.839844 -46.078125 8.078125 -46.316406 L 8.320312 -46.71875 C 8.480469 -46.796875 8.558594 -46.957031 8.320312 -47.117188 C 8.238281 -47.195312 8.238281 -47.355469 8.320312 -47.355469 C 8.480469 -47.4375 8.558594 -47.355469 8.558594 -47.355469 C 8.71875 -47.195312 8.800781 -47.035156 8.878906 -46.796875 Z M 23.917969 -13.359375 C 23.839844 -13.359375 23.757812 -13.199219 23.679688 -13.277344 C 23.597656 -13.519531 23.917969 -13.597656 23.917969 -13.757812 C 23.917969 -13.839844 24 -13.839844 24.160156 -13.839844 L 24.320312 -13.679688 C 24.398438 -13.679688 24.476562 -13.679688 24.476562 -13.757812 C 24.476562 -13.839844 24.320312 -14 24.476562 -14 C 24.636719 -14 24.71875 -13.839844 24.878906 -13.757812 C 24.878906 -13.679688 24.796875 -13.679688 24.796875 -13.679688 C 24.558594 -13.4375 24.320312 -13.199219 23.917969 -13.359375 Z M 23.277344 -12.238281 C 23.277344 -12.160156 23.4375 -12.078125 23.4375 -11.917969 C 23.519531 -11.757812 23.4375 -11.597656 23.4375 -11.4375 C 23.4375 -11.359375 23.757812 -11.359375 23.757812 -11.121094 C 23.917969 -11.359375 23.839844 -11.519531 23.757812 -11.757812 C 23.679688 -12.078125 23.757812 -12.238281 24 -12.398438 C 24.078125 -12.398438 24.160156 -12.398438 24.238281 -12.480469 C 23.839844 -12.480469 23.839844 -12.480469 23.4375 -12.238281 Z M 25.039062 -8.640625 C 24.796875 -8.558594 24.558594 -8.800781 24.320312 -8.558594 C 24.320312 -8.558594 24.160156 -8.558594 24.160156 -8.640625 L 24.476562 -9.039062 C 24.476562 -9.121094 24.636719 -9.039062 24.71875 -8.960938 C 24.878906 -8.71875 24.957031 -8.800781 25.039062 -9.039062 L 25.277344 -9.28125 L 25.359375 -9.28125 C 25.4375 -9.199219 25.4375 -9.199219 25.359375 -9.121094 C 25.277344 -9.039062 25.277344 -8.878906 25.277344 -8.71875 C 25.277344 -8.320312 25.117188 -8.640625 25.039062 -8.640625 Z M 8.398438 -1.761719 L 8.238281 -1.761719 C 8.160156 -1.839844 8 -1.917969 8 -2.160156 C 7.917969 -2.238281 7.917969 -2.320312 7.917969 -2.398438 C 7.839844 -2.480469 7.679688 -2.558594 7.757812 -2.640625 C 7.917969 -2.800781 8 -2.878906 8.160156 -2.878906 C 8.238281 -2.878906 8.398438 -2.878906 8.398438 -2.800781 C 8.398438 -2.71875 8.320312 -2.71875 8.238281 -2.71875 C 8 -2.640625 8.078125 -2.558594 8.160156 -2.398438 L 8.398438 -1.839844 Z M 24.078125 -8.160156 C 24.078125 -8.238281 23.917969 -8.320312 24.078125 -8.398438 C 24.238281 -8.480469 24.238281 -8.238281 24.320312 -8.160156 C 24.320312 -8.078125 24.398438 -8 24.398438 -7.839844 C 24.398438 -7.679688 24.320312 -7.597656 24.160156 -7.679688 L 23.839844 -7.839844 C 23.757812 -7.839844 23.597656 -7.757812 23.597656 -7.917969 C 23.597656 -8.078125 23.757812 -8.160156 23.917969 -8.078125 L 24 -8.078125 C 24.078125 -8.078125 24.160156 -8.078125 24.078125 -8.160156 Z M 6.800781 -45.355469 C 6.878906 -45.277344 6.878906 -45.195312 6.960938 -45.195312 C 6.960938 -45.117188 7.039062 -45.117188 6.960938 -45.039062 C 6.71875 -44.957031 6.398438 -45.117188 6.320312 -45.355469 C 6.160156 -45.515625 6 -45.515625 5.917969 -45.675781 C 6.078125 -45.597656 6.238281 -45.675781 6.480469 -45.675781 C 6.558594 -45.597656 6.640625 -45.597656 6.640625 -45.4375 C 6.558594 -45.195312 6.71875 -45.355469 6.800781 -45.355469 Z M 23.359375 -3.679688 C 23.199219 -3.839844 23.679688 -4.078125 23.277344 -4.238281 L 23.277344 -4.320312 C 23.277344 -4.398438 23.359375 -4.398438 23.4375 -4.398438 C 23.519531 -4.238281 23.679688 -4.160156 23.679688 -4 C 23.679688 -3.757812 23.519531 -3.519531 23.597656 -3.28125 C 23.679688 -3.199219 23.597656 -3.199219 23.519531 -3.199219 C 23.4375 -3.199219 23.359375 -3.199219 23.359375 -3.359375 Z M 22.160156 -1.839844 C 22 -1.839844 21.839844 -1.761719 21.839844 -1.917969 C 21.839844 -2.078125 22 -2.078125 22.160156 -2 C 22.238281 -2 22.320312 -1.917969 22.320312 -2.078125 C 22.320312 -2.160156 22.320312 -2.398438 22.398438 -2.320312 C 22.558594 -2.320312 22.636719 -2.160156 22.71875 -2 C 22.796875 -1.917969 22.71875 -1.839844 22.636719 -1.839844 C 22.480469 -1.917969 22.320312 -1.761719 22.160156 -1.839844 Z M 24.320312 -9.597656 C 24.320312 -9.839844 24.398438 -9.679688 24.476562 -9.597656 C 24.636719 -9.597656 24.796875 -9.679688 24.878906 -9.839844 C 25.039062 -10.160156 25.199219 -9.917969 25.277344 -9.757812 C 25.359375 -9.757812 25.359375 -9.597656 25.277344 -9.597656 C 24.957031 -9.757812 24.796875 -9.4375 24.558594 -9.4375 C 24.320312 -9.359375 24.320312 -9.359375 24.320312 -9.597656 Z M 23.359375 -9.28125 C 23.359375 -9.199219 23.359375 -9.039062 23.199219 -9.039062 C 23.039062 -8.960938 22.957031 -9.199219 22.957031 -9.28125 C 22.957031 -9.4375 23.039062 -9.519531 22.796875 -9.519531 C 22.636719 -9.519531 22.796875 -9.597656 22.796875 -9.597656 C 23.117188 -9.757812 23.359375 -9.597656 23.359375 -9.28125 Z M 6.078125 -46.558594 C 6.238281 -46.636719 6.480469 -46.636719 6.558594 -46.796875 C 6.640625 -46.878906 6.480469 -47.195312 6.320312 -47.117188 C 6.238281 -47.117188 6.078125 -46.957031 6 -46.796875 C 6 -46.796875 5.917969 -46.558594 6.078125 -46.558594 Z M 9.917969 -7.917969 C 9.597656 -8 9.679688 -7.519531 9.4375 -7.441406 C 9.28125 -7.441406 9.28125 -7.441406 9.199219 -7.519531 C 9.121094 -7.597656 9.199219 -7.679688 9.199219 -7.757812 C 9.359375 -8 9.597656 -8 9.839844 -8 C 9.917969 -8 9.917969 -8 9.917969 -7.917969 Z M 9.597656 -2.398438 C 9.519531 -2.238281 9.757812 -2.078125 9.679688 -1.917969 C 9.597656 -1.839844 9.679688 -1.761719 9.597656 -1.761719 C 9.519531 -1.761719 9.519531 -1.839844 9.519531 -1.839844 C 9.4375 -2.078125 9.4375 -2.398438 9.28125 -2.558594 C 9.199219 -2.640625 9.199219 -2.71875 9.28125 -2.800781 C 9.359375 -2.800781 9.359375 -2.71875 9.4375 -2.71875 C 9.519531 -2.640625 9.757812 -2.640625 9.597656 -2.398438 Z M 8.558594 -7.121094 C 8.558594 -7.199219 8.558594 -7.28125 8.640625 -7.359375 C 8.800781 -7.359375 8.71875 -7.28125 8.71875 -7.199219 C 8.800781 -7.039062 8.878906 -7.121094 8.960938 -7.121094 C 9.199219 -7.121094 9.28125 -6.878906 9.4375 -6.71875 L 9.4375 -6.640625 C 9.359375 -6.558594 9.359375 -6.640625 9.28125 -6.640625 C 9.121094 -6.800781 9.039062 -7.121094 8.71875 -6.878906 C 8.558594 -6.800781 8.558594 -7.039062 8.558594 -7.121094 Z M 25.039062 -8.640625 C 25.199219 -8.320312 25.199219 -8.078125 24.878906 -7.917969 C 24.878906 -7.839844 24.796875 -7.757812 24.71875 -7.839844 C 24.71875 -7.839844 24.636719 -7.839844 24.558594 -7.917969 C 24.558594 -8 24.636719 -8 24.71875 -8 C 24.957031 -8 24.957031 -8.078125 24.71875 -8.238281 C 24.558594 -8.320312 24.636719 -8.320312 24.796875 -8.398438 C 24.957031 -8.398438 24.957031 -8.558594 25.039062 -8.640625 Z M 24.398438 -10.078125 C 24.238281 -10.238281 24.078125 -10.160156 23.917969 -10.160156 C 23.839844 -10.160156 23.839844 -10 23.757812 -10.078125 L 23.757812 -10.238281 C 23.839844 -10.480469 24 -10.480469 24.160156 -10.480469 C 24.320312 -10.480469 24.476562 -10.320312 24.558594 -10.238281 C 24.558594 -10.160156 24.476562 -10.078125 24.398438 -10.078125 Z M 24.398438 -4.480469 C 24.398438 -4.398438 24.398438 -4.320312 24.320312 -4.320312 C 24.160156 -4.160156 24.078125 -4.078125 24.078125 -3.917969 C 24.078125 -3.917969 24.078125 -3.839844 24 -3.839844 L 23.917969 -3.839844 C 24 -4.078125 23.757812 -4.160156 23.757812 -4.398438 C 23.839844 -4.480469 23.839844 -4.558594 23.839844 -4.558594 C 23.917969 -4.558594 23.917969 -4.480469 23.917969 -4.398438 C 24.160156 -4.238281 24.160156 -4.398438 24.238281 -4.558594 L 24.398438 -4.558594 Z M 23.839844 -15.597656 C 23.839844 -15.519531 23.757812 -15.519531 23.757812 -15.4375 C 23.679688 -15.277344 23.519531 -15.199219 23.4375 -15.277344 C 23.117188 -15.359375 23.117188 -15.359375 23.4375 -15.4375 C 23.519531 -15.4375 23.519531 -15.597656 23.519531 -15.679688 C 23.519531 -15.757812 23.4375 -15.839844 23.519531 -15.917969 C 23.597656 -16 23.839844 -15.679688 23.839844 -15.597656 Z M 23.839844 -15.597656 "/></g></g></g></svg>